<?xml version="1.0" encoding="utf-8" standalone="no"?>
<!DOCTYPE svg PUBLIC "-//W3C//DTD SVG 1.1//EN"
  "http://www.w3.org/Graphics/SVG/1.1/DTD/svg11.dtd">
<svg xmlns:xlink="http://www.w3.org/1999/xlink" width="1144.8pt" height="344.221662pt" viewBox="0 0 1144.8 344.221662" xmlns="http://www.w3.org/2000/svg" version="1.1">
 <metadata>
  <rdf:RDF xmlns:dc="http://purl.org/dc/elements/1.1/" xmlns:cc="http://creativecommons.org/ns#" xmlns:rdf="http://www.w3.org/1999/02/22-rdf-syntax-ns#">
   <cc:Work>
    <dc:type rdf:resource="http://purl.org/dc/dcmitype/StillImage"/>
    <dc:date>2024-05-07T23:47:47.391811</dc:date>
    <dc:format>image/svg+xml</dc:format>
    <dc:creator>
     <cc:Agent>
      <dc:title>Matplotlib v3.8.4, https://matplotlib.org/</dc:title>
     </cc:Agent>
    </dc:creator>
   </cc:Work>
  </rdf:RDF>
 </metadata>
 <defs>
  <style type="text/css">*{stroke-linejoin: round; stroke-linecap: butt}</style>
 </defs>
 <g id="figure_1">
  <g id="patch_1">
   <path d="M 0 344.221662 
L 1144.8 344.221662 
L 1144.8 0 
L 0 0 
z
" style="fill: #ffffff"/>
  </g>
  <g id="axes_1">
   <g id="patch_2">
    <path d="M 7.2 140.139088 
L 159.428571 140.139088 
L 159.428571 7.2 
L 7.2 7.2 
z
" style="fill: #ffffff"/>
   </g>
   <g id="patch_3">
    <path d="M 19.221539 69.909713 
L 49.974743 16.645165 
L 51.221389 17.364937 
L 20.468185 70.629486 
M 19.844862 70.2696 
L 19.844862 70.2696 
" clip-path="url(#pbd2629330c)" style="fill: #2c404c; opacity: 0.5"/>
   </g>
   <g id="patch_4">
    <path d="M 48.011726 127.293979 
L 17.258523 74.02943 
L 18.505169 73.309658 
L 49.258373 126.574206 
M 48.635049 126.934093 
L 48.635049 126.934093 
" clip-path="url(#pbd2629330c)" style="fill: #2c404c; opacity: 0.5"/>
   </g>
   <g id="patch_5">
    <path d="M 112.104559 131.053794 
L 50.598066 131.053794 
L 50.598066 129.61428 
L 112.104559 129.61428 
M 112.104559 130.334037 
L 112.104559 130.334037 
" clip-path="url(#pbd2629330c)" style="fill: #2c404c; opacity: 0.5"/>
   </g>
   <g id="patch_6">
    <path d="M 147.407032 77.429375 
L 116.653829 130.693923 
L 115.407183 129.974151 
L 146.160386 76.709602 
M 146.783709 77.069488 
L 146.783709 77.069488 
" clip-path="url(#pbd2629330c)" style="fill: #2c404c; opacity: 0.5"/>
   </g>
   <g id="patch_7">
    <path d="M 118.616845 20.045109 
L 149.370049 73.309658 
L 148.123402 74.02943 
L 117.370199 20.764882 
M 117.993522 20.404995 
L 117.993522 20.404995 
" clip-path="url(#pbd2629330c)" style="fill: #2c404c; opacity: 0.5"/>
   </g>
   <g id="patch_8">
    <path d="M 112.104559 17.724808 
L 50.598066 17.724808 
L 50.598066 16.285294 
L 112.104559 16.285294 
M 112.104559 17.005051 
L 112.104559 17.005051 
" clip-path="url(#pbd2629330c)" style="fill: #2c404c; opacity: 0.5"/>
   </g>
   <g id="patch_9">
    <path d="M 144.855999 72.556613 
L 50.107333 17.85505 
L 51.088798 16.155053 
L 145.837464 70.856616 
M 145.346731 71.706614 
L 145.346731 71.706614 
" clip-path="url(#pbd2629330c)" style="fill: #ffc0cb"/>
   </g>
   <g id="patch_10">
    <path d="M 113.217503 127.424847 
L 49.74808 17.495805 
L 51.448052 16.514297 
L 114.917475 126.443339 
M 114.067489 126.934093 
L 114.067489 126.934093 
" clip-path="url(#pbd2629330c)" style="fill: #ffc0cb"/>
   </g>
   <g id="patch_11">
    <path d="M 49.616579 126.408091 
L 49.616579 17.005051 
L 51.579552 17.005051 
L 51.579552 126.408091 
M 50.598066 126.408091 
L 50.598066 126.408091 
" clip-path="url(#pbd2629330c)" style="fill: #ffc0cb"/>
   </g>
   <g id="matplotlib.axis_1"/>
   <g id="matplotlib.axis_2"/>
   <g id="patch_12">
    <path d="M 50.598066 20.767416 
C 51.595857 20.767416 52.552915 20.37099 53.25846 19.665445 
C 53.964005 18.9599 54.360431 18.002842 54.360431 17.005051 
C 54.360431 16.00726 53.964005 15.050202 53.25846 14.344657 
C 52.552915 13.639112 51.595857 13.242686 50.598066 13.242686 
C 49.600275 13.242686 48.643216 13.639112 47.937672 14.344657 
C 47.232127 15.050202 46.8357 16.00726 46.8357 17.005051 
C 46.8357 18.002842 47.232127 18.9599 47.937672 19.665445 
C 48.643216 20.37099 49.600275 20.767416 50.598066 20.767416 
z
" clip-path="url(#pbd2629330c)" style="fill: #ffffff; stroke: #2c404c; stroke-width: 0.327162; stroke-linejoin: miter"/>
   </g>
   <g id="patch_13">
    <path d="M 17.881846 77.431909 
C 18.879637 77.431909 19.836695 77.035483 20.54224 76.329938 
C 21.247785 75.624393 21.644211 74.667335 21.644211 73.669544 
C 21.644211 72.671753 21.247785 71.714695 20.54224 71.00915 
C 19.836695 70.303605 18.879637 69.907179 17.881846 69.907179 
C 16.884055 69.907179 15.926997 70.303605 15.221452 71.00915 
C 14.515907 71.714695 14.119481 72.671753 14.119481 73.669544 
C 14.119481 74.667335 14.515907 75.624393 15.221452 76.329938 
C 15.926997 77.035483 16.884055 77.431909 17.881846 77.431909 
z
" clip-path="url(#pbd2629330c)" style="fill: #ffffff; stroke: #2c404c; stroke-width: 0.327162; stroke-linejoin: miter"/>
   </g>
   <g id="patch_14">
    <path d="M 50.598066 134.096402 
C 51.595857 134.096402 52.552915 133.699976 53.25846 132.994431 
C 53.964005 132.288886 54.360431 131.331828 54.360431 130.334037 
C 54.360431 129.336246 53.964005 128.379188 53.25846 127.673643 
C 52.552915 126.968098 51.595857 126.571672 50.598066 126.571672 
C 49.600275 126.571672 48.643216 126.968098 47.937672 127.673643 
C 47.232127 128.379188 46.8357 129.336246 46.8357 130.334037 
C 46.8357 131.331828 47.232127 132.288886 47.937672 132.994431 
C 48.643216 133.699976 49.600275 134.096402 50.598066 134.096402 
z
" clip-path="url(#pbd2629330c)" style="fill: #ffffff; stroke: #2c404c; stroke-width: 0.327162; stroke-linejoin: miter"/>
   </g>
   <g id="patch_15">
    <path d="M 116.030506 134.096402 
C 117.028297 134.096402 117.985355 133.699976 118.6909 132.994431 
C 119.396444 132.288886 119.792871 131.331828 119.792871 130.334037 
C 119.792871 129.336246 119.396444 128.379188 118.6909 127.673643 
C 117.985355 126.968098 117.028297 126.571672 116.030506 126.571672 
C 115.032715 126.571672 114.075656 126.968098 113.370112 127.673643 
C 112.664567 128.379188 112.26814 129.336246 112.26814 130.334037 
C 112.26814 131.331828 112.664567 132.288886 113.370112 132.994431 
C 114.075656 133.699976 115.032715 134.096402 116.030506 134.096402 
z
" clip-path="url(#pbd2629330c)" style="fill: #ffffff; stroke: #2c404c; stroke-width: 0.327162; stroke-linejoin: miter"/>
   </g>
   <g id="patch_16">
    <path d="M 148.746726 77.431909 
C 149.744517 77.431909 150.701575 77.035483 151.40712 76.329938 
C 152.112664 75.624393 152.509091 74.667335 152.509091 73.669544 
C 152.509091 72.671753 152.112664 71.714695 151.40712 71.00915 
C 150.701575 70.303605 149.744517 69.907179 148.746726 69.907179 
C 147.748935 69.907179 146.791876 70.303605 146.086332 71.00915 
C 145.380787 71.714695 144.98436 72.671753 144.98436 73.669544 
C 144.98436 74.667335 145.380787 75.624393 146.086332 76.329938 
C 146.791876 77.035483 147.748935 77.431909 148.746726 77.431909 
z
" clip-path="url(#pbd2629330c)" style="fill: #ffffff; stroke: #2c404c; stroke-width: 0.327162; stroke-linejoin: miter"/>
   </g>
   <g id="patch_17">
    <path d="M 116.030506 20.767416 
C 117.028297 20.767416 117.985355 20.37099 118.6909 19.665445 
C 119.396444 18.9599 119.792871 18.002842 119.792871 17.005051 
C 119.792871 16.00726 119.396444 15.050202 118.6909 14.344657 
C 117.985355 13.639112 117.028297 13.242686 116.030506 13.242686 
C 115.032715 13.242686 114.075656 13.639112 113.370112 14.344657 
C 112.664567 15.050202 112.26814 16.00726 112.26814 17.005051 
C 112.26814 18.002842 112.664567 18.9599 113.370112 19.665445 
C 114.075656 20.37099 115.032715 20.767416 116.030506 20.767416 
z
" clip-path="url(#pbd2629330c)" style="fill: #ffffff; stroke: #2c404c; stroke-width: 0.327162; stroke-linejoin: miter"/>
   </g>
  </g>
  <g id="axes_2">
   <g id="patch_18">
    <path d="M 170.228571 140.139088 
L 322.457143 140.139088 
L 322.457143 7.2 
L 170.228571 7.2 
z
" style="fill: #ffffff"/>
   </g>
   <g id="patch_19">
    <path d="M 182.25011 69.909713 
L 213.003314 16.645165 
L 214.24996 17.364937 
L 183.496757 70.629486 
M 182.873434 70.2696 
L 182.873434 70.2696 
" clip-path="url(#p729610cc56)" style="fill: #2c404c; opacity: 0.5"/>
   </g>
   <g id="patch_20">
    <path d="M 211.040298 127.293979 
L 180.287094 74.02943 
L 181.53374 73.309658 
L 212.286944 126.574206 
M 211.663621 126.934093 
L 211.663621 126.934093 
" clip-path="url(#p729610cc56)" style="fill: #2c404c; opacity: 0.5"/>
   </g>
   <g id="patch_21">
    <path d="M 275.133131 131.053794 
L 213.626637 131.053794 
L 213.626637 129.61428 
L 275.133131 129.61428 
M 275.133131 130.334037 
L 275.133131 130.334037 
" clip-path="url(#p729610cc56)" style="fill: #2c404c; opacity: 0.5"/>
   </g>
   <g id="patch_22">
    <path d="M 310.435604 77.429375 
L 279.6824 130.693923 
L 278.435754 129.974151 
L 309.188958 76.709602 
M 309.812281 77.069488 
L 309.812281 77.069488 
" clip-path="url(#p729610cc56)" style="fill: #2c404c; opacity: 0.5"/>
   </g>
   <g id="patch_23">
    <path d="M 281.645417 20.045109 
L 312.39862 73.309658 
L 311.151974 74.02943 
L 280.39877 20.764882 
M 281.022093 20.404995 
L 281.022093 20.404995 
" clip-path="url(#p729610cc56)" style="fill: #2c404c; opacity: 0.5"/>
   </g>
   <g id="patch_24">
    <path d="M 275.133131 17.724808 
L 213.626637 17.724808 
L 213.626637 16.285294 
L 275.133131 16.285294 
M 275.133131 17.005051 
L 275.133131 17.005051 
" clip-path="url(#p729610cc56)" style="fill: #2c404c; opacity: 0.5"/>
   </g>
   <g id="patch_25">
    <path d="M 276.149815 19.81798 
L 181.40115 74.519543 
L 180.419685 72.819546 
L 275.16835 18.117983 
M 275.659083 18.967981 
L 275.659083 18.967981 
" clip-path="url(#p729610cc56)" style="fill: #ffc0cb"/>
   </g>
   <g id="patch_26">
    <path d="M 280.040564 20.930998 
L 280.040564 130.334037 
L 278.07759 130.334037 
L 278.07759 20.930998 
M 279.059077 20.930998 
L 279.059077 20.930998 
" clip-path="url(#p729610cc56)" style="fill: #ffc0cb"/>
   </g>
   <g id="patch_27">
    <path d="M 275.16835 129.221106 
L 180.419685 74.519543 
L 181.40115 72.819546 
L 276.149815 127.521108 
M 275.659083 128.371107 
L 275.659083 128.371107 
" clip-path="url(#p729610cc56)" style="fill: #ffc0cb"/>
   </g>
   <g id="matplotlib.axis_3"/>
   <g id="matplotlib.axis_4"/>
   <g id="patch_28">
    <path d="M 213.626637 20.767416 
C 214.624428 20.767416 215.581486 20.37099 216.287031 19.665445 
C 216.992576 18.9599 217.389002 18.002842 217.389002 17.005051 
C 217.389002 16.00726 216.992576 15.050202 216.287031 14.344657 
C 215.581486 13.639112 214.624428 13.242686 213.626637 13.242686 
C 212.628846 13.242686 211.671788 13.639112 210.966243 14.344657 
C 210.260698 15.050202 209.864272 16.00726 209.864272 17.005051 
C 209.864272 18.002842 210.260698 18.9599 210.966243 19.665445 
C 211.671788 20.37099 212.628846 20.767416 213.626637 20.767416 
z
" clip-path="url(#p729610cc56)" style="fill: #ffffff; stroke: #2c404c; stroke-width: 0.327162; stroke-linejoin: miter"/>
   </g>
   <g id="patch_29">
    <path d="M 180.910417 77.431909 
C 181.908208 77.431909 182.865267 77.035483 183.570811 76.329938 
C 184.276356 75.624393 184.672783 74.667335 184.672783 73.669544 
C 184.672783 72.671753 184.276356 71.714695 183.570811 71.00915 
C 182.865267 70.303605 181.908208 69.907179 180.910417 69.907179 
C 179.912626 69.907179 178.955568 70.303605 178.250023 71.00915 
C 177.544478 71.714695 177.148052 72.671753 177.148052 73.669544 
C 177.148052 74.667335 177.544478 75.624393 178.250023 76.329938 
C 178.955568 77.035483 179.912626 77.431909 180.910417 77.431909 
z
" clip-path="url(#p729610cc56)" style="fill: #ffffff; stroke: #2c404c; stroke-width: 0.327162; stroke-linejoin: miter"/>
   </g>
   <g id="patch_30">
    <path d="M 213.626637 134.096402 
C 214.624428 134.096402 215.581486 133.699976 216.287031 132.994431 
C 216.992576 132.288886 217.389002 131.331828 217.389002 130.334037 
C 217.389002 129.336246 216.992576 128.379188 216.287031 127.673643 
C 215.581486 126.968098 214.624428 126.571672 213.626637 126.571672 
C 212.628846 126.571672 211.671788 126.968098 210.966243 127.673643 
C 210.260698 128.379188 209.864272 129.336246 209.864272 130.334037 
C 209.864272 131.331828 210.260698 132.288886 210.966243 132.994431 
C 211.671788 133.699976 212.628846 134.096402 213.626637 134.096402 
z
" clip-path="url(#p729610cc56)" style="fill: #ffffff; stroke: #2c404c; stroke-width: 0.327162; stroke-linejoin: miter"/>
   </g>
   <g id="patch_31">
    <path d="M 279.059077 134.096402 
C 280.056868 134.096402 281.013926 133.699976 281.719471 132.994431 
C 282.425016 132.288886 282.821442 131.331828 282.821442 130.334037 
C 282.821442 129.336246 282.425016 128.379188 281.719471 127.673643 
C 281.013926 126.968098 280.056868 126.571672 279.059077 126.571672 
C 278.061286 126.571672 277.104228 126.968098 276.398683 127.673643 
C 275.693138 128.379188 275.296712 129.336246 275.296712 130.334037 
C 275.296712 131.331828 275.693138 132.288886 276.398683 132.994431 
C 277.104228 133.699976 278.061286 134.096402 279.059077 134.096402 
z
" clip-path="url(#p729610cc56)" style="fill: #ffffff; stroke: #2c404c; stroke-width: 0.327162; stroke-linejoin: miter"/>
   </g>
   <g id="patch_32">
    <path d="M 311.775297 77.431909 
C 312.773088 77.431909 313.730146 77.035483 314.435691 76.329938 
C 315.141236 75.624393 315.537662 74.667335 315.537662 73.669544 
C 315.537662 72.671753 315.141236 71.714695 314.435691 71.00915 
C 313.730146 70.303605 312.773088 69.907179 311.775297 69.907179 
C 310.777506 69.907179 309.820448 70.303605 309.114903 71.00915 
C 308.409358 71.714695 308.012932 72.671753 308.012932 73.669544 
C 308.012932 74.667335 308.409358 75.624393 309.114903 76.329938 
C 309.820448 77.035483 310.777506 77.431909 311.775297 77.431909 
z
" clip-path="url(#p729610cc56)" style="fill: #ffffff; stroke: #2c404c; stroke-width: 0.327162; stroke-linejoin: miter"/>
   </g>
   <g id="patch_33">
    <path d="M 279.059077 20.767416 
C 280.056868 20.767416 281.013926 20.37099 281.719471 19.665445 
C 282.425016 18.9599 282.821442 18.002842 282.821442 17.005051 
C 282.821442 16.00726 282.425016 15.050202 281.719471 14.344657 
C 281.013926 13.639112 280.056868 13.242686 279.059077 13.242686 
C 278.061286 13.242686 277.104228 13.639112 276.398683 14.344657 
C 275.693138 15.050202 275.296712 16.00726 275.296712 17.005051 
C 275.296712 18.002842 275.693138 18.9599 276.398683 19.665445 
C 277.104228 20.37099 278.061286 20.767416 279.059077 20.767416 
z
" clip-path="url(#p729610cc56)" style="fill: #ffffff; stroke: #2c404c; stroke-width: 0.327162; stroke-linejoin: miter"/>
   </g>
  </g>
  <g id="axes_3">
   <g id="patch_34">
    <path d="M 333.257143 140.139088 
L 485.485714 140.139088 
L 485.485714 7.2 
L 333.257143 7.2 
z
" style="fill: #ffffff"/>
   </g>
   <g id="patch_35">
    <path d="M 345.278682 69.909713 
L 376.031885 16.645165 
L 377.278532 17.364937 
L 346.525328 70.629486 
M 345.902005 70.2696 
L 345.902005 70.2696 
" clip-path="url(#p60aa27de19)" style="fill: #2c404c; opacity: 0.5"/>
   </g>
   <g id="patch_36">
    <path d="M 374.068869 127.293979 
L 343.315666 74.02943 
L 344.562312 73.309658 
L 375.315515 126.574206 
M 374.692192 126.934093 
L 374.692192 126.934093 
" clip-path="url(#p60aa27de19)" style="fill: #2c404c; opacity: 0.5"/>
   </g>
   <g id="patch_37">
    <path d="M 438.161702 131.053794 
L 376.655209 131.053794 
L 376.655209 129.61428 
L 438.161702 129.61428 
M 438.161702 130.334037 
L 438.161702 130.334037 
" clip-path="url(#p60aa27de19)" style="fill: #2c404c; opacity: 0.5"/>
   </g>
   <g id="patch_38">
    <path d="M 473.464175 77.429375 
L 442.710972 130.693923 
L 441.464325 129.974151 
L 472.217529 76.709602 
M 472.840852 77.069488 
L 472.840852 77.069488 
" clip-path="url(#p60aa27de19)" style="fill: #2c404c; opacity: 0.5"/>
   </g>
   <g id="patch_39">
    <path d="M 444.673988 20.045109 
L 475.427192 73.309658 
L 474.180545 74.02943 
L 443.427342 20.764882 
M 444.050665 20.404995 
L 444.050665 20.404995 
" clip-path="url(#p60aa27de19)" style="fill: #2c404c; opacity: 0.5"/>
   </g>
   <g id="patch_40">
    <path d="M 438.161702 17.724808 
L 376.655209 17.724808 
L 376.655209 16.285294 
L 438.161702 16.285294 
M 438.161702 17.005051 
L 438.161702 17.005051 
" clip-path="url(#p60aa27de19)" style="fill: #2c404c; opacity: 0.5"/>
   </g>
   <g id="patch_41">
    <path d="M 470.913142 72.556613 
L 376.164476 17.85505 
L 377.145941 16.155053 
L 471.894607 70.856616 
M 471.403874 71.706614 
L 471.403874 71.706614 
" clip-path="url(#p60aa27de19)" style="fill: #ffc0cb"/>
   </g>
   <g id="patch_42">
    <path d="M 471.894607 76.482473 
L 377.145941 131.184036 
L 376.164476 129.484038 
L 470.913142 74.782476 
M 471.403874 75.632474 
L 471.403874 75.632474 
" clip-path="url(#p60aa27de19)" style="fill: #ffc0cb"/>
   </g>
   <g id="patch_43">
    <path d="M 375.673722 126.408091 
L 375.673722 17.005051 
L 377.636695 17.005051 
L 377.636695 126.408091 
M 376.655209 126.408091 
L 376.655209 126.408091 
" clip-path="url(#p60aa27de19)" style="fill: #ffc0cb"/>
   </g>
   <g id="matplotlib.axis_5"/>
   <g id="matplotlib.axis_6"/>
   <g id="patch_44">
    <path d="M 376.655209 20.767416 
C 377.653 20.767416 378.610058 20.37099 379.315603 19.665445 
C 380.021147 18.9599 380.417574 18.002842 380.417574 17.005051 
C 380.417574 16.00726 380.021147 15.050202 379.315603 14.344657 
C 378.610058 13.639112 377.653 13.242686 376.655209 13.242686 
C 375.657418 13.242686 374.700359 13.639112 373.994815 14.344657 
C 373.28927 15.050202 372.892843 16.00726 372.892843 17.005051 
C 372.892843 18.002842 373.28927 18.9599 373.994815 19.665445 
C 374.700359 20.37099 375.657418 20.767416 376.655209 20.767416 
z
" clip-path="url(#p60aa27de19)" style="fill: #ffffff; stroke: #2c404c; stroke-width: 0.327162; stroke-linejoin: miter"/>
   </g>
   <g id="patch_45">
    <path d="M 343.938989 77.431909 
C 344.93678 77.431909 345.893838 77.035483 346.599383 76.329938 
C 347.304927 75.624393 347.701354 74.667335 347.701354 73.669544 
C 347.701354 72.671753 347.304927 71.714695 346.599383 71.00915 
C 345.893838 70.303605 344.93678 69.907179 343.938989 69.907179 
C 342.941198 69.907179 341.984139 70.303605 341.278595 71.00915 
C 340.57305 71.714695 340.176623 72.671753 340.176623 73.669544 
C 340.176623 74.667335 340.57305 75.624393 341.278595 76.329938 
C 341.984139 77.035483 342.941198 77.431909 343.938989 77.431909 
z
" clip-path="url(#p60aa27de19)" style="fill: #ffffff; stroke: #2c404c; stroke-width: 0.327162; stroke-linejoin: miter"/>
   </g>
   <g id="patch_46">
    <path d="M 376.655209 134.096402 
C 377.653 134.096402 378.610058 133.699976 379.315603 132.994431 
C 380.021147 132.288886 380.417574 131.331828 380.417574 130.334037 
C 380.417574 129.336246 380.021147 128.379188 379.315603 127.673643 
C 378.610058 126.968098 377.653 126.571672 376.655209 126.571672 
C 375.657418 126.571672 374.700359 126.968098 373.994815 127.673643 
C 373.28927 128.379188 372.892843 129.336246 372.892843 130.334037 
C 372.892843 131.331828 373.28927 132.288886 373.994815 132.994431 
C 374.700359 133.699976 375.657418 134.096402 376.655209 134.096402 
z
" clip-path="url(#p60aa27de19)" style="fill: #ffffff; stroke: #2c404c; stroke-width: 0.327162; stroke-linejoin: miter"/>
   </g>
   <g id="patch_47">
    <path d="M 442.087649 134.096402 
C 443.085439 134.096402 444.042498 133.699976 444.748043 132.994431 
C 445.453587 132.288886 445.850014 131.331828 445.850014 130.334037 
C 445.850014 129.336246 445.453587 128.379188 444.748043 127.673643 
C 444.042498 126.968098 443.085439 126.571672 442.087649 126.571672 
C 441.089858 126.571672 440.132799 126.968098 439.427255 127.673643 
C 438.72171 128.379188 438.325283 129.336246 438.325283 130.334037 
C 438.325283 131.331828 438.72171 132.288886 439.427255 132.994431 
C 440.132799 133.699976 441.089858 134.096402 442.087649 134.096402 
z
" clip-path="url(#p60aa27de19)" style="fill: #ffffff; stroke: #2c404c; stroke-width: 0.327162; stroke-linejoin: miter"/>
   </g>
   <g id="patch_48">
    <path d="M 474.803868 77.431909 
C 475.801659 77.431909 476.758718 77.035483 477.464262 76.329938 
C 478.169807 75.624393 478.566234 74.667335 478.566234 73.669544 
C 478.566234 72.671753 478.169807 71.714695 477.464262 71.00915 
C 476.758718 70.303605 475.801659 69.907179 474.803868 69.907179 
C 473.806078 69.907179 472.849019 70.303605 472.143474 71.00915 
C 471.43793 71.714695 471.041503 72.671753 471.041503 73.669544 
C 471.041503 74.667335 471.43793 75.624393 472.143474 76.329938 
C 472.849019 77.035483 473.806078 77.431909 474.803868 77.431909 
z
" clip-path="url(#p60aa27de19)" style="fill: #ffffff; stroke: #2c404c; stroke-width: 0.327162; stroke-linejoin: miter"/>
   </g>
   <g id="patch_49">
    <path d="M 442.087649 20.767416 
C 443.085439 20.767416 444.042498 20.37099 444.748043 19.665445 
C 445.453587 18.9599 445.850014 18.002842 445.850014 17.005051 
C 445.850014 16.00726 445.453587 15.050202 444.748043 14.344657 
C 444.042498 13.639112 443.085439 13.242686 442.087649 13.242686 
C 441.089858 13.242686 440.132799 13.639112 439.427255 14.344657 
C 438.72171 15.050202 438.325283 16.00726 438.325283 17.005051 
C 438.325283 18.002842 438.72171 18.9599 439.427255 19.665445 
C 440.132799 20.37099 441.089858 20.767416 442.087649 20.767416 
z
" clip-path="url(#p60aa27de19)" style="fill: #ffffff; stroke: #2c404c; stroke-width: 0.327162; stroke-linejoin: miter"/>
   </g>
  </g>
  <g id="axes_4">
   <g id="patch_50">
    <path d="M 496.285714 140.139088 
L 648.514286 140.139088 
L 648.514286 7.2 
L 496.285714 7.2 
z
" style="fill: #ffffff"/>
   </g>
   <g id="patch_51">
    <path d="M 508.307253 69.909713 
L 539.060457 16.645165 
L 540.307103 17.364937 
L 509.5539 70.629486 
M 508.930576 70.2696 
L 508.930576 70.2696 
" clip-path="url(#pa65763b611)" style="fill: #2c404c; opacity: 0.5"/>
   </g>
   <g id="patch_52">
    <path d="M 537.097441 127.293979 
L 506.344237 74.02943 
L 507.590883 73.309658 
L 538.344087 126.574206 
M 537.720764 126.934093 
L 537.720764 126.934093 
" clip-path="url(#pa65763b611)" style="fill: #2c404c; opacity: 0.5"/>
   </g>
   <g id="patch_53">
    <path d="M 601.190274 131.053794 
L 539.68378 131.053794 
L 539.68378 129.61428 
L 601.190274 129.61428 
M 601.190274 130.334037 
L 601.190274 130.334037 
" clip-path="url(#pa65763b611)" style="fill: #2c404c; opacity: 0.5"/>
   </g>
   <g id="patch_54">
    <path d="M 636.492747 77.429375 
L 605.739543 130.693923 
L 604.492897 129.974151 
L 635.2461 76.709602 
M 635.869424 77.069488 
L 635.869424 77.069488 
" clip-path="url(#pa65763b611)" style="fill: #2c404c; opacity: 0.5"/>
   </g>
   <g id="patch_55">
    <path d="M 607.702559 20.045109 
L 638.455763 73.309658 
L 637.209117 74.02943 
L 606.455913 20.764882 
M 607.079236 20.404995 
L 607.079236 20.404995 
" clip-path="url(#pa65763b611)" style="fill: #2c404c; opacity: 0.5"/>
   </g>
   <g id="patch_56">
    <path d="M 601.190274 17.724808 
L 539.68378 17.724808 
L 539.68378 16.285294 
L 601.190274 16.285294 
M 601.190274 17.005051 
L 601.190274 17.005051 
" clip-path="url(#pa65763b611)" style="fill: #2c404c; opacity: 0.5"/>
   </g>
   <g id="patch_57">
    <path d="M 604.00319 20.89575 
L 540.533766 130.824791 
L 538.833794 129.843283 
L 602.303217 19.914241 
M 603.153204 20.404995 
L 603.153204 20.404995 
" clip-path="url(#pa65763b611)" style="fill: #ffc0cb"/>
   </g>
   <g id="patch_58">
    <path d="M 634.923178 76.482473 
L 540.174513 131.184036 
L 539.193048 129.484038 
L 633.941713 74.782476 
M 634.432446 75.632474 
L 634.432446 75.632474 
" clip-path="url(#pa65763b611)" style="fill: #ffc0cb"/>
   </g>
   <g id="patch_59">
    <path d="M 538.702293 126.408091 
L 538.702293 17.005051 
L 540.665267 17.005051 
L 540.665267 126.408091 
M 539.68378 126.408091 
L 539.68378 126.408091 
" clip-path="url(#pa65763b611)" style="fill: #ffc0cb"/>
   </g>
   <g id="matplotlib.axis_7"/>
   <g id="matplotlib.axis_8"/>
   <g id="patch_60">
    <path d="M 539.68378 20.767416 
C 540.681571 20.767416 541.638629 20.37099 542.344174 19.665445 
C 543.049719 18.9599 543.446145 18.002842 543.446145 17.005051 
C 543.446145 16.00726 543.049719 15.050202 542.344174 14.344657 
C 541.638629 13.639112 540.681571 13.242686 539.68378 13.242686 
C 538.685989 13.242686 537.728931 13.639112 537.023386 14.344657 
C 536.317841 15.050202 535.921415 16.00726 535.921415 17.005051 
C 535.921415 18.002842 536.317841 18.9599 537.023386 19.665445 
C 537.728931 20.37099 538.685989 20.767416 539.68378 20.767416 
z
" clip-path="url(#pa65763b611)" style="fill: #ffffff; stroke: #2c404c; stroke-width: 0.327162; stroke-linejoin: miter"/>
   </g>
   <g id="patch_61">
    <path d="M 506.96756 77.431909 
C 507.965351 77.431909 508.922409 77.035483 509.627954 76.329938 
C 510.333499 75.624393 510.729925 74.667335 510.729925 73.669544 
C 510.729925 72.671753 510.333499 71.714695 509.627954 71.00915 
C 508.922409 70.303605 507.965351 69.907179 506.96756 69.907179 
C 505.969769 69.907179 505.012711 70.303605 504.307166 71.00915 
C 503.601621 71.714695 503.205195 72.671753 503.205195 73.669544 
C 503.205195 74.667335 503.601621 75.624393 504.307166 76.329938 
C 505.012711 77.035483 505.969769 77.431909 506.96756 77.431909 
z
" clip-path="url(#pa65763b611)" style="fill: #ffffff; stroke: #2c404c; stroke-width: 0.327162; stroke-linejoin: miter"/>
   </g>
   <g id="patch_62">
    <path d="M 539.68378 134.096402 
C 540.681571 134.096402 541.638629 133.699976 542.344174 132.994431 
C 543.049719 132.288886 543.446145 131.331828 543.446145 130.334037 
C 543.446145 129.336246 543.049719 128.379188 542.344174 127.673643 
C 541.638629 126.968098 540.681571 126.571672 539.68378 126.571672 
C 538.685989 126.571672 537.728931 126.968098 537.023386 127.673643 
C 536.317841 128.379188 535.921415 129.336246 535.921415 130.334037 
C 535.921415 131.331828 536.317841 132.288886 537.023386 132.994431 
C 537.728931 133.699976 538.685989 134.096402 539.68378 134.096402 
z
" clip-path="url(#pa65763b611)" style="fill: #ffffff; stroke: #2c404c; stroke-width: 0.327162; stroke-linejoin: miter"/>
   </g>
   <g id="patch_63">
    <path d="M 605.11622 134.096402 
C 606.114011 134.096402 607.071069 133.699976 607.776614 132.994431 
C 608.482159 132.288886 608.878585 131.331828 608.878585 130.334037 
C 608.878585 129.336246 608.482159 128.379188 607.776614 127.673643 
C 607.071069 126.968098 606.114011 126.571672 605.11622 126.571672 
C 604.118429 126.571672 603.161371 126.968098 602.455826 127.673643 
C 601.750281 128.379188 601.353855 129.336246 601.353855 130.334037 
C 601.353855 131.331828 601.750281 132.288886 602.455826 132.994431 
C 603.161371 133.699976 604.118429 134.096402 605.11622 134.096402 
z
" clip-path="url(#pa65763b611)" style="fill: #ffffff; stroke: #2c404c; stroke-width: 0.327162; stroke-linejoin: miter"/>
   </g>
   <g id="patch_64">
    <path d="M 637.83244 77.431909 
C 638.830231 77.431909 639.787289 77.035483 640.492834 76.329938 
C 641.198379 75.624393 641.594805 74.667335 641.594805 73.669544 
C 641.594805 72.671753 641.198379 71.714695 640.492834 71.00915 
C 639.787289 70.303605 638.830231 69.907179 637.83244 69.907179 
C 636.834649 69.907179 635.877591 70.303605 635.172046 71.00915 
C 634.466501 71.714695 634.070075 72.671753 634.070075 73.669544 
C 634.070075 74.667335 634.466501 75.624393 635.172046 76.329938 
C 635.877591 77.035483 636.834649 77.431909 637.83244 77.431909 
z
" clip-path="url(#pa65763b611)" style="fill: #ffffff; stroke: #2c404c; stroke-width: 0.327162; stroke-linejoin: miter"/>
   </g>
   <g id="patch_65">
    <path d="M 605.11622 20.767416 
C 606.114011 20.767416 607.071069 20.37099 607.776614 19.665445 
C 608.482159 18.9599 608.878585 18.002842 608.878585 17.005051 
C 608.878585 16.00726 608.482159 15.050202 607.776614 14.344657 
C 607.071069 13.639112 606.114011 13.242686 605.11622 13.242686 
C 604.118429 13.242686 603.161371 13.639112 602.455826 14.344657 
C 601.750281 15.050202 601.353855 16.00726 601.353855 17.005051 
C 601.353855 18.002842 601.750281 18.9599 602.455826 19.665445 
C 603.161371 20.37099 604.118429 20.767416 605.11622 20.767416 
z
" clip-path="url(#pa65763b611)" style="fill: #ffffff; stroke: #2c404c; stroke-width: 0.327162; stroke-linejoin: miter"/>
   </g>
  </g>
  <g id="axes_5">
   <g id="patch_66">
    <path d="M 659.314286 140.139088 
L 811.542857 140.139088 
L 811.542857 7.2 
L 659.314286 7.2 
z
" style="fill: #ffffff"/>
   </g>
   <g id="patch_67">
    <path d="M 671.335825 69.909713 
L 702.089028 16.645165 
L 703.335675 17.364937 
L 672.582471 70.629486 
M 671.959148 70.2696 
L 671.959148 70.2696 
" clip-path="url(#p43107b77b0)" style="fill: #2c404c; opacity: 0.5"/>
   </g>
   <g id="patch_68">
    <path d="M 700.126012 127.293979 
L 669.372808 74.02943 
L 670.619455 73.309658 
L 701.372658 126.574206 
M 700.749335 126.934093 
L 700.749335 126.934093 
" clip-path="url(#p43107b77b0)" style="fill: #2c404c; opacity: 0.5"/>
   </g>
   <g id="patch_69">
    <path d="M 764.218845 131.053794 
L 702.712351 131.053794 
L 702.712351 129.61428 
L 764.218845 129.61428 
M 764.218845 130.334037 
L 764.218845 130.334037 
" clip-path="url(#p43107b77b0)" style="fill: #2c404c; opacity: 0.5"/>
   </g>
   <g id="patch_70">
    <path d="M 799.521318 77.429375 
L 768.768115 130.693923 
L 767.521468 129.974151 
L 798.274672 76.709602 
M 798.897995 77.069488 
L 798.897995 77.069488 
" clip-path="url(#p43107b77b0)" style="fill: #2c404c; opacity: 0.5"/>
   </g>
   <g id="patch_71">
    <path d="M 770.731131 20.045109 
L 801.484334 73.309658 
L 800.237688 74.02943 
L 769.484485 20.764882 
M 770.107808 20.404995 
L 770.107808 20.404995 
" clip-path="url(#p43107b77b0)" style="fill: #2c404c; opacity: 0.5"/>
   </g>
   <g id="patch_72">
    <path d="M 764.218845 17.724808 
L 702.712351 17.724808 
L 702.712351 16.285294 
L 764.218845 16.285294 
M 764.218845 17.005051 
L 764.218845 17.005051 
" clip-path="url(#p43107b77b0)" style="fill: #2c404c; opacity: 0.5"/>
   </g>
   <g id="patch_73">
    <path d="M 769.126278 20.930998 
L 769.126278 130.334037 
L 767.163305 130.334037 
L 767.163305 20.930998 
M 768.144791 20.930998 
L 768.144791 20.930998 
" clip-path="url(#p43107b77b0)" style="fill: #ffc0cb"/>
   </g>
   <g id="patch_74">
    <path d="M 765.331789 127.424847 
L 701.862365 17.495805 
L 703.562338 16.514297 
L 767.031761 126.443339 
M 766.181775 126.934093 
L 766.181775 126.934093 
" clip-path="url(#p43107b77b0)" style="fill: #ffc0cb"/>
   </g>
   <g id="patch_75">
    <path d="M 764.254065 129.221106 
L 669.505399 74.519543 
L 670.486864 72.819546 
L 765.23553 127.521108 
M 764.744797 128.371107 
L 764.744797 128.371107 
" clip-path="url(#p43107b77b0)" style="fill: #ffc0cb"/>
   </g>
   <g id="matplotlib.axis_9"/>
   <g id="matplotlib.axis_10"/>
   <g id="patch_76">
    <path d="M 702.712351 20.767416 
C 703.710142 20.767416 704.667201 20.37099 705.372745 19.665445 
C 706.07829 18.9599 706.474717 18.002842 706.474717 17.005051 
C 706.474717 16.00726 706.07829 15.050202 705.372745 14.344657 
C 704.667201 13.639112 703.710142 13.242686 702.712351 13.242686 
C 701.714561 13.242686 700.757502 13.639112 700.051957 14.344657 
C 699.346413 15.050202 698.949986 16.00726 698.949986 17.005051 
C 698.949986 18.002842 699.346413 18.9599 700.051957 19.665445 
C 700.757502 20.37099 701.714561 20.767416 702.712351 20.767416 
z
" clip-path="url(#p43107b77b0)" style="fill: #ffffff; stroke: #2c404c; stroke-width: 0.327162; stroke-linejoin: miter"/>
   </g>
   <g id="patch_77">
    <path d="M 669.996132 77.431909 
C 670.993922 77.431909 671.950981 77.035483 672.656526 76.329938 
C 673.36207 75.624393 673.758497 74.667335 673.758497 73.669544 
C 673.758497 72.671753 673.36207 71.714695 672.656526 71.00915 
C 671.950981 70.303605 670.993922 69.907179 669.996132 69.907179 
C 668.998341 69.907179 668.041282 70.303605 667.335738 71.00915 
C 666.630193 71.714695 666.233766 72.671753 666.233766 73.669544 
C 666.233766 74.667335 666.630193 75.624393 667.335738 76.329938 
C 668.041282 77.035483 668.998341 77.431909 669.996132 77.431909 
z
" clip-path="url(#p43107b77b0)" style="fill: #ffffff; stroke: #2c404c; stroke-width: 0.327162; stroke-linejoin: miter"/>
   </g>
   <g id="patch_78">
    <path d="M 702.712351 134.096402 
C 703.710142 134.096402 704.667201 133.699976 705.372745 132.994431 
C 706.07829 132.288886 706.474717 131.331828 706.474717 130.334037 
C 706.474717 129.336246 706.07829 128.379188 705.372745 127.673643 
C 704.667201 126.968098 703.710142 126.571672 702.712351 126.571672 
C 701.714561 126.571672 700.757502 126.968098 700.051957 127.673643 
C 699.346413 128.379188 698.949986 129.336246 698.949986 130.334037 
C 698.949986 131.331828 699.346413 132.288886 700.051957 132.994431 
C 700.757502 133.699976 701.714561 134.096402 702.712351 134.096402 
z
" clip-path="url(#p43107b77b0)" style="fill: #ffffff; stroke: #2c404c; stroke-width: 0.327162; stroke-linejoin: miter"/>
   </g>
   <g id="patch_79">
    <path d="M 768.144791 134.096402 
C 769.142582 134.096402 770.099641 133.699976 770.805185 132.994431 
C 771.51073 132.288886 771.907157 131.331828 771.907157 130.334037 
C 771.907157 129.336246 771.51073 128.379188 770.805185 127.673643 
C 770.099641 126.968098 769.142582 126.571672 768.144791 126.571672 
C 767.147 126.571672 766.189942 126.968098 765.484397 127.673643 
C 764.778853 128.379188 764.382426 129.336246 764.382426 130.334037 
C 764.382426 131.331828 764.778853 132.288886 765.484397 132.994431 
C 766.189942 133.699976 767.147 134.096402 768.144791 134.096402 
z
" clip-path="url(#p43107b77b0)" style="fill: #ffffff; stroke: #2c404c; stroke-width: 0.327162; stroke-linejoin: miter"/>
   </g>
   <g id="patch_80">
    <path d="M 800.861011 77.431909 
C 801.858802 77.431909 802.815861 77.035483 803.521405 76.329938 
C 804.22695 75.624393 804.623377 74.667335 804.623377 73.669544 
C 804.623377 72.671753 804.22695 71.714695 803.521405 71.00915 
C 802.815861 70.303605 801.858802 69.907179 800.861011 69.907179 
C 799.86322 69.907179 798.906162 70.303605 798.200617 71.00915 
C 797.495073 71.714695 797.098646 72.671753 797.098646 73.669544 
C 797.098646 74.667335 797.495073 75.624393 798.200617 76.329938 
C 798.906162 77.035483 799.86322 77.431909 800.861011 77.431909 
z
" clip-path="url(#p43107b77b0)" style="fill: #ffffff; stroke: #2c404c; stroke-width: 0.327162; stroke-linejoin: miter"/>
   </g>
   <g id="patch_81">
    <path d="M 768.144791 20.767416 
C 769.142582 20.767416 770.099641 20.37099 770.805185 19.665445 
C 771.51073 18.9599 771.907157 18.002842 771.907157 17.005051 
C 771.907157 16.00726 771.51073 15.050202 770.805185 14.344657 
C 770.099641 13.639112 769.142582 13.242686 768.144791 13.242686 
C 767.147 13.242686 766.189942 13.639112 765.484397 14.344657 
C 764.778853 15.050202 764.382426 16.00726 764.382426 17.005051 
C 764.382426 18.002842 764.778853 18.9599 765.484397 19.665445 
C 766.189942 20.37099 767.147 20.767416 768.144791 20.767416 
z
" clip-path="url(#p43107b77b0)" style="fill: #ffffff; stroke: #2c404c; stroke-width: 0.327162; stroke-linejoin: miter"/>
   </g>
  </g>
  <g id="axes_6">
   <g id="patch_82">
    <path d="M 822.342857 140.139088 
L 974.571429 140.139088 
L 974.571429 7.2 
L 822.342857 7.2 
z
" style="fill: #ffffff"/>
   </g>
   <g id="patch_83">
    <path d="M 834.364396 69.909713 
L 865.1176 16.645165 
L 866.364246 17.364937 
L 835.611042 70.629486 
M 834.987719 70.2696 
L 834.987719 70.2696 
" clip-path="url(#p3bb4b6841f)" style="fill: #2c404c; opacity: 0.5"/>
   </g>
   <g id="patch_84">
    <path d="M 863.154583 127.293979 
L 832.40138 74.02943 
L 833.648026 73.309658 
L 864.40123 126.574206 
M 863.777907 126.934093 
L 863.777907 126.934093 
" clip-path="url(#p3bb4b6841f)" style="fill: #2c404c; opacity: 0.5"/>
   </g>
   <g id="patch_85">
    <path d="M 927.247416 131.053794 
L 865.740923 131.053794 
L 865.740923 129.61428 
L 927.247416 129.61428 
M 927.247416 130.334037 
L 927.247416 130.334037 
" clip-path="url(#p3bb4b6841f)" style="fill: #2c404c; opacity: 0.5"/>
   </g>
   <g id="patch_86">
    <path d="M 962.54989 77.429375 
L 931.796686 130.693923 
L 930.55004 129.974151 
L 961.303243 76.709602 
M 961.926566 77.069488 
L 961.926566 77.069488 
" clip-path="url(#p3bb4b6841f)" style="fill: #2c404c; opacity: 0.5"/>
   </g>
   <g id="patch_87">
    <path d="M 933.759702 20.045109 
L 964.512906 73.309658 
L 963.26626 74.02943 
L 932.513056 20.764882 
M 933.136379 20.404995 
L 933.136379 20.404995 
" clip-path="url(#p3bb4b6841f)" style="fill: #2c404c; opacity: 0.5"/>
   </g>
   <g id="patch_88">
    <path d="M 927.247416 17.724808 
L 865.740923 17.724808 
L 865.740923 16.285294 
L 927.247416 16.285294 
M 927.247416 17.005051 
L 927.247416 17.005051 
" clip-path="url(#p3bb4b6841f)" style="fill: #2c404c; opacity: 0.5"/>
   </g>
   <g id="patch_89">
    <path d="M 959.998856 72.556613 
L 865.25019 17.85505 
L 866.231655 16.155053 
L 960.980321 70.856616 
M 960.489589 71.706614 
L 960.489589 71.706614 
" clip-path="url(#p3bb4b6841f)" style="fill: #ffc0cb"/>
   </g>
   <g id="patch_90">
    <path d="M 959.963636 74.651031 
L 833.024703 74.651031 
L 833.024703 72.688057 
L 959.963636 72.688057 
M 959.963636 73.669544 
L 959.963636 73.669544 
" clip-path="url(#p3bb4b6841f)" style="fill: #ffc0cb"/>
   </g>
   <g id="patch_91">
    <path d="M 927.282636 129.221106 
L 832.53397 74.519543 
L 833.515435 72.819546 
L 928.264101 127.521108 
M 927.773369 128.371107 
L 927.773369 128.371107 
" clip-path="url(#p3bb4b6841f)" style="fill: #ffc0cb"/>
   </g>
   <g id="matplotlib.axis_11"/>
   <g id="matplotlib.axis_12"/>
   <g id="patch_92">
    <path d="M 865.740923 20.767416 
C 866.738714 20.767416 867.695772 20.37099 868.401317 19.665445 
C 869.106862 18.9599 869.503288 18.002842 869.503288 17.005051 
C 869.503288 16.00726 869.106862 15.050202 868.401317 14.344657 
C 867.695772 13.639112 866.738714 13.242686 865.740923 13.242686 
C 864.743132 13.242686 863.786074 13.639112 863.080529 14.344657 
C 862.374984 15.050202 861.978558 16.00726 861.978558 17.005051 
C 861.978558 18.002842 862.374984 18.9599 863.080529 19.665445 
C 863.786074 20.37099 864.743132 20.767416 865.740923 20.767416 
z
" clip-path="url(#p3bb4b6841f)" style="fill: #ffffff; stroke: #2c404c; stroke-width: 0.327162; stroke-linejoin: miter"/>
   </g>
   <g id="patch_93">
    <path d="M 833.024703 77.431909 
C 834.022494 77.431909 834.979552 77.035483 835.685097 76.329938 
C 836.390642 75.624393 836.787068 74.667335 836.787068 73.669544 
C 836.787068 72.671753 836.390642 71.714695 835.685097 71.00915 
C 834.979552 70.303605 834.022494 69.907179 833.024703 69.907179 
C 832.026912 69.907179 831.069854 70.303605 830.364309 71.00915 
C 829.658764 71.714695 829.262338 72.671753 829.262338 73.669544 
C 829.262338 74.667335 829.658764 75.624393 830.364309 76.329938 
C 831.069854 77.035483 832.026912 77.431909 833.024703 77.431909 
z
" clip-path="url(#p3bb4b6841f)" style="fill: #ffffff; stroke: #2c404c; stroke-width: 0.327162; stroke-linejoin: miter"/>
   </g>
   <g id="patch_94">
    <path d="M 865.740923 134.096402 
C 866.738714 134.096402 867.695772 133.699976 868.401317 132.994431 
C 869.106862 132.288886 869.503288 131.331828 869.503288 130.334037 
C 869.503288 129.336246 869.106862 128.379188 868.401317 127.673643 
C 867.695772 126.968098 866.738714 126.571672 865.740923 126.571672 
C 864.743132 126.571672 863.786074 126.968098 863.080529 127.673643 
C 862.374984 128.379188 861.978558 129.336246 861.978558 130.334037 
C 861.978558 131.331828 862.374984 132.288886 863.080529 132.994431 
C 863.786074 133.699976 864.743132 134.096402 865.740923 134.096402 
z
" clip-path="url(#p3bb4b6841f)" style="fill: #ffffff; stroke: #2c404c; stroke-width: 0.327162; stroke-linejoin: miter"/>
   </g>
   <g id="patch_95">
    <path d="M 931.173363 134.096402 
C 932.171154 134.096402 933.128212 133.699976 933.833757 132.994431 
C 934.539302 132.288886 934.935728 131.331828 934.935728 130.334037 
C 934.935728 129.336246 934.539302 128.379188 933.833757 127.673643 
C 933.128212 126.968098 932.171154 126.571672 931.173363 126.571672 
C 930.175572 126.571672 929.218514 126.968098 928.512969 127.673643 
C 927.807424 128.379188 927.410998 129.336246 927.410998 130.334037 
C 927.410998 131.331828 927.807424 132.288886 928.512969 132.994431 
C 929.218514 133.699976 930.175572 134.096402 931.173363 134.096402 
z
" clip-path="url(#p3bb4b6841f)" style="fill: #ffffff; stroke: #2c404c; stroke-width: 0.327162; stroke-linejoin: miter"/>
   </g>
   <g id="patch_96">
    <path d="M 963.889583 77.431909 
C 964.887374 77.431909 965.844432 77.035483 966.549977 76.329938 
C 967.255522 75.624393 967.651948 74.667335 967.651948 73.669544 
C 967.651948 72.671753 967.255522 71.714695 966.549977 71.00915 
C 965.844432 70.303605 964.887374 69.907179 963.889583 69.907179 
C 962.891792 69.907179 961.934733 70.303605 961.229189 71.00915 
C 960.523644 71.714695 960.127217 72.671753 960.127217 73.669544 
C 960.127217 74.667335 960.523644 75.624393 961.229189 76.329938 
C 961.934733 77.035483 962.891792 77.431909 963.889583 77.431909 
z
" clip-path="url(#p3bb4b6841f)" style="fill: #ffffff; stroke: #2c404c; stroke-width: 0.327162; stroke-linejoin: miter"/>
   </g>
   <g id="patch_97">
    <path d="M 931.173363 20.767416 
C 932.171154 20.767416 933.128212 20.37099 933.833757 19.665445 
C 934.539302 18.9599 934.935728 18.002842 934.935728 17.005051 
C 934.935728 16.00726 934.539302 15.050202 933.833757 14.344657 
C 933.128212 13.639112 932.171154 13.242686 931.173363 13.242686 
C 930.175572 13.242686 929.218514 13.639112 928.512969 14.344657 
C 927.807424 15.050202 927.410998 16.00726 927.410998 17.005051 
C 927.410998 18.002842 927.807424 18.9599 928.512969 19.665445 
C 929.218514 20.37099 930.175572 20.767416 931.173363 20.767416 
z
" clip-path="url(#p3bb4b6841f)" style="fill: #ffffff; stroke: #2c404c; stroke-width: 0.327162; stroke-linejoin: miter"/>
   </g>
  </g>
  <g id="axes_7">
   <g id="patch_98">
    <path d="M 985.371429 140.139088 
L 1137.6 140.139088 
L 1137.6 7.2 
L 985.371429 7.2 
z
" style="fill: #ffffff"/>
   </g>
   <g id="patch_99">
    <path d="M 997.392968 69.909713 
L 1028.146171 16.645165 
L 1029.392817 17.364937 
L 998.639614 70.629486 
M 998.016291 70.2696 
L 998.016291 70.2696 
" clip-path="url(#pc309dc0e4c)" style="fill: #2c404c; opacity: 0.5"/>
   </g>
   <g id="patch_100">
    <path d="M 1026.183155 127.293979 
L 995.429951 74.02943 
L 996.676598 73.309658 
L 1027.429801 126.574206 
M 1026.806478 126.934093 
L 1026.806478 126.934093 
" clip-path="url(#pc309dc0e4c)" style="fill: #2c404c; opacity: 0.5"/>
   </g>
   <g id="patch_101">
    <path d="M 1090.275988 131.053794 
L 1028.769494 131.053794 
L 1028.769494 129.61428 
L 1090.275988 129.61428 
M 1090.275988 130.334037 
L 1090.275988 130.334037 
" clip-path="url(#pc309dc0e4c)" style="fill: #2c404c; opacity: 0.5"/>
   </g>
   <g id="patch_102">
    <path d="M 1125.578461 77.429375 
L 1094.825257 130.693923 
L 1093.578611 129.974151 
L 1124.331815 76.709602 
M 1124.955138 77.069488 
L 1124.955138 77.069488 
" clip-path="url(#pc309dc0e4c)" style="fill: #2c404c; opacity: 0.5"/>
   </g>
   <g id="patch_103">
    <path d="M 1096.788274 20.045109 
L 1127.541477 73.309658 
L 1126.294831 74.02943 
L 1095.541627 20.764882 
M 1096.164951 20.404995 
L 1096.164951 20.404995 
" clip-path="url(#pc309dc0e4c)" style="fill: #2c404c; opacity: 0.5"/>
   </g>
   <g id="patch_104">
    <path d="M 1090.275988 17.724808 
L 1028.769494 17.724808 
L 1028.769494 16.285294 
L 1090.275988 16.285294 
M 1090.275988 17.005051 
L 1090.275988 17.005051 
" clip-path="url(#pc309dc0e4c)" style="fill: #2c404c; opacity: 0.5"/>
   </g>
   <g id="patch_105">
    <path d="M 1123.027427 72.556613 
L 1028.278762 17.85505 
L 1029.260227 16.155053 
L 1124.008892 70.856616 
M 1123.51816 71.706614 
L 1123.51816 71.706614 
" clip-path="url(#pc309dc0e4c)" style="fill: #ffc0cb"/>
   </g>
   <g id="patch_106">
    <path d="M 1122.992208 74.651031 
L 996.053274 74.651031 
L 996.053274 72.688057 
L 1122.992208 72.688057 
M 1122.992208 73.669544 
L 1122.992208 73.669544 
" clip-path="url(#pc309dc0e4c)" style="fill: #ffc0cb"/>
   </g>
   <g id="patch_107">
    <path d="M 1124.008892 76.482473 
L 1029.260227 131.184036 
L 1028.278762 129.484038 
L 1123.027427 74.782476 
M 1123.51816 75.632474 
L 1123.51816 75.632474 
" clip-path="url(#pc309dc0e4c)" style="fill: #ffc0cb"/>
   </g>
   <g id="matplotlib.axis_13"/>
   <g id="matplotlib.axis_14"/>
   <g id="patch_108">
    <path d="M 1028.769494 20.767416 
C 1029.767285 20.767416 1030.724344 20.37099 1031.429888 19.665445 
C 1032.135433 18.9599 1032.53186 18.002842 1032.53186 17.005051 
C 1032.53186 16.00726 1032.135433 15.050202 1031.429888 14.344657 
C 1030.724344 13.639112 1029.767285 13.242686 1028.769494 13.242686 
C 1027.771703 13.242686 1026.814645 13.639112 1026.1091 14.344657 
C 1025.403556 15.050202 1025.007129 16.00726 1025.007129 17.005051 
C 1025.007129 18.002842 1025.403556 18.9599 1026.1091 19.665445 
C 1026.814645 20.37099 1027.771703 20.767416 1028.769494 20.767416 
z
" clip-path="url(#pc309dc0e4c)" style="fill: #ffffff; stroke: #2c404c; stroke-width: 0.327162; stroke-linejoin: miter"/>
   </g>
   <g id="patch_109">
    <path d="M 996.053274 77.431909 
C 997.051065 77.431909 998.008124 77.035483 998.713668 76.329938 
C 999.419213 75.624393 999.81564 74.667335 999.81564 73.669544 
C 999.81564 72.671753 999.419213 71.714695 998.713668 71.00915 
C 998.008124 70.303605 997.051065 69.907179 996.053274 69.907179 
C 995.055483 69.907179 994.098425 70.303605 993.39288 71.00915 
C 992.687336 71.714695 992.290909 72.671753 992.290909 73.669544 
C 992.290909 74.667335 992.687336 75.624393 993.39288 76.329938 
C 994.098425 77.035483 995.055483 77.431909 996.053274 77.431909 
z
" clip-path="url(#pc309dc0e4c)" style="fill: #ffffff; stroke: #2c404c; stroke-width: 0.327162; stroke-linejoin: miter"/>
   </g>
   <g id="patch_110">
    <path d="M 1028.769494 134.096402 
C 1029.767285 134.096402 1030.724344 133.699976 1031.429888 132.994431 
C 1032.135433 132.288886 1032.53186 131.331828 1032.53186 130.334037 
C 1032.53186 129.336246 1032.135433 128.379188 1031.429888 127.673643 
C 1030.724344 126.968098 1029.767285 126.571672 1028.769494 126.571672 
C 1027.771703 126.571672 1026.814645 126.968098 1026.1091 127.673643 
C 1025.403556 128.379188 1025.007129 129.336246 1025.007129 130.334037 
C 1025.007129 131.331828 1025.403556 132.288886 1026.1091 132.994431 
C 1026.814645 133.699976 1027.771703 134.096402 1028.769494 134.096402 
z
" clip-path="url(#pc309dc0e4c)" style="fill: #ffffff; stroke: #2c404c; stroke-width: 0.327162; stroke-linejoin: miter"/>
   </g>
   <g id="patch_111">
    <path d="M 1094.201934 134.096402 
C 1095.199725 134.096402 1096.156784 133.699976 1096.862328 132.994431 
C 1097.567873 132.288886 1097.9643 131.331828 1097.9643 130.334037 
C 1097.9643 129.336246 1097.567873 128.379188 1096.862328 127.673643 
C 1096.156784 126.968098 1095.199725 126.571672 1094.201934 126.571672 
C 1093.204143 126.571672 1092.247085 126.968098 1091.54154 127.673643 
C 1090.835995 128.379188 1090.439569 129.336246 1090.439569 130.334037 
C 1090.439569 131.331828 1090.835995 132.288886 1091.54154 132.994431 
C 1092.247085 133.699976 1093.204143 134.096402 1094.201934 134.096402 
z
" clip-path="url(#pc309dc0e4c)" style="fill: #ffffff; stroke: #2c404c; stroke-width: 0.327162; stroke-linejoin: miter"/>
   </g>
   <g id="patch_112">
    <path d="M 1126.918154 77.431909 
C 1127.915945 77.431909 1128.873003 77.035483 1129.578548 76.329938 
C 1130.284093 75.624393 1130.680519 74.667335 1130.680519 73.669544 
C 1130.680519 72.671753 1130.284093 71.714695 1129.578548 71.00915 
C 1128.873003 70.303605 1127.915945 69.907179 1126.918154 69.907179 
C 1125.920363 69.907179 1124.963305 70.303605 1124.25776 71.00915 
C 1123.552215 71.714695 1123.155789 72.671753 1123.155789 73.669544 
C 1123.155789 74.667335 1123.552215 75.624393 1124.25776 76.329938 
C 1124.963305 77.035483 1125.920363 77.431909 1126.918154 77.431909 
z
" clip-path="url(#pc309dc0e4c)" style="fill: #ffffff; stroke: #2c404c; stroke-width: 0.327162; stroke-linejoin: miter"/>
   </g>
   <g id="patch_113">
    <path d="M 1094.201934 20.767416 
C 1095.199725 20.767416 1096.156784 20.37099 1096.862328 19.665445 
C 1097.567873 18.9599 1097.9643 18.002842 1097.9643 17.005051 
C 1097.9643 16.00726 1097.567873 15.050202 1096.862328 14.344657 
C 1096.156784 13.639112 1095.199725 13.242686 1094.201934 13.242686 
C 1093.204143 13.242686 1092.247085 13.639112 1091.54154 14.344657 
C 1090.835995 15.050202 1090.439569 16.00726 1090.439569 17.005051 
C 1090.439569 18.002842 1090.835995 18.9599 1091.54154 19.665445 
C 1092.247085 20.37099 1093.204143 20.767416 1094.201934 20.767416 
z
" clip-path="url(#pc309dc0e4c)" style="fill: #ffffff; stroke: #2c404c; stroke-width: 0.327162; stroke-linejoin: miter"/>
   </g>
  </g>
  <g id="axes_8">
   <g id="patch_114">
    <path d="M 7.2 337.021662 
L 159.428571 337.021662 
L 159.428571 204.082574 
L 7.2 204.082574 
z
" style="fill: #ffffff"/>
   </g>
   <g id="patch_115">
    <path d="M 19.221539 266.792287 
L 49.974743 213.527738 
L 51.221389 214.247511 
L 20.468185 267.51206 
M 19.844862 267.152173 
L 19.844862 267.152173 
" clip-path="url(#p9d497ed73b)" style="fill: #2c404c; opacity: 0.5"/>
   </g>
   <g id="patch_116">
    <path d="M 48.011726 324.176553 
L 17.258523 270.912004 
L 18.505169 270.192231 
L 49.258373 323.45678 
M 48.635049 323.816666 
L 48.635049 323.816666 
" clip-path="url(#p9d497ed73b)" style="fill: #2c404c; opacity: 0.5"/>
   </g>
   <g id="patch_117">
    <path d="M 112.104559 327.936367 
L 50.598066 327.936367 
L 50.598066 326.496854 
L 112.104559 326.496854 
M 112.104559 327.216611 
L 112.104559 327.216611 
" clip-path="url(#p9d497ed73b)" style="fill: #2c404c; opacity: 0.5"/>
   </g>
   <g id="patch_118">
    <path d="M 147.407032 274.311948 
L 116.653829 327.576497 
L 115.407183 326.856724 
L 146.160386 273.592176 
M 146.783709 273.952062 
L 146.783709 273.952062 
" clip-path="url(#p9d497ed73b)" style="fill: #2c404c; opacity: 0.5"/>
   </g>
   <g id="patch_119">
    <path d="M 118.616845 216.927683 
L 149.370049 270.192231 
L 148.123402 270.912004 
L 117.370199 217.647455 
M 117.993522 217.287569 
L 117.993522 217.287569 
" clip-path="url(#p9d497ed73b)" style="fill: #2c404c; opacity: 0.5"/>
   </g>
   <g id="patch_120">
    <path d="M 112.104559 214.607382 
L 50.598066 214.607382 
L 50.598066 213.167868 
L 112.104559 213.167868 
M 112.104559 213.887625 
L 112.104559 213.887625 
" clip-path="url(#p9d497ed73b)" style="fill: #2c404c; opacity: 0.5"/>
   </g>
   <g id="patch_121">
    <path d="M 113.121244 216.700553 
L 18.372578 271.402116 
L 17.391113 269.702119 
L 112.139779 215.000556 
M 112.630511 215.850555 
L 112.630511 215.850555 
" clip-path="url(#p9d497ed73b)" style="fill: #ffc0cb"/>
   </g>
   <g id="patch_122">
    <path d="M 114.917475 217.778323 
L 51.448052 327.707365 
L 49.74808 326.725856 
L 113.217503 216.796815 
M 114.067489 217.287569 
L 114.067489 217.287569 
" clip-path="url(#p9d497ed73b)" style="fill: #ffc0cb"/>
   </g>
   <g id="patch_123">
    <path d="M 145.837464 273.365046 
L 51.088798 328.066609 
L 50.107333 326.366612 
L 144.855999 271.665049 
M 145.346731 272.515048 
L 145.346731 272.515048 
" clip-path="url(#p9d497ed73b)" style="fill: #ffc0cb"/>
   </g>
   <g id="matplotlib.axis_15"/>
   <g id="matplotlib.axis_16"/>
   <g id="patch_124">
    <path d="M 50.598066 217.64999 
C 51.595857 217.64999 52.552915 217.253563 53.25846 216.548019 
C 53.964005 215.842474 54.360431 214.885416 54.360431 213.887625 
C 54.360431 212.889834 53.964005 211.932775 53.25846 211.227231 
C 52.552915 210.521686 51.595857 210.125259 50.598066 210.125259 
C 49.600275 210.125259 48.643216 210.521686 47.937672 211.227231 
C 47.232127 211.932775 46.8357 212.889834 46.8357 213.887625 
C 46.8357 214.885416 47.232127 215.842474 47.937672 216.548019 
C 48.643216 217.253563 49.600275 217.64999 50.598066 217.64999 
z
" clip-path="url(#p9d497ed73b)" style="fill: #ffffff; stroke: #2c404c; stroke-width: 0.327162; stroke-linejoin: miter"/>
   </g>
   <g id="patch_125">
    <path d="M 17.881846 274.314483 
C 18.879637 274.314483 19.836695 273.918056 20.54224 273.212512 
C 21.247785 272.506967 21.644211 271.549909 21.644211 270.552118 
C 21.644211 269.554327 21.247785 268.597268 20.54224 267.891724 
C 19.836695 267.186179 18.879637 266.789752 17.881846 266.789752 
C 16.884055 266.789752 15.926997 267.186179 15.221452 267.891724 
C 14.515907 268.597268 14.119481 269.554327 14.119481 270.552118 
C 14.119481 271.549909 14.515907 272.506967 15.221452 273.212512 
C 15.926997 273.918056 16.884055 274.314483 17.881846 274.314483 
z
" clip-path="url(#p9d497ed73b)" style="fill: #ffffff; stroke: #2c404c; stroke-width: 0.327162; stroke-linejoin: miter"/>
   </g>
   <g id="patch_126">
    <path d="M 50.598066 330.978976 
C 51.595857 330.978976 52.552915 330.582549 53.25846 329.877005 
C 53.964005 329.17146 54.360431 328.214402 54.360431 327.216611 
C 54.360431 326.21882 53.964005 325.261761 53.25846 324.556217 
C 52.552915 323.850672 51.595857 323.454245 50.598066 323.454245 
C 49.600275 323.454245 48.643216 323.850672 47.937672 324.556217 
C 47.232127 325.261761 46.8357 326.21882 46.8357 327.216611 
C 46.8357 328.214402 47.232127 329.17146 47.937672 329.877005 
C 48.643216 330.582549 49.600275 330.978976 50.598066 330.978976 
z
" clip-path="url(#p9d497ed73b)" style="fill: #ffffff; stroke: #2c404c; stroke-width: 0.327162; stroke-linejoin: miter"/>
   </g>
   <g id="patch_127">
    <path d="M 116.030506 330.978976 
C 117.028297 330.978976 117.985355 330.582549 118.6909 329.877005 
C 119.396444 329.17146 119.792871 328.214402 119.792871 327.216611 
C 119.792871 326.21882 119.396444 325.261761 118.6909 324.556217 
C 117.985355 323.850672 117.028297 323.454245 116.030506 323.454245 
C 115.032715 323.454245 114.075656 323.850672 113.370112 324.556217 
C 112.664567 325.261761 112.26814 326.21882 112.26814 327.216611 
C 112.26814 328.214402 112.664567 329.17146 113.370112 329.877005 
C 114.075656 330.582549 115.032715 330.978976 116.030506 330.978976 
z
" clip-path="url(#p9d497ed73b)" style="fill: #ffffff; stroke: #2c404c; stroke-width: 0.327162; stroke-linejoin: miter"/>
   </g>
   <g id="patch_128">
    <path d="M 148.746726 274.314483 
C 149.744517 274.314483 150.701575 273.918056 151.40712 273.212512 
C 152.112664 272.506967 152.509091 271.549909 152.509091 270.552118 
C 152.509091 269.554327 152.112664 268.597268 151.40712 267.891724 
C 150.701575 267.186179 149.744517 266.789752 148.746726 266.789752 
C 147.748935 266.789752 146.791876 267.186179 146.086332 267.891724 
C 145.380787 268.597268 144.98436 269.554327 144.98436 270.552118 
C 144.98436 271.549909 145.380787 272.506967 146.086332 273.212512 
C 146.791876 273.918056 147.748935 274.314483 148.746726 274.314483 
z
" clip-path="url(#p9d497ed73b)" style="fill: #ffffff; stroke: #2c404c; stroke-width: 0.327162; stroke-linejoin: miter"/>
   </g>
   <g id="patch_129">
    <path d="M 116.030506 217.64999 
C 117.028297 217.64999 117.985355 217.253563 118.6909 216.548019 
C 119.396444 215.842474 119.792871 214.885416 119.792871 213.887625 
C 119.792871 212.889834 119.396444 211.932775 118.6909 211.227231 
C 117.985355 210.521686 117.028297 210.125259 116.030506 210.125259 
C 115.032715 210.125259 114.075656 210.521686 113.370112 211.227231 
C 112.664567 211.932775 112.26814 212.889834 112.26814 213.887625 
C 112.26814 214.885416 112.664567 215.842474 113.370112 216.548019 
C 114.075656 217.253563 115.032715 217.64999 116.030506 217.64999 
z
" clip-path="url(#p9d497ed73b)" style="fill: #ffffff; stroke: #2c404c; stroke-width: 0.327162; stroke-linejoin: miter"/>
   </g>
  </g>
  <g id="axes_9">
   <g id="patch_130">
    <path d="M 170.228571 337.021662 
L 322.457143 337.021662 
L 322.457143 204.082574 
L 170.228571 204.082574 
z
" style="fill: #ffffff"/>
   </g>
   <g id="patch_131">
    <path d="M 182.25011 266.792287 
L 213.003314 213.527738 
L 214.24996 214.247511 
L 183.496757 267.51206 
M 182.873434 267.152173 
L 182.873434 267.152173 
" clip-path="url(#p5b3cef9939)" style="fill: #2c404c; opacity: 0.5"/>
   </g>
   <g id="patch_132">
    <path d="M 211.040298 324.176553 
L 180.287094 270.912004 
L 181.53374 270.192231 
L 212.286944 323.45678 
M 211.663621 323.816666 
L 211.663621 323.816666 
" clip-path="url(#p5b3cef9939)" style="fill: #2c404c; opacity: 0.5"/>
   </g>
   <g id="patch_133">
    <path d="M 275.133131 327.936367 
L 213.626637 327.936367 
L 213.626637 326.496854 
L 275.133131 326.496854 
M 275.133131 327.216611 
L 275.133131 327.216611 
" clip-path="url(#p5b3cef9939)" style="fill: #2c404c; opacity: 0.5"/>
   </g>
   <g id="patch_134">
    <path d="M 310.435604 274.311948 
L 279.6824 327.576497 
L 278.435754 326.856724 
L 309.188958 273.592176 
M 309.812281 273.952062 
L 309.812281 273.952062 
" clip-path="url(#p5b3cef9939)" style="fill: #2c404c; opacity: 0.5"/>
   </g>
   <g id="patch_135">
    <path d="M 281.645417 216.927683 
L 312.39862 270.192231 
L 311.151974 270.912004 
L 280.39877 217.647455 
M 281.022093 217.287569 
L 281.022093 217.287569 
" clip-path="url(#p5b3cef9939)" style="fill: #2c404c; opacity: 0.5"/>
   </g>
   <g id="patch_136">
    <path d="M 275.133131 214.607382 
L 213.626637 214.607382 
L 213.626637 213.167868 
L 275.133131 213.167868 
M 275.133131 213.887625 
L 275.133131 213.887625 
" clip-path="url(#p5b3cef9939)" style="fill: #2c404c; opacity: 0.5"/>
   </g>
   <g id="patch_137">
    <path d="M 277.946047 217.778323 
L 214.476623 327.707365 
L 212.776651 326.725856 
L 276.246075 216.796815 
M 277.096061 217.287569 
L 277.096061 217.287569 
" clip-path="url(#p5b3cef9939)" style="fill: #ffc0cb"/>
   </g>
   <g id="patch_138">
    <path d="M 280.040564 217.813571 
L 280.040564 327.216611 
L 278.07759 327.216611 
L 278.07759 217.813571 
M 279.059077 217.813571 
L 279.059077 217.813571 
" clip-path="url(#p5b3cef9939)" style="fill: #ffc0cb"/>
   </g>
   <g id="patch_139">
    <path d="M 212.645151 323.290664 
L 212.645151 213.887625 
L 214.608124 213.887625 
L 214.608124 323.290664 
M 213.626637 323.290664 
L 213.626637 323.290664 
" clip-path="url(#p5b3cef9939)" style="fill: #ffc0cb"/>
   </g>
   <g id="matplotlib.axis_17"/>
   <g id="matplotlib.axis_18"/>
   <g id="patch_140">
    <path d="M 213.626637 217.64999 
C 214.624428 217.64999 215.581486 217.253563 216.287031 216.548019 
C 216.992576 215.842474 217.389002 214.885416 217.389002 213.887625 
C 217.389002 212.889834 216.992576 211.932775 216.287031 211.227231 
C 215.581486 210.521686 214.624428 210.125259 213.626637 210.125259 
C 212.628846 210.125259 211.671788 210.521686 210.966243 211.227231 
C 210.260698 211.932775 209.864272 212.889834 209.864272 213.887625 
C 209.864272 214.885416 210.260698 215.842474 210.966243 216.548019 
C 211.671788 217.253563 212.628846 217.64999 213.626637 217.64999 
z
" clip-path="url(#p5b3cef9939)" style="fill: #ffffff; stroke: #2c404c; stroke-width: 0.327162; stroke-linejoin: miter"/>
   </g>
   <g id="patch_141">
    <path d="M 180.910417 274.314483 
C 181.908208 274.314483 182.865267 273.918056 183.570811 273.212512 
C 184.276356 272.506967 184.672783 271.549909 184.672783 270.552118 
C 184.672783 269.554327 184.276356 268.597268 183.570811 267.891724 
C 182.865267 267.186179 181.908208 266.789752 180.910417 266.789752 
C 179.912626 266.789752 178.955568 267.186179 178.250023 267.891724 
C 177.544478 268.597268 177.148052 269.554327 177.148052 270.552118 
C 177.148052 271.549909 177.544478 272.506967 178.250023 273.212512 
C 178.955568 273.918056 179.912626 274.314483 180.910417 274.314483 
z
" clip-path="url(#p5b3cef9939)" style="fill: #ffffff; stroke: #2c404c; stroke-width: 0.327162; stroke-linejoin: miter"/>
   </g>
   <g id="patch_142">
    <path d="M 213.626637 330.978976 
C 214.624428 330.978976 215.581486 330.582549 216.287031 329.877005 
C 216.992576 329.17146 217.389002 328.214402 217.389002 327.216611 
C 217.389002 326.21882 216.992576 325.261761 216.287031 324.556217 
C 215.581486 323.850672 214.624428 323.454245 213.626637 323.454245 
C 212.628846 323.454245 211.671788 323.850672 210.966243 324.556217 
C 210.260698 325.261761 209.864272 326.21882 209.864272 327.216611 
C 209.864272 328.214402 210.260698 329.17146 210.966243 329.877005 
C 211.671788 330.582549 212.628846 330.978976 213.626637 330.978976 
z
" clip-path="url(#p5b3cef9939)" style="fill: #ffffff; stroke: #2c404c; stroke-width: 0.327162; stroke-linejoin: miter"/>
   </g>
   <g id="patch_143">
    <path d="M 279.059077 330.978976 
C 280.056868 330.978976 281.013926 330.582549 281.719471 329.877005 
C 282.425016 329.17146 282.821442 328.214402 282.821442 327.216611 
C 282.821442 326.21882 282.425016 325.261761 281.719471 324.556217 
C 281.013926 323.850672 280.056868 323.454245 279.059077 323.454245 
C 278.061286 323.454245 277.104228 323.850672 276.398683 324.556217 
C 275.693138 325.261761 275.296712 326.21882 275.296712 327.216611 
C 275.296712 328.214402 275.693138 329.17146 276.398683 329.877005 
C 277.104228 330.582549 278.061286 330.978976 279.059077 330.978976 
z
" clip-path="url(#p5b3cef9939)" style="fill: #ffffff; stroke: #2c404c; stroke-width: 0.327162; stroke-linejoin: miter"/>
   </g>
   <g id="patch_144">
    <path d="M 311.775297 274.314483 
C 312.773088 274.314483 313.730146 273.918056 314.435691 273.212512 
C 315.141236 272.506967 315.537662 271.549909 315.537662 270.552118 
C 315.537662 269.554327 315.141236 268.597268 314.435691 267.891724 
C 313.730146 267.186179 312.773088 266.789752 311.775297 266.789752 
C 310.777506 266.789752 309.820448 267.186179 309.114903 267.891724 
C 308.409358 268.597268 308.012932 269.554327 308.012932 270.552118 
C 308.012932 271.549909 308.409358 272.506967 309.114903 273.212512 
C 309.820448 273.918056 310.777506 274.314483 311.775297 274.314483 
z
" clip-path="url(#p5b3cef9939)" style="fill: #ffffff; stroke: #2c404c; stroke-width: 0.327162; stroke-linejoin: miter"/>
   </g>
   <g id="patch_145">
    <path d="M 279.059077 217.64999 
C 280.056868 217.64999 281.013926 217.253563 281.719471 216.548019 
C 282.425016 215.842474 282.821442 214.885416 282.821442 213.887625 
C 282.821442 212.889834 282.425016 211.932775 281.719471 211.227231 
C 281.013926 210.521686 280.056868 210.125259 279.059077 210.125259 
C 278.061286 210.125259 277.104228 210.521686 276.398683 211.227231 
C 275.693138 211.932775 275.296712 212.889834 275.296712 213.887625 
C 275.296712 214.885416 275.693138 215.842474 276.398683 216.548019 
C 277.104228 217.253563 278.061286 217.64999 279.059077 217.64999 
z
" clip-path="url(#p5b3cef9939)" style="fill: #ffffff; stroke: #2c404c; stroke-width: 0.327162; stroke-linejoin: miter"/>
   </g>
  </g>
  <g id="axes_10">
   <g id="patch_146">
    <path d="M 333.257143 337.021662 
L 485.485714 337.021662 
L 485.485714 204.082574 
L 333.257143 204.082574 
z
" style="fill: #ffffff"/>
   </g>
   <g id="patch_147">
    <path d="M 345.278682 266.792287 
L 376.031885 213.527738 
L 377.278532 214.247511 
L 346.525328 267.51206 
M 345.902005 267.152173 
L 345.902005 267.152173 
" clip-path="url(#p2cc59c1543)" style="fill: #2c404c; opacity: 0.5"/>
   </g>
   <g id="patch_148">
    <path d="M 374.068869 324.176553 
L 343.315666 270.912004 
L 344.562312 270.192231 
L 375.315515 323.45678 
M 374.692192 323.816666 
L 374.692192 323.816666 
" clip-path="url(#p2cc59c1543)" style="fill: #2c404c; opacity: 0.5"/>
   </g>
   <g id="patch_149">
    <path d="M 438.161702 327.936367 
L 376.655209 327.936367 
L 376.655209 326.496854 
L 438.161702 326.496854 
M 438.161702 327.216611 
L 438.161702 327.216611 
" clip-path="url(#p2cc59c1543)" style="fill: #2c404c; opacity: 0.5"/>
   </g>
   <g id="patch_150">
    <path d="M 473.464175 274.311948 
L 442.710972 327.576497 
L 441.464325 326.856724 
L 472.217529 273.592176 
M 472.840852 273.952062 
L 472.840852 273.952062 
" clip-path="url(#p2cc59c1543)" style="fill: #2c404c; opacity: 0.5"/>
   </g>
   <g id="patch_151">
    <path d="M 444.673988 216.927683 
L 475.427192 270.192231 
L 474.180545 270.912004 
L 443.427342 217.647455 
M 444.050665 217.287569 
L 444.050665 217.287569 
" clip-path="url(#p2cc59c1543)" style="fill: #2c404c; opacity: 0.5"/>
   </g>
   <g id="patch_152">
    <path d="M 438.161702 214.607382 
L 376.655209 214.607382 
L 376.655209 213.167868 
L 438.161702 213.167868 
M 438.161702 213.887625 
L 438.161702 213.887625 
" clip-path="url(#p2cc59c1543)" style="fill: #2c404c; opacity: 0.5"/>
   </g>
   <g id="patch_153">
    <path d="M 439.178387 216.700553 
L 344.429721 271.402116 
L 343.448256 269.702119 
L 438.196922 215.000556 
M 438.687654 215.850555 
L 438.687654 215.850555 
" clip-path="url(#p2cc59c1543)" style="fill: #ffc0cb"/>
   </g>
   <g id="patch_154">
    <path d="M 440.974618 217.778323 
L 377.505195 327.707365 
L 375.805223 326.725856 
L 439.274646 216.796815 
M 440.124632 217.287569 
L 440.124632 217.287569 
" clip-path="url(#p2cc59c1543)" style="fill: #ffc0cb"/>
   </g>
   <g id="patch_155">
    <path d="M 443.069135 217.813571 
L 443.069135 327.216611 
L 441.106162 327.216611 
L 441.106162 217.813571 
M 442.087649 217.813571 
L 442.087649 217.813571 
" clip-path="url(#p2cc59c1543)" style="fill: #ffc0cb"/>
   </g>
   <g id="matplotlib.axis_19"/>
   <g id="matplotlib.axis_20"/>
   <g id="patch_156">
    <path d="M 376.655209 217.64999 
C 377.653 217.64999 378.610058 217.253563 379.315603 216.548019 
C 380.021147 215.842474 380.417574 214.885416 380.417574 213.887625 
C 380.417574 212.889834 380.021147 211.932775 379.315603 211.227231 
C 378.610058 210.521686 377.653 210.125259 376.655209 210.125259 
C 375.657418 210.125259 374.700359 210.521686 373.994815 211.227231 
C 373.28927 211.932775 372.892843 212.889834 372.892843 213.887625 
C 372.892843 214.885416 373.28927 215.842474 373.994815 216.548019 
C 374.700359 217.253563 375.657418 217.64999 376.655209 217.64999 
z
" clip-path="url(#p2cc59c1543)" style="fill: #ffffff; stroke: #2c404c; stroke-width: 0.327162; stroke-linejoin: miter"/>
   </g>
   <g id="patch_157">
    <path d="M 343.938989 274.314483 
C 344.93678 274.314483 345.893838 273.918056 346.599383 273.212512 
C 347.304927 272.506967 347.701354 271.549909 347.701354 270.552118 
C 347.701354 269.554327 347.304927 268.597268 346.599383 267.891724 
C 345.893838 267.186179 344.93678 266.789752 343.938989 266.789752 
C 342.941198 266.789752 341.984139 267.186179 341.278595 267.891724 
C 340.57305 268.597268 340.176623 269.554327 340.176623 270.552118 
C 340.176623 271.549909 340.57305 272.506967 341.278595 273.212512 
C 341.984139 273.918056 342.941198 274.314483 343.938989 274.314483 
z
" clip-path="url(#p2cc59c1543)" style="fill: #ffffff; stroke: #2c404c; stroke-width: 0.327162; stroke-linejoin: miter"/>
   </g>
   <g id="patch_158">
    <path d="M 376.655209 330.978976 
C 377.653 330.978976 378.610058 330.582549 379.315603 329.877005 
C 380.021147 329.17146 380.417574 328.214402 380.417574 327.216611 
C 380.417574 326.21882 380.021147 325.261761 379.315603 324.556217 
C 378.610058 323.850672 377.653 323.454245 376.655209 323.454245 
C 375.657418 323.454245 374.700359 323.850672 373.994815 324.556217 
C 373.28927 325.261761 372.892843 326.21882 372.892843 327.216611 
C 372.892843 328.214402 373.28927 329.17146 373.994815 329.877005 
C 374.700359 330.582549 375.657418 330.978976 376.655209 330.978976 
z
" clip-path="url(#p2cc59c1543)" style="fill: #ffffff; stroke: #2c404c; stroke-width: 0.327162; stroke-linejoin: miter"/>
   </g>
   <g id="patch_159">
    <path d="M 442.087649 330.978976 
C 443.085439 330.978976 444.042498 330.582549 444.748043 329.877005 
C 445.453587 329.17146 445.850014 328.214402 445.850014 327.216611 
C 445.850014 326.21882 445.453587 325.261761 444.748043 324.556217 
C 444.042498 323.850672 443.085439 323.454245 442.087649 323.454245 
C 441.089858 323.454245 440.132799 323.850672 439.427255 324.556217 
C 438.72171 325.261761 438.325283 326.21882 438.325283 327.216611 
C 438.325283 328.214402 438.72171 329.17146 439.427255 329.877005 
C 440.132799 330.582549 441.089858 330.978976 442.087649 330.978976 
z
" clip-path="url(#p2cc59c1543)" style="fill: #ffffff; stroke: #2c404c; stroke-width: 0.327162; stroke-linejoin: miter"/>
   </g>
   <g id="patch_160">
    <path d="M 474.803868 274.314483 
C 475.801659 274.314483 476.758718 273.918056 477.464262 273.212512 
C 478.169807 272.506967 478.566234 271.549909 478.566234 270.552118 
C 478.566234 269.554327 478.169807 268.597268 477.464262 267.891724 
C 476.758718 267.186179 475.801659 266.789752 474.803868 266.789752 
C 473.806078 266.789752 472.849019 267.186179 472.143474 267.891724 
C 471.43793 268.597268 471.041503 269.554327 471.041503 270.552118 
C 471.041503 271.549909 471.43793 272.506967 472.143474 273.212512 
C 472.849019 273.918056 473.806078 274.314483 474.803868 274.314483 
z
" clip-path="url(#p2cc59c1543)" style="fill: #ffffff; stroke: #2c404c; stroke-width: 0.327162; stroke-linejoin: miter"/>
   </g>
   <g id="patch_161">
    <path d="M 442.087649 217.64999 
C 443.085439 217.64999 444.042498 217.253563 444.748043 216.548019 
C 445.453587 215.842474 445.850014 214.885416 445.850014 213.887625 
C 445.850014 212.889834 445.453587 211.932775 444.748043 211.227231 
C 444.042498 210.521686 443.085439 210.125259 442.087649 210.125259 
C 441.089858 210.125259 440.132799 210.521686 439.427255 211.227231 
C 438.72171 211.932775 438.325283 212.889834 438.325283 213.887625 
C 438.325283 214.885416 438.72171 215.842474 439.427255 216.548019 
C 440.132799 217.253563 441.089858 217.64999 442.087649 217.64999 
z
" clip-path="url(#p2cc59c1543)" style="fill: #ffffff; stroke: #2c404c; stroke-width: 0.327162; stroke-linejoin: miter"/>
   </g>
  </g>
  <g id="axes_11">
   <g id="patch_162">
    <path d="M 496.285714 337.021662 
L 648.514286 337.021662 
L 648.514286 204.082574 
L 496.285714 204.082574 
z
" style="fill: #ffffff"/>
   </g>
   <g id="patch_163">
    <path d="M 508.307253 266.792287 
L 539.060457 213.527738 
L 540.307103 214.247511 
L 509.5539 267.51206 
M 508.930576 267.152173 
L 508.930576 267.152173 
" clip-path="url(#p28c6dc7ea2)" style="fill: #2c404c; opacity: 0.5"/>
   </g>
   <g id="patch_164">
    <path d="M 537.097441 324.176553 
L 506.344237 270.912004 
L 507.590883 270.192231 
L 538.344087 323.45678 
M 537.720764 323.816666 
L 537.720764 323.816666 
" clip-path="url(#p28c6dc7ea2)" style="fill: #2c404c; opacity: 0.5"/>
   </g>
   <g id="patch_165">
    <path d="M 601.190274 327.936367 
L 539.68378 327.936367 
L 539.68378 326.496854 
L 601.190274 326.496854 
M 601.190274 327.216611 
L 601.190274 327.216611 
" clip-path="url(#p28c6dc7ea2)" style="fill: #2c404c; opacity: 0.5"/>
   </g>
   <g id="patch_166">
    <path d="M 636.492747 274.311948 
L 605.739543 327.576497 
L 604.492897 326.856724 
L 635.2461 273.592176 
M 635.869424 273.952062 
L 635.869424 273.952062 
" clip-path="url(#p28c6dc7ea2)" style="fill: #2c404c; opacity: 0.5"/>
   </g>
   <g id="patch_167">
    <path d="M 607.702559 216.927683 
L 638.455763 270.192231 
L 637.209117 270.912004 
L 606.455913 217.647455 
M 607.079236 217.287569 
L 607.079236 217.287569 
" clip-path="url(#p28c6dc7ea2)" style="fill: #2c404c; opacity: 0.5"/>
   </g>
   <g id="patch_168">
    <path d="M 601.190274 214.607382 
L 539.68378 214.607382 
L 539.68378 213.167868 
L 601.190274 213.167868 
M 601.190274 213.887625 
L 601.190274 213.887625 
" clip-path="url(#p28c6dc7ea2)" style="fill: #2c404c; opacity: 0.5"/>
   </g>
   <g id="patch_169">
    <path d="M 602.206958 216.700553 
L 507.458293 271.402116 
L 506.476828 269.702119 
L 601.225493 215.000556 
M 601.716226 215.850555 
L 601.716226 215.850555 
" clip-path="url(#p28c6dc7ea2)" style="fill: #ffc0cb"/>
   </g>
   <g id="patch_170">
    <path d="M 633.906494 271.533604 
L 506.96756 271.533604 
L 506.96756 269.570631 
L 633.906494 269.570631 
M 633.906494 270.552118 
L 633.906494 270.552118 
" clip-path="url(#p28c6dc7ea2)" style="fill: #ffc0cb"/>
   </g>
   <g id="patch_171">
    <path d="M 634.923178 273.365046 
L 540.174513 328.066609 
L 539.193048 326.366612 
L 633.941713 271.665049 
M 634.432446 272.515048 
L 634.432446 272.515048 
" clip-path="url(#p28c6dc7ea2)" style="fill: #ffc0cb"/>
   </g>
   <g id="matplotlib.axis_21"/>
   <g id="matplotlib.axis_22"/>
   <g id="patch_172">
    <path d="M 539.68378 217.64999 
C 540.681571 217.64999 541.638629 217.253563 542.344174 216.548019 
C 543.049719 215.842474 543.446145 214.885416 543.446145 213.887625 
C 543.446145 212.889834 543.049719 211.932775 542.344174 211.227231 
C 541.638629 210.521686 540.681571 210.125259 539.68378 210.125259 
C 538.685989 210.125259 537.728931 210.521686 537.023386 211.227231 
C 536.317841 211.932775 535.921415 212.889834 535.921415 213.887625 
C 535.921415 214.885416 536.317841 215.842474 537.023386 216.548019 
C 537.728931 217.253563 538.685989 217.64999 539.68378 217.64999 
z
" clip-path="url(#p28c6dc7ea2)" style="fill: #ffffff; stroke: #2c404c; stroke-width: 0.327162; stroke-linejoin: miter"/>
   </g>
   <g id="patch_173">
    <path d="M 506.96756 274.314483 
C 507.965351 274.314483 508.922409 273.918056 509.627954 273.212512 
C 510.333499 272.506967 510.729925 271.549909 510.729925 270.552118 
C 510.729925 269.554327 510.333499 268.597268 509.627954 267.891724 
C 508.922409 267.186179 507.965351 266.789752 506.96756 266.789752 
C 505.969769 266.789752 505.012711 267.186179 504.307166 267.891724 
C 503.601621 268.597268 503.205195 269.554327 503.205195 270.552118 
C 503.205195 271.549909 503.601621 272.506967 504.307166 273.212512 
C 505.012711 273.918056 505.969769 274.314483 506.96756 274.314483 
z
" clip-path="url(#p28c6dc7ea2)" style="fill: #ffffff; stroke: #2c404c; stroke-width: 0.327162; stroke-linejoin: miter"/>
   </g>
   <g id="patch_174">
    <path d="M 539.68378 330.978976 
C 540.681571 330.978976 541.638629 330.582549 542.344174 329.877005 
C 543.049719 329.17146 543.446145 328.214402 543.446145 327.216611 
C 543.446145 326.21882 543.049719 325.261761 542.344174 324.556217 
C 541.638629 323.850672 540.681571 323.454245 539.68378 323.454245 
C 538.685989 323.454245 537.728931 323.850672 537.023386 324.556217 
C 536.317841 325.261761 535.921415 326.21882 535.921415 327.216611 
C 535.921415 328.214402 536.317841 329.17146 537.023386 329.877005 
C 537.728931 330.582549 538.685989 330.978976 539.68378 330.978976 
z
" clip-path="url(#p28c6dc7ea2)" style="fill: #ffffff; stroke: #2c404c; stroke-width: 0.327162; stroke-linejoin: miter"/>
   </g>
   <g id="patch_175">
    <path d="M 605.11622 330.978976 
C 606.114011 330.978976 607.071069 330.582549 607.776614 329.877005 
C 608.482159 329.17146 608.878585 328.214402 608.878585 327.216611 
C 608.878585 326.21882 608.482159 325.261761 607.776614 324.556217 
C 607.071069 323.850672 606.114011 323.454245 605.11622 323.454245 
C 604.118429 323.454245 603.161371 323.850672 602.455826 324.556217 
C 601.750281 325.261761 601.353855 326.21882 601.353855 327.216611 
C 601.353855 328.214402 601.750281 329.17146 602.455826 329.877005 
C 603.161371 330.582549 604.118429 330.978976 605.11622 330.978976 
z
" clip-path="url(#p28c6dc7ea2)" style="fill: #ffffff; stroke: #2c404c; stroke-width: 0.327162; stroke-linejoin: miter"/>
   </g>
   <g id="patch_176">
    <path d="M 637.83244 274.314483 
C 638.830231 274.314483 639.787289 273.918056 640.492834 273.212512 
C 641.198379 272.506967 641.594805 271.549909 641.594805 270.552118 
C 641.594805 269.554327 641.198379 268.597268 640.492834 267.891724 
C 639.787289 267.186179 638.830231 266.789752 637.83244 266.789752 
C 636.834649 266.789752 635.877591 267.186179 635.172046 267.891724 
C 634.466501 268.597268 634.070075 269.554327 634.070075 270.552118 
C 634.070075 271.549909 634.466501 272.506967 635.172046 273.212512 
C 635.877591 273.918056 636.834649 274.314483 637.83244 274.314483 
z
" clip-path="url(#p28c6dc7ea2)" style="fill: #ffffff; stroke: #2c404c; stroke-width: 0.327162; stroke-linejoin: miter"/>
   </g>
   <g id="patch_177">
    <path d="M 605.11622 217.64999 
C 606.114011 217.64999 607.071069 217.253563 607.776614 216.548019 
C 608.482159 215.842474 608.878585 214.885416 608.878585 213.887625 
C 608.878585 212.889834 608.482159 211.932775 607.776614 211.227231 
C 607.071069 210.521686 606.114011 210.125259 605.11622 210.125259 
C 604.118429 210.125259 603.161371 210.521686 602.455826 211.227231 
C 601.750281 211.932775 601.353855 212.889834 601.353855 213.887625 
C 601.353855 214.885416 601.750281 215.842474 602.455826 216.548019 
C 603.161371 217.253563 604.118429 217.64999 605.11622 217.64999 
z
" clip-path="url(#p28c6dc7ea2)" style="fill: #ffffff; stroke: #2c404c; stroke-width: 0.327162; stroke-linejoin: miter"/>
   </g>
  </g>
  <g id="axes_12">
   <g id="patch_178">
    <path d="M 659.314286 337.021662 
L 811.542857 337.021662 
L 811.542857 204.082574 
L 659.314286 204.082574 
z
" style="fill: #ffffff"/>
   </g>
   <g id="patch_179">
    <path d="M 671.335825 266.792287 
L 702.089028 213.527738 
L 703.335675 214.247511 
L 672.582471 267.51206 
M 671.959148 267.152173 
L 671.959148 267.152173 
" clip-path="url(#p1e8993232d)" style="fill: #2c404c; opacity: 0.5"/>
   </g>
   <g id="patch_180">
    <path d="M 700.126012 324.176553 
L 669.372808 270.912004 
L 670.619455 270.192231 
L 701.372658 323.45678 
M 700.749335 323.816666 
L 700.749335 323.816666 
" clip-path="url(#p1e8993232d)" style="fill: #2c404c; opacity: 0.5"/>
   </g>
   <g id="patch_181">
    <path d="M 764.218845 327.936367 
L 702.712351 327.936367 
L 702.712351 326.496854 
L 764.218845 326.496854 
M 764.218845 327.216611 
L 764.218845 327.216611 
" clip-path="url(#p1e8993232d)" style="fill: #2c404c; opacity: 0.5"/>
   </g>
   <g id="patch_182">
    <path d="M 799.521318 274.311948 
L 768.768115 327.576497 
L 767.521468 326.856724 
L 798.274672 273.592176 
M 798.897995 273.952062 
L 798.897995 273.952062 
" clip-path="url(#p1e8993232d)" style="fill: #2c404c; opacity: 0.5"/>
   </g>
   <g id="patch_183">
    <path d="M 770.731131 216.927683 
L 801.484334 270.192231 
L 800.237688 270.912004 
L 769.484485 217.647455 
M 770.107808 217.287569 
L 770.107808 217.287569 
" clip-path="url(#p1e8993232d)" style="fill: #2c404c; opacity: 0.5"/>
   </g>
   <g id="patch_184">
    <path d="M 764.218845 214.607382 
L 702.712351 214.607382 
L 702.712351 213.167868 
L 764.218845 213.167868 
M 764.218845 213.887625 
L 764.218845 213.887625 
" clip-path="url(#p1e8993232d)" style="fill: #2c404c; opacity: 0.5"/>
   </g>
   <g id="patch_185">
    <path d="M 796.970285 269.439186 
L 702.221619 214.737623 
L 703.203084 213.037626 
L 797.95175 267.739189 
M 797.461017 268.589188 
L 797.461017 268.589188 
" clip-path="url(#p1e8993232d)" style="fill: #ffc0cb"/>
   </g>
   <g id="patch_186">
    <path d="M 765.331789 324.30742 
L 701.862365 214.378379 
L 703.562338 213.396871 
L 767.031761 323.325912 
M 766.181775 323.816666 
L 766.181775 323.816666 
" clip-path="url(#p1e8993232d)" style="fill: #ffc0cb"/>
   </g>
   <g id="patch_187">
    <path d="M 764.254065 326.103679 
L 669.505399 271.402116 
L 670.486864 269.702119 
L 765.23553 324.403682 
M 764.744797 325.253681 
L 764.744797 325.253681 
" clip-path="url(#p1e8993232d)" style="fill: #ffc0cb"/>
   </g>
   <g id="matplotlib.axis_23"/>
   <g id="matplotlib.axis_24"/>
   <g id="patch_188">
    <path d="M 702.712351 217.64999 
C 703.710142 217.64999 704.667201 217.253563 705.372745 216.548019 
C 706.07829 215.842474 706.474717 214.885416 706.474717 213.887625 
C 706.474717 212.889834 706.07829 211.932775 705.372745 211.227231 
C 704.667201 210.521686 703.710142 210.125259 702.712351 210.125259 
C 701.714561 210.125259 700.757502 210.521686 700.051957 211.227231 
C 699.346413 211.932775 698.949986 212.889834 698.949986 213.887625 
C 698.949986 214.885416 699.346413 215.842474 700.051957 216.548019 
C 700.757502 217.253563 701.714561 217.64999 702.712351 217.64999 
z
" clip-path="url(#p1e8993232d)" style="fill: #ffffff; stroke: #2c404c; stroke-width: 0.327162; stroke-linejoin: miter"/>
   </g>
   <g id="patch_189">
    <path d="M 669.996132 274.314483 
C 670.993922 274.314483 671.950981 273.918056 672.656526 273.212512 
C 673.36207 272.506967 673.758497 271.549909 673.758497 270.552118 
C 673.758497 269.554327 673.36207 268.597268 672.656526 267.891724 
C 671.950981 267.186179 670.993922 266.789752 669.996132 266.789752 
C 668.998341 266.789752 668.041282 267.186179 667.335738 267.891724 
C 666.630193 268.597268 666.233766 269.554327 666.233766 270.552118 
C 666.233766 271.549909 666.630193 272.506967 667.335738 273.212512 
C 668.041282 273.918056 668.998341 274.314483 669.996132 274.314483 
z
" clip-path="url(#p1e8993232d)" style="fill: #ffffff; stroke: #2c404c; stroke-width: 0.327162; stroke-linejoin: miter"/>
   </g>
   <g id="patch_190">
    <path d="M 702.712351 330.978976 
C 703.710142 330.978976 704.667201 330.582549 705.372745 329.877005 
C 706.07829 329.17146 706.474717 328.214402 706.474717 327.216611 
C 706.474717 326.21882 706.07829 325.261761 705.372745 324.556217 
C 704.667201 323.850672 703.710142 323.454245 702.712351 323.454245 
C 701.714561 323.454245 700.757502 323.850672 700.051957 324.556217 
C 699.346413 325.261761 698.949986 326.21882 698.949986 327.216611 
C 698.949986 328.214402 699.346413 329.17146 700.051957 329.877005 
C 700.757502 330.582549 701.714561 330.978976 702.712351 330.978976 
z
" clip-path="url(#p1e8993232d)" style="fill: #ffffff; stroke: #2c404c; stroke-width: 0.327162; stroke-linejoin: miter"/>
   </g>
   <g id="patch_191">
    <path d="M 768.144791 330.978976 
C 769.142582 330.978976 770.099641 330.582549 770.805185 329.877005 
C 771.51073 329.17146 771.907157 328.214402 771.907157 327.216611 
C 771.907157 326.21882 771.51073 325.261761 770.805185 324.556217 
C 770.099641 323.850672 769.142582 323.454245 768.144791 323.454245 
C 767.147 323.454245 766.189942 323.850672 765.484397 324.556217 
C 764.778853 325.261761 764.382426 326.21882 764.382426 327.216611 
C 764.382426 328.214402 764.778853 329.17146 765.484397 329.877005 
C 766.189942 330.582549 767.147 330.978976 768.144791 330.978976 
z
" clip-path="url(#p1e8993232d)" style="fill: #ffffff; stroke: #2c404c; stroke-width: 0.327162; stroke-linejoin: miter"/>
   </g>
   <g id="patch_192">
    <path d="M 800.861011 274.314483 
C 801.858802 274.314483 802.815861 273.918056 803.521405 273.212512 
C 804.22695 272.506967 804.623377 271.549909 804.623377 270.552118 
C 804.623377 269.554327 804.22695 268.597268 803.521405 267.891724 
C 802.815861 267.186179 801.858802 266.789752 800.861011 266.789752 
C 799.86322 266.789752 798.906162 267.186179 798.200617 267.891724 
C 797.495073 268.597268 797.098646 269.554327 797.098646 270.552118 
C 797.098646 271.549909 797.495073 272.506967 798.200617 273.212512 
C 798.906162 273.918056 799.86322 274.314483 800.861011 274.314483 
z
" clip-path="url(#p1e8993232d)" style="fill: #ffffff; stroke: #2c404c; stroke-width: 0.327162; stroke-linejoin: miter"/>
   </g>
   <g id="patch_193">
    <path d="M 768.144791 217.64999 
C 769.142582 217.64999 770.099641 217.253563 770.805185 216.548019 
C 771.51073 215.842474 771.907157 214.885416 771.907157 213.887625 
C 771.907157 212.889834 771.51073 211.932775 770.805185 211.227231 
C 770.099641 210.521686 769.142582 210.125259 768.144791 210.125259 
C 767.147 210.125259 766.189942 210.521686 765.484397 211.227231 
C 764.778853 211.932775 764.382426 212.889834 764.382426 213.887625 
C 764.382426 214.885416 764.778853 215.842474 765.484397 216.548019 
C 766.189942 217.253563 767.147 217.64999 768.144791 217.64999 
z
" clip-path="url(#p1e8993232d)" style="fill: #ffffff; stroke: #2c404c; stroke-width: 0.327162; stroke-linejoin: miter"/>
   </g>
  </g>
  <g id="axes_13">
   <g id="patch_194">
    <path d="M 822.342857 337.021662 
L 974.571429 337.021662 
L 974.571429 204.082574 
L 822.342857 204.082574 
z
" style="fill: #ffffff"/>
   </g>
   <g id="patch_195">
    <path d="M 834.364396 266.792287 
L 865.1176 213.527738 
L 866.364246 214.247511 
L 835.611042 267.51206 
M 834.987719 267.152173 
L 834.987719 267.152173 
" clip-path="url(#pd18c2ad2d4)" style="fill: #2c404c; opacity: 0.5"/>
   </g>
   <g id="patch_196">
    <path d="M 863.154583 324.176553 
L 832.40138 270.912004 
L 833.648026 270.192231 
L 864.40123 323.45678 
M 863.777907 323.816666 
L 863.777907 323.816666 
" clip-path="url(#pd18c2ad2d4)" style="fill: #2c404c; opacity: 0.5"/>
   </g>
   <g id="patch_197">
    <path d="M 927.247416 327.936367 
L 865.740923 327.936367 
L 865.740923 326.496854 
L 927.247416 326.496854 
M 927.247416 327.216611 
L 927.247416 327.216611 
" clip-path="url(#pd18c2ad2d4)" style="fill: #2c404c; opacity: 0.5"/>
   </g>
   <g id="patch_198">
    <path d="M 962.54989 274.311948 
L 931.796686 327.576497 
L 930.55004 326.856724 
L 961.303243 273.592176 
M 961.926566 273.952062 
L 961.926566 273.952062 
" clip-path="url(#pd18c2ad2d4)" style="fill: #2c404c; opacity: 0.5"/>
   </g>
   <g id="patch_199">
    <path d="M 933.759702 216.927683 
L 964.512906 270.192231 
L 963.26626 270.912004 
L 932.513056 217.647455 
M 933.136379 217.287569 
L 933.136379 217.287569 
" clip-path="url(#pd18c2ad2d4)" style="fill: #2c404c; opacity: 0.5"/>
   </g>
   <g id="patch_200">
    <path d="M 927.247416 214.607382 
L 865.740923 214.607382 
L 865.740923 213.167868 
L 927.247416 213.167868 
M 927.247416 213.887625 
L 927.247416 213.887625 
" clip-path="url(#pd18c2ad2d4)" style="fill: #2c404c; opacity: 0.5"/>
   </g>
   <g id="patch_201">
    <path d="M 928.264101 216.700553 
L 833.515435 271.402116 
L 832.53397 269.702119 
L 927.282636 215.000556 
M 927.773369 215.850555 
L 927.773369 215.850555 
" clip-path="url(#pd18c2ad2d4)" style="fill: #ffc0cb"/>
   </g>
   <g id="patch_202">
    <path d="M 959.963636 271.533604 
L 833.024703 271.533604 
L 833.024703 269.570631 
L 959.963636 269.570631 
M 959.963636 270.552118 
L 959.963636 270.552118 
" clip-path="url(#pd18c2ad2d4)" style="fill: #ffc0cb"/>
   </g>
   <g id="patch_203">
    <path d="M 927.282636 326.103679 
L 832.53397 271.402116 
L 833.515435 269.702119 
L 928.264101 324.403682 
M 927.773369 325.253681 
L 927.773369 325.253681 
" clip-path="url(#pd18c2ad2d4)" style="fill: #ffc0cb"/>
   </g>
   <g id="matplotlib.axis_25"/>
   <g id="matplotlib.axis_26"/>
   <g id="patch_204">
    <path d="M 865.740923 217.64999 
C 866.738714 217.64999 867.695772 217.253563 868.401317 216.548019 
C 869.106862 215.842474 869.503288 214.885416 869.503288 213.887625 
C 869.503288 212.889834 869.106862 211.932775 868.401317 211.227231 
C 867.695772 210.521686 866.738714 210.125259 865.740923 210.125259 
C 864.743132 210.125259 863.786074 210.521686 863.080529 211.227231 
C 862.374984 211.932775 861.978558 212.889834 861.978558 213.887625 
C 861.978558 214.885416 862.374984 215.842474 863.080529 216.548019 
C 863.786074 217.253563 864.743132 217.64999 865.740923 217.64999 
z
" clip-path="url(#pd18c2ad2d4)" style="fill: #ffffff; stroke: #2c404c; stroke-width: 0.327162; stroke-linejoin: miter"/>
   </g>
   <g id="patch_205">
    <path d="M 833.024703 274.314483 
C 834.022494 274.314483 834.979552 273.918056 835.685097 273.212512 
C 836.390642 272.506967 836.787068 271.549909 836.787068 270.552118 
C 836.787068 269.554327 836.390642 268.597268 835.685097 267.891724 
C 834.979552 267.186179 834.022494 266.789752 833.024703 266.789752 
C 832.026912 266.789752 831.069854 267.186179 830.364309 267.891724 
C 829.658764 268.597268 829.262338 269.554327 829.262338 270.552118 
C 829.262338 271.549909 829.658764 272.506967 830.364309 273.212512 
C 831.069854 273.918056 832.026912 274.314483 833.024703 274.314483 
z
" clip-path="url(#pd18c2ad2d4)" style="fill: #ffffff; stroke: #2c404c; stroke-width: 0.327162; stroke-linejoin: miter"/>
   </g>
   <g id="patch_206">
    <path d="M 865.740923 330.978976 
C 866.738714 330.978976 867.695772 330.582549 868.401317 329.877005 
C 869.106862 329.17146 869.503288 328.214402 869.503288 327.216611 
C 869.503288 326.21882 869.106862 325.261761 868.401317 324.556217 
C 867.695772 323.850672 866.738714 323.454245 865.740923 323.454245 
C 864.743132 323.454245 863.786074 323.850672 863.080529 324.556217 
C 862.374984 325.261761 861.978558 326.21882 861.978558 327.216611 
C 861.978558 328.214402 862.374984 329.17146 863.080529 329.877005 
C 863.786074 330.582549 864.743132 330.978976 865.740923 330.978976 
z
" clip-path="url(#pd18c2ad2d4)" style="fill: #ffffff; stroke: #2c404c; stroke-width: 0.327162; stroke-linejoin: miter"/>
   </g>
   <g id="patch_207">
    <path d="M 931.173363 330.978976 
C 932.171154 330.978976 933.128212 330.582549 933.833757 329.877005 
C 934.539302 329.17146 934.935728 328.214402 934.935728 327.216611 
C 934.935728 326.21882 934.539302 325.261761 933.833757 324.556217 
C 933.128212 323.850672 932.171154 323.454245 931.173363 323.454245 
C 930.175572 323.454245 929.218514 323.850672 928.512969 324.556217 
C 927.807424 325.261761 927.410998 326.21882 927.410998 327.216611 
C 927.410998 328.214402 927.807424 329.17146 928.512969 329.877005 
C 929.218514 330.582549 930.175572 330.978976 931.173363 330.978976 
z
" clip-path="url(#pd18c2ad2d4)" style="fill: #ffffff; stroke: #2c404c; stroke-width: 0.327162; stroke-linejoin: miter"/>
   </g>
   <g id="patch_208">
    <path d="M 963.889583 274.314483 
C 964.887374 274.314483 965.844432 273.918056 966.549977 273.212512 
C 967.255522 272.506967 967.651948 271.549909 967.651948 270.552118 
C 967.651948 269.554327 967.255522 268.597268 966.549977 267.891724 
C 965.844432 267.186179 964.887374 266.789752 963.889583 266.789752 
C 962.891792 266.789752 961.934733 267.186179 961.229189 267.891724 
C 960.523644 268.597268 960.127217 269.554327 960.127217 270.552118 
C 960.127217 271.549909 960.523644 272.506967 961.229189 273.212512 
C 961.934733 273.918056 962.891792 274.314483 963.889583 274.314483 
z
" clip-path="url(#pd18c2ad2d4)" style="fill: #ffffff; stroke: #2c404c; stroke-width: 0.327162; stroke-linejoin: miter"/>
   </g>
   <g id="patch_209">
    <path d="M 931.173363 217.64999 
C 932.171154 217.64999 933.128212 217.253563 933.833757 216.548019 
C 934.539302 215.842474 934.935728 214.885416 934.935728 213.887625 
C 934.935728 212.889834 934.539302 211.932775 933.833757 211.227231 
C 933.128212 210.521686 932.171154 210.125259 931.173363 210.125259 
C 930.175572 210.125259 929.218514 210.521686 928.512969 211.227231 
C 927.807424 211.932775 927.410998 212.889834 927.410998 213.887625 
C 927.410998 214.885416 927.807424 215.842474 928.512969 216.548019 
C 929.218514 217.253563 930.175572 217.64999 931.173363 217.64999 
z
" clip-path="url(#pd18c2ad2d4)" style="fill: #ffffff; stroke: #2c404c; stroke-width: 0.327162; stroke-linejoin: miter"/>
   </g>
  </g>
  <g id="axes_14">
   <g id="patch_210">
    <path d="M 985.371429 337.021662 
L 1137.6 337.021662 
L 1137.6 204.082574 
L 985.371429 204.082574 
z
" style="fill: #ffffff"/>
   </g>
   <g id="patch_211">
    <path d="M 997.392968 266.792287 
L 1028.146171 213.527738 
L 1029.392817 214.247511 
L 998.639614 267.51206 
M 998.016291 267.152173 
L 998.016291 267.152173 
" clip-path="url(#pb08df7b4eb)" style="fill: #2c404c; opacity: 0.5"/>
   </g>
   <g id="patch_212">
    <path d="M 1026.183155 324.176553 
L 995.429951 270.912004 
L 996.676598 270.192231 
L 1027.429801 323.45678 
M 1026.806478 323.816666 
L 1026.806478 323.816666 
" clip-path="url(#pb08df7b4eb)" style="fill: #2c404c; opacity: 0.5"/>
   </g>
   <g id="patch_213">
    <path d="M 1090.275988 327.936367 
L 1028.769494 327.936367 
L 1028.769494 326.496854 
L 1090.275988 326.496854 
M 1090.275988 327.216611 
L 1090.275988 327.216611 
" clip-path="url(#pb08df7b4eb)" style="fill: #2c404c; opacity: 0.5"/>
   </g>
   <g id="patch_214">
    <path d="M 1125.578461 274.311948 
L 1094.825257 327.576497 
L 1093.578611 326.856724 
L 1124.331815 273.592176 
M 1124.955138 273.952062 
L 1124.955138 273.952062 
" clip-path="url(#pb08df7b4eb)" style="fill: #2c404c; opacity: 0.5"/>
   </g>
   <g id="patch_215">
    <path d="M 1096.788274 216.927683 
L 1127.541477 270.192231 
L 1126.294831 270.912004 
L 1095.541627 217.647455 
M 1096.164951 217.287569 
L 1096.164951 217.287569 
" clip-path="url(#pb08df7b4eb)" style="fill: #2c404c; opacity: 0.5"/>
   </g>
   <g id="patch_216">
    <path d="M 1090.275988 214.607382 
L 1028.769494 214.607382 
L 1028.769494 213.167868 
L 1090.275988 213.167868 
M 1090.275988 213.887625 
L 1090.275988 213.887625 
" clip-path="url(#pb08df7b4eb)" style="fill: #2c404c; opacity: 0.5"/>
   </g>
   <g id="patch_217">
    <path d="M 1095.183421 217.813571 
L 1095.183421 327.216611 
L 1093.220448 327.216611 
L 1093.220448 217.813571 
M 1094.201934 217.813571 
L 1094.201934 217.813571 
" clip-path="url(#pb08df7b4eb)" style="fill: #ffc0cb"/>
   </g>
   <g id="patch_218">
    <path d="M 1091.388932 324.30742 
L 1027.919508 214.378379 
L 1029.61948 213.396871 
L 1093.088904 323.325912 
M 1092.238918 323.816666 
L 1092.238918 323.816666 
" clip-path="url(#pb08df7b4eb)" style="fill: #ffc0cb"/>
   </g>
   <g id="patch_219">
    <path d="M 1027.788008 323.290664 
L 1027.788008 213.887625 
L 1029.750981 213.887625 
L 1029.750981 323.290664 
M 1028.769494 323.290664 
L 1028.769494 323.290664 
" clip-path="url(#pb08df7b4eb)" style="fill: #ffc0cb"/>
   </g>
   <g id="matplotlib.axis_27"/>
   <g id="matplotlib.axis_28"/>
   <g id="patch_220">
    <path d="M 1028.769494 217.64999 
C 1029.767285 217.64999 1030.724344 217.253563 1031.429888 216.548019 
C 1032.135433 215.842474 1032.53186 214.885416 1032.53186 213.887625 
C 1032.53186 212.889834 1032.135433 211.932775 1031.429888 211.227231 
C 1030.724344 210.521686 1029.767285 210.125259 1028.769494 210.125259 
C 1027.771703 210.125259 1026.814645 210.521686 1026.1091 211.227231 
C 1025.403556 211.932775 1025.007129 212.889834 1025.007129 213.887625 
C 1025.007129 214.885416 1025.403556 215.842474 1026.1091 216.548019 
C 1026.814645 217.253563 1027.771703 217.64999 1028.769494 217.64999 
z
" clip-path="url(#pb08df7b4eb)" style="fill: #ffffff; stroke: #2c404c; stroke-width: 0.327162; stroke-linejoin: miter"/>
   </g>
   <g id="patch_221">
    <path d="M 996.053274 274.314483 
C 997.051065 274.314483 998.008124 273.918056 998.713668 273.212512 
C 999.419213 272.506967 999.81564 271.549909 999.81564 270.552118 
C 999.81564 269.554327 999.419213 268.597268 998.713668 267.891724 
C 998.008124 267.186179 997.051065 266.789752 996.053274 266.789752 
C 995.055483 266.789752 994.098425 267.186179 993.39288 267.891724 
C 992.687336 268.597268 992.290909 269.554327 992.290909 270.552118 
C 992.290909 271.549909 992.687336 272.506967 993.39288 273.212512 
C 994.098425 273.918056 995.055483 274.314483 996.053274 274.314483 
z
" clip-path="url(#pb08df7b4eb)" style="fill: #ffffff; stroke: #2c404c; stroke-width: 0.327162; stroke-linejoin: miter"/>
   </g>
   <g id="patch_222">
    <path d="M 1028.769494 330.978976 
C 1029.767285 330.978976 1030.724344 330.582549 1031.429888 329.877005 
C 1032.135433 329.17146 1032.53186 328.214402 1032.53186 327.216611 
C 1032.53186 326.21882 1032.135433 325.261761 1031.429888 324.556217 
C 1030.724344 323.850672 1029.767285 323.454245 1028.769494 323.454245 
C 1027.771703 323.454245 1026.814645 323.850672 1026.1091 324.556217 
C 1025.403556 325.261761 1025.007129 326.21882 1025.007129 327.216611 
C 1025.007129 328.214402 1025.403556 329.17146 1026.1091 329.877005 
C 1026.814645 330.582549 1027.771703 330.978976 1028.769494 330.978976 
z
" clip-path="url(#pb08df7b4eb)" style="fill: #ffffff; stroke: #2c404c; stroke-width: 0.327162; stroke-linejoin: miter"/>
   </g>
   <g id="patch_223">
    <path d="M 1094.201934 330.978976 
C 1095.199725 330.978976 1096.156784 330.582549 1096.862328 329.877005 
C 1097.567873 329.17146 1097.9643 328.214402 1097.9643 327.216611 
C 1097.9643 326.21882 1097.567873 325.261761 1096.862328 324.556217 
C 1096.156784 323.850672 1095.199725 323.454245 1094.201934 323.454245 
C 1093.204143 323.454245 1092.247085 323.850672 1091.54154 324.556217 
C 1090.835995 325.261761 1090.439569 326.21882 1090.439569 327.216611 
C 1090.439569 328.214402 1090.835995 329.17146 1091.54154 329.877005 
C 1092.247085 330.582549 1093.204143 330.978976 1094.201934 330.978976 
z
" clip-path="url(#pb08df7b4eb)" style="fill: #ffffff; stroke: #2c404c; stroke-width: 0.327162; stroke-linejoin: miter"/>
   </g>
   <g id="patch_224">
    <path d="M 1126.918154 274.314483 
C 1127.915945 274.314483 1128.873003 273.918056 1129.578548 273.212512 
C 1130.284093 272.506967 1130.680519 271.549909 1130.680519 270.552118 
C 1130.680519 269.554327 1130.284093 268.597268 1129.578548 267.891724 
C 1128.873003 267.186179 1127.915945 266.789752 1126.918154 266.789752 
C 1125.920363 266.789752 1124.963305 267.186179 1124.25776 267.891724 
C 1123.552215 268.597268 1123.155789 269.554327 1123.155789 270.552118 
C 1123.155789 271.549909 1123.552215 272.506967 1124.25776 273.212512 
C 1124.963305 273.918056 1125.920363 274.314483 1126.918154 274.314483 
z
" clip-path="url(#pb08df7b4eb)" style="fill: #ffffff; stroke: #2c404c; stroke-width: 0.327162; stroke-linejoin: miter"/>
   </g>
   <g id="patch_225">
    <path d="M 1094.201934 217.64999 
C 1095.199725 217.64999 1096.156784 217.253563 1096.862328 216.548019 
C 1097.567873 215.842474 1097.9643 214.885416 1097.9643 213.887625 
C 1097.9643 212.889834 1097.567873 211.932775 1096.862328 211.227231 
C 1096.156784 210.521686 1095.199725 210.125259 1094.201934 210.125259 
C 1093.204143 210.125259 1092.247085 210.521686 1091.54154 211.227231 
C 1090.835995 211.932775 1090.439569 212.889834 1090.439569 213.887625 
C 1090.439569 214.885416 1090.835995 215.842474 1091.54154 216.548019 
C 1092.247085 217.253563 1093.204143 217.64999 1094.201934 217.64999 
z
" clip-path="url(#pb08df7b4eb)" style="fill: #ffffff; stroke: #2c404c; stroke-width: 0.327162; stroke-linejoin: miter"/>
   </g>
  </g>
 </g>
 <defs>
  <clipPath id="pbd2629330c">
   <rect x="7.2" y="7.2" width="152.228571" height="132.939088"/>
  </clipPath>
  <clipPath id="p729610cc56">
   <rect x="170.228571" y="7.2" width="152.228571" height="132.939088"/>
  </clipPath>
  <clipPath id="p60aa27de19">
   <rect x="333.257143" y="7.2" width="152.228571" height="132.939088"/>
  </clipPath>
  <clipPath id="pa65763b611">
   <rect x="496.285714" y="7.2" width="152.228571" height="132.939088"/>
  </clipPath>
  <clipPath id="p43107b77b0">
   <rect x="659.314286" y="7.2" width="152.228571" height="132.939088"/>
  </clipPath>
  <clipPath id="p3bb4b6841f">
   <rect x="822.342857" y="7.2" width="152.228571" height="132.939088"/>
  </clipPath>
  <clipPath id="pc309dc0e4c">
   <rect x="985.371429" y="7.2" width="152.228571" height="132.939088"/>
  </clipPath>
  <clipPath id="p9d497ed73b">
   <rect x="7.2" y="204.082574" width="152.228571" height="132.939088"/>
  </clipPath>
  <clipPath id="p5b3cef9939">
   <rect x="170.228571" y="204.082574" width="152.228571" height="132.939088"/>
  </clipPath>
  <clipPath id="p2cc59c1543">
   <rect x="333.257143" y="204.082574" width="152.228571" height="132.939088"/>
  </clipPath>
  <clipPath id="p28c6dc7ea2">
   <rect x="496.285714" y="204.082574" width="152.228571" height="132.939088"/>
  </clipPath>
  <clipPath id="p1e8993232d">
   <rect x="659.314286" y="204.082574" width="152.228571" height="132.939088"/>
  </clipPath>
  <clipPath id="pd18c2ad2d4">
   <rect x="822.342857" y="204.082574" width="152.228571" height="132.939088"/>
  </clipPath>
  <clipPath id="pb08df7b4eb">
   <rect x="985.371429" y="204.082574" width="152.228571" height="132.939088"/>
  </clipPath>
 </defs>
</svg>
