<?xml version="1.0" encoding="utf-8" standalone="no"?>
<!DOCTYPE svg PUBLIC "-//W3C//DTD SVG 1.1//EN"
  "http://www.w3.org/Graphics/SVG/1.1/DTD/svg11.dtd">
<svg xmlns:xlink="http://www.w3.org/1999/xlink" width="1144.8pt" height="343.189135pt" viewBox="0 0 1144.8 343.189135" xmlns="http://www.w3.org/2000/svg" version="1.1">
 <metadata>
  <rdf:RDF xmlns:dc="http://purl.org/dc/elements/1.1/" xmlns:cc="http://creativecommons.org/ns#" xmlns:rdf="http://www.w3.org/1999/02/22-rdf-syntax-ns#">
   <cc:Work>
    <dc:type rdf:resource="http://purl.org/dc/dcmitype/StillImage"/>
    <dc:date>2024-05-07T23:28:12.783683</dc:date>
    <dc:format>image/svg+xml</dc:format>
    <dc:creator>
     <cc:Agent>
      <dc:title>Matplotlib v3.8.4, https://matplotlib.org/</dc:title>
     </cc:Agent>
    </dc:creator>
   </cc:Work>
  </rdf:RDF>
 </metadata>
 <defs>
  <style type="text/css">*{stroke-linejoin: round; stroke-linecap: butt}</style>
 </defs>
 <g id="figure_1">
  <g id="patch_1">
   <path d="M 0 343.189135 
L 1144.8 343.189135 
L 1144.8 -0 
L 0 -0 
z
" style="fill: #ffffff"/>
  </g>
  <g id="axes_1">
   <g id="patch_2">
    <path d="M 7.2 139.575892 
L 159.428571 139.575892 
L 159.428571 7.2 
L 7.2 7.2 
z
" style="fill: #ffffff"/>
   </g>
   <g id="patch_3">
    <path d="M 16.689974 71.469978 
L 49.351247 14.900654 
L 49.934449 15.237376 
L 17.273176 71.8067 
M 16.981575 71.638339 
L 16.981575 71.638339 
" clip-path="url(#p133cebf868)" style="fill: #2c404c; opacity: 0.5"/>
   </g>
   <g id="patch_4">
    <path d="M 48.341081 130.125631 
L 15.679809 73.556307 
L 16.263011 73.219585 
L 48.924283 129.788909 
M 48.632682 129.95727 
L 48.632682 129.95727 
" clip-path="url(#p133cebf868)" style="fill: #2c404c; opacity: 0.5"/>
   </g>
   <g id="patch_5">
    <path d="M 114.965437 132.043591 
L 49.642848 132.043591 
L 49.642848 131.370162 
L 114.965437 131.370162 
M 114.965437 131.706876 
L 114.965437 131.706876 
" clip-path="url(#p133cebf868)" style="fill: #2c404c; opacity: 0.5"/>
   </g>
   <g id="patch_6">
    <path d="M 149.938598 75.305913 
L 117.277325 131.875237 
L 116.694123 131.538516 
L 149.355395 74.969191 
M 149.646996 75.137552 
L 149.646996 75.137552 
" clip-path="url(#p133cebf868)" style="fill: #2c404c; opacity: 0.5"/>
   </g>
   <g id="patch_7">
    <path d="M 118.28749 16.650261 
L 150.948763 73.219585 
L 150.365561 73.556307 
L 117.704288 16.986982 
M 117.995889 16.818621 
L 117.995889 16.818621 
" clip-path="url(#p133cebf868)" style="fill: #2c404c; opacity: 0.5"/>
   </g>
   <g id="patch_8">
    <path d="M 114.965437 15.405729 
L 49.642848 15.405729 
L 49.642848 14.732301 
L 114.965437 14.732301 
M 114.965437 15.069015 
L 114.965437 15.069015 
" clip-path="url(#p133cebf868)" style="fill: #2c404c; opacity: 0.5"/>
   </g>
   <g id="patch_9">
    <path d="M 148.570823 72.961036 
L 49.306141 15.652226 
L 49.979555 14.485804 
L 149.244237 71.794614 
M 148.90753 72.377825 
L 148.90753 72.377825 
" clip-path="url(#p133cebf868)" style="fill: #ffc0cb"/>
   </g>
   <g id="patch_10">
    <path d="M 115.392356 130.293992 
L 49.059646 15.405737 
L 50.22605 14.732293 
L 116.558761 129.620548 
M 115.975558 129.95727 
L 115.975558 129.95727 
" clip-path="url(#p133cebf868)" style="fill: #ffc0cb"/>
   </g>
   <g id="patch_11">
    <path d="M 48.969419 129.68659 
L 48.969419 15.069015 
L 50.316276 15.069015 
L 50.316276 129.68659 
M 49.642848 129.68659 
L 49.642848 129.68659 
" clip-path="url(#p133cebf868)" style="fill: #ffc0cb"/>
   </g>
   <g id="matplotlib.axis_1"/>
   <g id="matplotlib.axis_2"/>
   <g id="patch_12">
    <path d="M 49.642848 16.920944 
C 50.133985 16.920944 50.605073 16.725813 50.952359 16.378527 
C 51.299646 16.03124 51.494777 15.560152 51.494777 15.069015 
C 51.494777 14.577878 51.299646 14.10679 50.952359 13.759503 
C 50.605073 13.412217 50.133985 13.217086 49.642848 13.217086 
C 49.15171 13.217086 48.680623 13.412217 48.333336 13.759503 
C 47.98605 14.10679 47.790919 14.577878 47.790919 15.069015 
C 47.790919 15.560152 47.98605 16.03124 48.333336 16.378527 
C 48.680623 16.725813 49.15171 16.920944 49.642848 16.920944 
z
" clip-path="url(#p133cebf868)" style="fill: #ffffff; stroke: #2c404c; stroke-width: 0.336714; stroke-linejoin: miter"/>
   </g>
   <g id="patch_13">
    <path d="M 15.97141 75.239875 
C 16.462547 75.239875 16.933635 75.044744 17.280921 74.697457 
C 17.628208 74.350171 17.823339 73.879083 17.823339 73.387946 
C 17.823339 72.896808 17.628208 72.425721 17.280921 72.078434 
C 16.933635 71.731148 16.462547 71.536017 15.97141 71.536017 
C 15.480272 71.536017 15.009185 71.731148 14.661898 72.078434 
C 14.314611 72.425721 14.119481 72.896808 14.119481 73.387946 
C 14.119481 73.879083 14.314611 74.350171 14.661898 74.697457 
C 15.009185 75.044744 15.480272 75.239875 15.97141 75.239875 
z
" clip-path="url(#p133cebf868)" style="fill: #ffffff; stroke: #2c404c; stroke-width: 0.336714; stroke-linejoin: miter"/>
   </g>
   <g id="patch_14">
    <path d="M 49.642848 133.558806 
C 50.133985 133.558806 50.605073 133.363675 50.952359 133.016388 
C 51.299646 132.669102 51.494777 132.198014 51.494777 131.706876 
C 51.494777 131.215739 51.299646 130.744651 50.952359 130.397365 
C 50.605073 130.050078 50.133985 129.854947 49.642848 129.854947 
C 49.15171 129.854947 48.680623 130.050078 48.333336 130.397365 
C 47.98605 130.744651 47.790919 131.215739 47.790919 131.706876 
C 47.790919 132.198014 47.98605 132.669102 48.333336 133.016388 
C 48.680623 133.363675 49.15171 133.558806 49.642848 133.558806 
z
" clip-path="url(#p133cebf868)" style="fill: #ffffff; stroke: #2c404c; stroke-width: 0.336714; stroke-linejoin: miter"/>
   </g>
   <g id="patch_15">
    <path d="M 116.985724 133.558806 
C 117.476861 133.558806 117.947949 133.363675 118.295235 133.016388 
C 118.642522 132.669102 118.837653 132.198014 118.837653 131.706876 
C 118.837653 131.215739 118.642522 130.744651 118.295235 130.397365 
C 117.947949 130.050078 117.476861 129.854947 116.985724 129.854947 
C 116.494586 129.854947 116.023499 130.050078 115.676212 130.397365 
C 115.328926 130.744651 115.133795 131.215739 115.133795 131.706876 
C 115.133795 132.198014 115.328926 132.669102 115.676212 133.016388 
C 116.023499 133.363675 116.494586 133.558806 116.985724 133.558806 
z
" clip-path="url(#p133cebf868)" style="fill: #ffffff; stroke: #2c404c; stroke-width: 0.336714; stroke-linejoin: miter"/>
   </g>
   <g id="patch_16">
    <path d="M 150.657162 75.239875 
C 151.148299 75.239875 151.619387 75.044744 151.966673 74.697457 
C 152.31396 74.350171 152.509091 73.879083 152.509091 73.387946 
C 152.509091 72.896808 152.31396 72.425721 151.966673 72.078434 
C 151.619387 71.731148 151.148299 71.536017 150.657162 71.536017 
C 150.166024 71.536017 149.694937 71.731148 149.34765 72.078434 
C 149.000364 72.425721 148.805233 72.896808 148.805233 73.387946 
C 148.805233 73.879083 149.000364 74.350171 149.34765 74.697457 
C 149.694937 75.044744 150.166024 75.239875 150.657162 75.239875 
z
" clip-path="url(#p133cebf868)" style="fill: #ffffff; stroke: #2c404c; stroke-width: 0.336714; stroke-linejoin: miter"/>
   </g>
   <g id="patch_17">
    <path d="M 116.985724 16.920944 
C 117.476861 16.920944 117.947949 16.725813 118.295235 16.378527 
C 118.642522 16.03124 118.837653 15.560152 118.837653 15.069015 
C 118.837653 14.577878 118.642522 14.10679 118.295235 13.759503 
C 117.947949 13.412217 117.476861 13.217086 116.985724 13.217086 
C 116.494586 13.217086 116.023499 13.412217 115.676212 13.759503 
C 115.328926 14.10679 115.133795 14.577878 115.133795 15.069015 
C 115.133795 15.560152 115.328926 16.03124 115.676212 16.378527 
C 116.023499 16.725813 116.494586 16.920944 116.985724 16.920944 
z
" clip-path="url(#p133cebf868)" style="fill: #ffffff; stroke: #2c404c; stroke-width: 0.336714; stroke-linejoin: miter"/>
   </g>
  </g>
  <g id="axes_2">
   <g id="patch_18">
    <path d="M 170.228571 139.575892 
L 322.457143 139.575892 
L 322.457143 7.2 
L 170.228571 7.2 
z
" style="fill: #ffffff"/>
   </g>
   <g id="patch_19">
    <path d="M 179.718545 71.469978 
L 212.379818 14.900654 
L 212.96302 15.237376 
L 180.301747 71.8067 
M 180.010146 71.638339 
L 180.010146 71.638339 
" clip-path="url(#p47fe367b39)" style="fill: #2c404c; opacity: 0.5"/>
   </g>
   <g id="patch_20">
    <path d="M 211.369653 130.125631 
L 178.70838 73.556307 
L 179.291582 73.219585 
L 211.952855 129.788909 
M 211.661254 129.95727 
L 211.661254 129.95727 
" clip-path="url(#p47fe367b39)" style="fill: #2c404c; opacity: 0.5"/>
   </g>
   <g id="patch_21">
    <path d="M 277.994009 132.043591 
L 212.671419 132.043591 
L 212.671419 131.370162 
L 277.994009 131.370162 
M 277.994009 131.706876 
L 277.994009 131.706876 
" clip-path="url(#p47fe367b39)" style="fill: #2c404c; opacity: 0.5"/>
   </g>
   <g id="patch_22">
    <path d="M 312.967169 75.305913 
L 280.305896 131.875237 
L 279.722694 131.538516 
L 312.383967 74.969191 
M 312.675568 75.137552 
L 312.675568 75.137552 
" clip-path="url(#p47fe367b39)" style="fill: #2c404c; opacity: 0.5"/>
   </g>
   <g id="patch_23">
    <path d="M 281.316062 16.650261 
L 313.977334 73.219585 
L 313.394132 73.556307 
L 280.732859 16.986982 
M 281.024461 16.818621 
L 281.024461 16.818621 
" clip-path="url(#p47fe367b39)" style="fill: #2c404c; opacity: 0.5"/>
   </g>
   <g id="patch_24">
    <path d="M 277.994009 15.405729 
L 212.671419 15.405729 
L 212.671419 14.732301 
L 277.994009 14.732301 
M 277.994009 15.069015 
L 277.994009 15.069015 
" clip-path="url(#p47fe367b39)" style="fill: #2c404c; opacity: 0.5"/>
   </g>
   <g id="patch_25">
    <path d="M 278.60137 16.662347 
L 179.336688 73.971156 
L 178.663274 72.804735 
L 277.927956 15.495925 
M 278.264663 16.079136 
L 278.264663 16.079136 
" clip-path="url(#p47fe367b39)" style="fill: #ffc0cb"/>
   </g>
   <g id="patch_26">
    <path d="M 280.687724 17.089301 
L 280.687724 131.706876 
L 279.340866 131.706876 
L 279.340866 17.089301 
M 280.014295 17.089301 
L 280.014295 17.089301 
" clip-path="url(#p47fe367b39)" style="fill: #ffc0cb"/>
   </g>
   <g id="patch_27">
    <path d="M 277.927956 131.279966 
L 178.663274 73.971156 
L 179.336688 72.804735 
L 278.60137 130.113545 
M 278.264663 130.696756 
L 278.264663 130.696756 
" clip-path="url(#p47fe367b39)" style="fill: #ffc0cb"/>
   </g>
   <g id="matplotlib.axis_3"/>
   <g id="matplotlib.axis_4"/>
   <g id="patch_28">
    <path d="M 212.671419 16.920944 
C 213.162556 16.920944 213.633644 16.725813 213.980931 16.378527 
C 214.328217 16.03124 214.523348 15.560152 214.523348 15.069015 
C 214.523348 14.577878 214.328217 14.10679 213.980931 13.759503 
C 213.633644 13.412217 213.162556 13.217086 212.671419 13.217086 
C 212.180282 13.217086 211.709194 13.412217 211.361907 13.759503 
C 211.014621 14.10679 210.81949 14.577878 210.81949 15.069015 
C 210.81949 15.560152 211.014621 16.03124 211.361907 16.378527 
C 211.709194 16.725813 212.180282 16.920944 212.671419 16.920944 
z
" clip-path="url(#p47fe367b39)" style="fill: #ffffff; stroke: #2c404c; stroke-width: 0.336714; stroke-linejoin: miter"/>
   </g>
   <g id="patch_29">
    <path d="M 178.999981 75.239875 
C 179.491118 75.239875 179.962206 75.044744 180.309493 74.697457 
C 180.656779 74.350171 180.85191 73.879083 180.85191 73.387946 
C 180.85191 72.896808 180.656779 72.425721 180.309493 72.078434 
C 179.962206 71.731148 179.491118 71.536017 178.999981 71.536017 
C 178.508844 71.536017 178.037756 71.731148 177.690469 72.078434 
C 177.343183 72.425721 177.148052 72.896808 177.148052 73.387946 
C 177.148052 73.879083 177.343183 74.350171 177.690469 74.697457 
C 178.037756 75.044744 178.508844 75.239875 178.999981 75.239875 
z
" clip-path="url(#p47fe367b39)" style="fill: #ffffff; stroke: #2c404c; stroke-width: 0.336714; stroke-linejoin: miter"/>
   </g>
   <g id="patch_30">
    <path d="M 212.671419 133.558806 
C 213.162556 133.558806 213.633644 133.363675 213.980931 133.016388 
C 214.328217 132.669102 214.523348 132.198014 214.523348 131.706876 
C 214.523348 131.215739 214.328217 130.744651 213.980931 130.397365 
C 213.633644 130.050078 213.162556 129.854947 212.671419 129.854947 
C 212.180282 129.854947 211.709194 130.050078 211.361907 130.397365 
C 211.014621 130.744651 210.81949 131.215739 210.81949 131.706876 
C 210.81949 132.198014 211.014621 132.669102 211.361907 133.016388 
C 211.709194 133.363675 212.180282 133.558806 212.671419 133.558806 
z
" clip-path="url(#p47fe367b39)" style="fill: #ffffff; stroke: #2c404c; stroke-width: 0.336714; stroke-linejoin: miter"/>
   </g>
   <g id="patch_31">
    <path d="M 280.014295 133.558806 
C 280.505433 133.558806 280.97652 133.363675 281.323807 133.016388 
C 281.671093 132.669102 281.866224 132.198014 281.866224 131.706876 
C 281.866224 131.215739 281.671093 130.744651 281.323807 130.397365 
C 280.97652 130.050078 280.505433 129.854947 280.014295 129.854947 
C 279.523158 129.854947 279.05207 130.050078 278.704784 130.397365 
C 278.357497 130.744651 278.162366 131.215739 278.162366 131.706876 
C 278.162366 132.198014 278.357497 132.669102 278.704784 133.016388 
C 279.05207 133.363675 279.523158 133.558806 280.014295 133.558806 
z
" clip-path="url(#p47fe367b39)" style="fill: #ffffff; stroke: #2c404c; stroke-width: 0.336714; stroke-linejoin: miter"/>
   </g>
   <g id="patch_32">
    <path d="M 313.685733 75.239875 
C 314.176871 75.239875 314.647958 75.044744 314.995245 74.697457 
C 315.342531 74.350171 315.537662 73.879083 315.537662 73.387946 
C 315.537662 72.896808 315.342531 72.425721 314.995245 72.078434 
C 314.647958 71.731148 314.176871 71.536017 313.685733 71.536017 
C 313.194596 71.536017 312.723508 71.731148 312.376222 72.078434 
C 312.028935 72.425721 311.833804 72.896808 311.833804 73.387946 
C 311.833804 73.879083 312.028935 74.350171 312.376222 74.697457 
C 312.723508 75.044744 313.194596 75.239875 313.685733 75.239875 
z
" clip-path="url(#p47fe367b39)" style="fill: #ffffff; stroke: #2c404c; stroke-width: 0.336714; stroke-linejoin: miter"/>
   </g>
   <g id="patch_33">
    <path d="M 280.014295 16.920944 
C 280.505433 16.920944 280.97652 16.725813 281.323807 16.378527 
C 281.671093 16.03124 281.866224 15.560152 281.866224 15.069015 
C 281.866224 14.577878 281.671093 14.10679 281.323807 13.759503 
C 280.97652 13.412217 280.505433 13.217086 280.014295 13.217086 
C 279.523158 13.217086 279.05207 13.412217 278.704784 13.759503 
C 278.357497 14.10679 278.162366 14.577878 278.162366 15.069015 
C 278.162366 15.560152 278.357497 16.03124 278.704784 16.378527 
C 279.05207 16.725813 279.523158 16.920944 280.014295 16.920944 
z
" clip-path="url(#p47fe367b39)" style="fill: #ffffff; stroke: #2c404c; stroke-width: 0.336714; stroke-linejoin: miter"/>
   </g>
  </g>
  <g id="axes_3">
   <g id="patch_34">
    <path d="M 333.257143 139.575892 
L 485.485714 139.575892 
L 485.485714 7.2 
L 333.257143 7.2 
z
" style="fill: #ffffff"/>
   </g>
   <g id="patch_35">
    <path d="M 342.747117 71.469978 
L 375.408389 14.900654 
L 375.991592 15.237376 
L 343.330319 71.8067 
M 343.038718 71.638339 
L 343.038718 71.638339 
" clip-path="url(#pbc7b2a53cd)" style="fill: #2c404c; opacity: 0.5"/>
   </g>
   <g id="patch_36">
    <path d="M 374.398224 130.125631 
L 341.736951 73.556307 
L 342.320154 73.219585 
L 374.981426 129.788909 
M 374.689825 129.95727 
L 374.689825 129.95727 
" clip-path="url(#pbc7b2a53cd)" style="fill: #2c404c; opacity: 0.5"/>
   </g>
   <g id="patch_37">
    <path d="M 441.02258 132.043591 
L 375.699991 132.043591 
L 375.699991 131.370162 
L 441.02258 131.370162 
M 441.02258 131.706876 
L 441.02258 131.706876 
" clip-path="url(#pbc7b2a53cd)" style="fill: #2c404c; opacity: 0.5"/>
   </g>
   <g id="patch_38">
    <path d="M 475.99574 75.305913 
L 443.334468 131.875237 
L 442.751266 131.538516 
L 475.412538 74.969191 
M 475.704139 75.137552 
L 475.704139 75.137552 
" clip-path="url(#pbc7b2a53cd)" style="fill: #2c404c; opacity: 0.5"/>
   </g>
   <g id="patch_39">
    <path d="M 444.344633 16.650261 
L 477.005906 73.219585 
L 476.422704 73.556307 
L 443.761431 16.986982 
M 444.053032 16.818621 
L 444.053032 16.818621 
" clip-path="url(#pbc7b2a53cd)" style="fill: #2c404c; opacity: 0.5"/>
   </g>
   <g id="patch_40">
    <path d="M 441.02258 15.405729 
L 375.699991 15.405729 
L 375.699991 14.732301 
L 441.02258 14.732301 
M 441.02258 15.069015 
L 441.02258 15.069015 
" clip-path="url(#pbc7b2a53cd)" style="fill: #2c404c; opacity: 0.5"/>
   </g>
   <g id="patch_41">
    <path d="M 474.627966 72.961036 
L 375.363284 15.652226 
L 376.036697 14.485804 
L 475.30138 71.794614 
M 474.964673 72.377825 
L 474.964673 72.377825 
" clip-path="url(#pbc7b2a53cd)" style="fill: #ffc0cb"/>
   </g>
   <g id="patch_42">
    <path d="M 475.30138 74.981277 
L 376.036697 132.290087 
L 375.363284 131.123666 
L 474.627966 73.814856 
M 474.964673 74.398067 
L 474.964673 74.398067 
" clip-path="url(#pbc7b2a53cd)" style="fill: #ffc0cb"/>
   </g>
   <g id="patch_43">
    <path d="M 375.026562 129.68659 
L 375.026562 15.069015 
L 376.373419 15.069015 
L 376.373419 129.68659 
M 375.699991 129.68659 
L 375.699991 129.68659 
" clip-path="url(#pbc7b2a53cd)" style="fill: #ffc0cb"/>
   </g>
   <g id="matplotlib.axis_5"/>
   <g id="matplotlib.axis_6"/>
   <g id="patch_44">
    <path d="M 375.699991 16.920944 
C 376.191128 16.920944 376.662216 16.725813 377.009502 16.378527 
C 377.356789 16.03124 377.55192 15.560152 377.55192 15.069015 
C 377.55192 14.577878 377.356789 14.10679 377.009502 13.759503 
C 376.662216 13.412217 376.191128 13.217086 375.699991 13.217086 
C 375.208853 13.217086 374.737765 13.412217 374.390479 13.759503 
C 374.043192 14.10679 373.848061 14.577878 373.848061 15.069015 
C 373.848061 15.560152 374.043192 16.03124 374.390479 16.378527 
C 374.737765 16.725813 375.208853 16.920944 375.699991 16.920944 
z
" clip-path="url(#pbc7b2a53cd)" style="fill: #ffffff; stroke: #2c404c; stroke-width: 0.336714; stroke-linejoin: miter"/>
   </g>
   <g id="patch_45">
    <path d="M 342.028552 75.239875 
C 342.51969 75.239875 342.990778 75.044744 343.338064 74.697457 
C 343.685351 74.350171 343.880482 73.879083 343.880482 73.387946 
C 343.880482 72.896808 343.685351 72.425721 343.338064 72.078434 
C 342.990778 71.731148 342.51969 71.536017 342.028552 71.536017 
C 341.537415 71.536017 341.066327 71.731148 340.719041 72.078434 
C 340.371754 72.425721 340.176623 72.896808 340.176623 73.387946 
C 340.176623 73.879083 340.371754 74.350171 340.719041 74.697457 
C 341.066327 75.044744 341.537415 75.239875 342.028552 75.239875 
z
" clip-path="url(#pbc7b2a53cd)" style="fill: #ffffff; stroke: #2c404c; stroke-width: 0.336714; stroke-linejoin: miter"/>
   </g>
   <g id="patch_46">
    <path d="M 375.699991 133.558806 
C 376.191128 133.558806 376.662216 133.363675 377.009502 133.016388 
C 377.356789 132.669102 377.55192 132.198014 377.55192 131.706876 
C 377.55192 131.215739 377.356789 130.744651 377.009502 130.397365 
C 376.662216 130.050078 376.191128 129.854947 375.699991 129.854947 
C 375.208853 129.854947 374.737765 130.050078 374.390479 130.397365 
C 374.043192 130.744651 373.848061 131.215739 373.848061 131.706876 
C 373.848061 132.198014 374.043192 132.669102 374.390479 133.016388 
C 374.737765 133.363675 375.208853 133.558806 375.699991 133.558806 
z
" clip-path="url(#pbc7b2a53cd)" style="fill: #ffffff; stroke: #2c404c; stroke-width: 0.336714; stroke-linejoin: miter"/>
   </g>
   <g id="patch_47">
    <path d="M 443.042867 133.558806 
C 443.534004 133.558806 444.005092 133.363675 444.352378 133.016388 
C 444.699665 132.669102 444.894796 132.198014 444.894796 131.706876 
C 444.894796 131.215739 444.699665 130.744651 444.352378 130.397365 
C 444.005092 130.050078 443.534004 129.854947 443.042867 129.854947 
C 442.551729 129.854947 442.080642 130.050078 441.733355 130.397365 
C 441.386068 130.744651 441.190938 131.215739 441.190938 131.706876 
C 441.190938 132.198014 441.386068 132.669102 441.733355 133.016388 
C 442.080642 133.363675 442.551729 133.558806 443.042867 133.558806 
z
" clip-path="url(#pbc7b2a53cd)" style="fill: #ffffff; stroke: #2c404c; stroke-width: 0.336714; stroke-linejoin: miter"/>
   </g>
   <g id="patch_48">
    <path d="M 476.714305 75.239875 
C 477.205442 75.239875 477.67653 75.044744 478.023816 74.697457 
C 478.371103 74.350171 478.566234 73.879083 478.566234 73.387946 
C 478.566234 72.896808 478.371103 72.425721 478.023816 72.078434 
C 477.67653 71.731148 477.205442 71.536017 476.714305 71.536017 
C 476.223167 71.536017 475.75208 71.731148 475.404793 72.078434 
C 475.057507 72.425721 474.862376 72.896808 474.862376 73.387946 
C 474.862376 73.879083 475.057507 74.350171 475.404793 74.697457 
C 475.75208 75.044744 476.223167 75.239875 476.714305 75.239875 
z
" clip-path="url(#pbc7b2a53cd)" style="fill: #ffffff; stroke: #2c404c; stroke-width: 0.336714; stroke-linejoin: miter"/>
   </g>
   <g id="patch_49">
    <path d="M 443.042867 16.920944 
C 443.534004 16.920944 444.005092 16.725813 444.352378 16.378527 
C 444.699665 16.03124 444.894796 15.560152 444.894796 15.069015 
C 444.894796 14.577878 444.699665 14.10679 444.352378 13.759503 
C 444.005092 13.412217 443.534004 13.217086 443.042867 13.217086 
C 442.551729 13.217086 442.080642 13.412217 441.733355 13.759503 
C 441.386068 14.10679 441.190938 14.577878 441.190938 15.069015 
C 441.190938 15.560152 441.386068 16.03124 441.733355 16.378527 
C 442.080642 16.725813 442.551729 16.920944 443.042867 16.920944 
z
" clip-path="url(#pbc7b2a53cd)" style="fill: #ffffff; stroke: #2c404c; stroke-width: 0.336714; stroke-linejoin: miter"/>
   </g>
  </g>
  <g id="axes_4">
   <g id="patch_50">
    <path d="M 496.285714 139.575892 
L 648.514286 139.575892 
L 648.514286 7.2 
L 496.285714 7.2 
z
" style="fill: #ffffff"/>
   </g>
   <g id="patch_51">
    <path d="M 505.775688 71.469978 
L 538.436961 14.900654 
L 539.020163 15.237376 
L 506.35889 71.8067 
M 506.067289 71.638339 
L 506.067289 71.638339 
" clip-path="url(#p3dcd8b0e1d)" style="fill: #2c404c; opacity: 0.5"/>
   </g>
   <g id="patch_52">
    <path d="M 537.426796 130.125631 
L 504.765523 73.556307 
L 505.348725 73.219585 
L 538.009998 129.788909 
M 537.718397 129.95727 
L 537.718397 129.95727 
" clip-path="url(#p3dcd8b0e1d)" style="fill: #2c404c; opacity: 0.5"/>
   </g>
   <g id="patch_53">
    <path d="M 604.051152 132.043591 
L 538.728562 132.043591 
L 538.728562 131.370162 
L 604.051152 131.370162 
M 604.051152 131.706876 
L 604.051152 131.706876 
" clip-path="url(#p3dcd8b0e1d)" style="fill: #2c404c; opacity: 0.5"/>
   </g>
   <g id="patch_54">
    <path d="M 639.024312 75.305913 
L 606.363039 131.875237 
L 605.779837 131.538516 
L 638.44111 74.969191 
M 638.732711 75.137552 
L 638.732711 75.137552 
" clip-path="url(#p3dcd8b0e1d)" style="fill: #2c404c; opacity: 0.5"/>
   </g>
   <g id="patch_55">
    <path d="M 607.373204 16.650261 
L 640.034477 73.219585 
L 639.451275 73.556307 
L 606.790002 16.986982 
M 607.081603 16.818621 
L 607.081603 16.818621 
" clip-path="url(#p3dcd8b0e1d)" style="fill: #2c404c; opacity: 0.5"/>
   </g>
   <g id="patch_56">
    <path d="M 604.051152 15.405729 
L 538.728562 15.405729 
L 538.728562 14.732301 
L 604.051152 14.732301 
M 604.051152 15.069015 
L 604.051152 15.069015 
" clip-path="url(#p3dcd8b0e1d)" style="fill: #2c404c; opacity: 0.5"/>
   </g>
   <g id="patch_57">
    <path d="M 605.644475 17.155343 
L 539.311764 132.043598 
L 538.14536 131.370155 
L 604.478071 16.4819 
M 605.061273 16.818621 
L 605.061273 16.818621 
" clip-path="url(#p3dcd8b0e1d)" style="fill: #ffc0cb"/>
   </g>
   <g id="patch_58">
    <path d="M 638.329951 74.981277 
L 539.065269 132.290087 
L 538.391855 131.123666 
L 637.656537 73.814856 
M 637.993244 74.398067 
L 637.993244 74.398067 
" clip-path="url(#p3dcd8b0e1d)" style="fill: #ffc0cb"/>
   </g>
   <g id="patch_59">
    <path d="M 538.055133 129.68659 
L 538.055133 15.069015 
L 539.401991 15.069015 
L 539.401991 129.68659 
M 538.728562 129.68659 
L 538.728562 129.68659 
" clip-path="url(#p3dcd8b0e1d)" style="fill: #ffc0cb"/>
   </g>
   <g id="matplotlib.axis_7"/>
   <g id="matplotlib.axis_8"/>
   <g id="patch_60">
    <path d="M 538.728562 16.920944 
C 539.219699 16.920944 539.690787 16.725813 540.038074 16.378527 
C 540.38536 16.03124 540.580491 15.560152 540.580491 15.069015 
C 540.580491 14.577878 540.38536 14.10679 540.038074 13.759503 
C 539.690787 13.412217 539.219699 13.217086 538.728562 13.217086 
C 538.237425 13.217086 537.766337 13.412217 537.41905 13.759503 
C 537.071764 14.10679 536.876633 14.577878 536.876633 15.069015 
C 536.876633 15.560152 537.071764 16.03124 537.41905 16.378527 
C 537.766337 16.725813 538.237425 16.920944 538.728562 16.920944 
z
" clip-path="url(#p3dcd8b0e1d)" style="fill: #ffffff; stroke: #2c404c; stroke-width: 0.336714; stroke-linejoin: miter"/>
   </g>
   <g id="patch_61">
    <path d="M 505.057124 75.239875 
C 505.548261 75.239875 506.019349 75.044744 506.366636 74.697457 
C 506.713922 74.350171 506.909053 73.879083 506.909053 73.387946 
C 506.909053 72.896808 506.713922 72.425721 506.366636 72.078434 
C 506.019349 71.731148 505.548261 71.536017 505.057124 71.536017 
C 504.565987 71.536017 504.094899 71.731148 503.747612 72.078434 
C 503.400326 72.425721 503.205195 72.896808 503.205195 73.387946 
C 503.205195 73.879083 503.400326 74.350171 503.747612 74.697457 
C 504.094899 75.044744 504.565987 75.239875 505.057124 75.239875 
z
" clip-path="url(#p3dcd8b0e1d)" style="fill: #ffffff; stroke: #2c404c; stroke-width: 0.336714; stroke-linejoin: miter"/>
   </g>
   <g id="patch_62">
    <path d="M 538.728562 133.558806 
C 539.219699 133.558806 539.690787 133.363675 540.038074 133.016388 
C 540.38536 132.669102 540.580491 132.198014 540.580491 131.706876 
C 540.580491 131.215739 540.38536 130.744651 540.038074 130.397365 
C 539.690787 130.050078 539.219699 129.854947 538.728562 129.854947 
C 538.237425 129.854947 537.766337 130.050078 537.41905 130.397365 
C 537.071764 130.744651 536.876633 131.215739 536.876633 131.706876 
C 536.876633 132.198014 537.071764 132.669102 537.41905 133.016388 
C 537.766337 133.363675 538.237425 133.558806 538.728562 133.558806 
z
" clip-path="url(#p3dcd8b0e1d)" style="fill: #ffffff; stroke: #2c404c; stroke-width: 0.336714; stroke-linejoin: miter"/>
   </g>
   <g id="patch_63">
    <path d="M 606.071438 133.558806 
C 606.562575 133.558806 607.033663 133.363675 607.38095 133.016388 
C 607.728236 132.669102 607.923367 132.198014 607.923367 131.706876 
C 607.923367 131.215739 607.728236 130.744651 607.38095 130.397365 
C 607.033663 130.050078 606.562575 129.854947 606.071438 129.854947 
C 605.580301 129.854947 605.109213 130.050078 604.761926 130.397365 
C 604.41464 130.744651 604.219509 131.215739 604.219509 131.706876 
C 604.219509 132.198014 604.41464 132.669102 604.761926 133.016388 
C 605.109213 133.363675 605.580301 133.558806 606.071438 133.558806 
z
" clip-path="url(#p3dcd8b0e1d)" style="fill: #ffffff; stroke: #2c404c; stroke-width: 0.336714; stroke-linejoin: miter"/>
   </g>
   <g id="patch_64">
    <path d="M 639.742876 75.239875 
C 640.234013 75.239875 640.705101 75.044744 641.052388 74.697457 
C 641.399674 74.350171 641.594805 73.879083 641.594805 73.387946 
C 641.594805 72.896808 641.399674 72.425721 641.052388 72.078434 
C 640.705101 71.731148 640.234013 71.536017 639.742876 71.536017 
C 639.251739 71.536017 638.780651 71.731148 638.433364 72.078434 
C 638.086078 72.425721 637.890947 72.896808 637.890947 73.387946 
C 637.890947 73.879083 638.086078 74.350171 638.433364 74.697457 
C 638.780651 75.044744 639.251739 75.239875 639.742876 75.239875 
z
" clip-path="url(#p3dcd8b0e1d)" style="fill: #ffffff; stroke: #2c404c; stroke-width: 0.336714; stroke-linejoin: miter"/>
   </g>
   <g id="patch_65">
    <path d="M 606.071438 16.920944 
C 606.562575 16.920944 607.033663 16.725813 607.38095 16.378527 
C 607.728236 16.03124 607.923367 15.560152 607.923367 15.069015 
C 607.923367 14.577878 607.728236 14.10679 607.38095 13.759503 
C 607.033663 13.412217 606.562575 13.217086 606.071438 13.217086 
C 605.580301 13.217086 605.109213 13.412217 604.761926 13.759503 
C 604.41464 14.10679 604.219509 14.577878 604.219509 15.069015 
C 604.219509 15.560152 604.41464 16.03124 604.761926 16.378527 
C 605.109213 16.725813 605.580301 16.920944 606.071438 16.920944 
z
" clip-path="url(#p3dcd8b0e1d)" style="fill: #ffffff; stroke: #2c404c; stroke-width: 0.336714; stroke-linejoin: miter"/>
   </g>
  </g>
  <g id="axes_5">
   <g id="patch_66">
    <path d="M 659.314286 139.575892 
L 811.542857 139.575892 
L 811.542857 7.2 
L 659.314286 7.2 
z
" style="fill: #ffffff"/>
   </g>
   <g id="patch_67">
    <path d="M 668.80426 71.469978 
L 701.465532 14.900654 
L 702.048734 15.237376 
L 669.387462 71.8067 
M 669.095861 71.638339 
L 669.095861 71.638339 
" clip-path="url(#p4b075e6f36)" style="fill: #2c404c; opacity: 0.5"/>
   </g>
   <g id="patch_68">
    <path d="M 700.455367 130.125631 
L 667.794094 73.556307 
L 668.377296 73.219585 
L 701.038569 129.788909 
M 700.746968 129.95727 
L 700.746968 129.95727 
" clip-path="url(#p4b075e6f36)" style="fill: #2c404c; opacity: 0.5"/>
   </g>
   <g id="patch_69">
    <path d="M 767.079723 132.043591 
L 701.757133 132.043591 
L 701.757133 131.370162 
L 767.079723 131.370162 
M 767.079723 131.706876 
L 767.079723 131.706876 
" clip-path="url(#p4b075e6f36)" style="fill: #2c404c; opacity: 0.5"/>
   </g>
   <g id="patch_70">
    <path d="M 802.052883 75.305913 
L 769.391611 131.875237 
L 768.808408 131.538516 
L 801.469681 74.969191 
M 801.761282 75.137552 
L 801.761282 75.137552 
" clip-path="url(#p4b075e6f36)" style="fill: #2c404c; opacity: 0.5"/>
   </g>
   <g id="patch_71">
    <path d="M 770.401776 16.650261 
L 803.063049 73.219585 
L 802.479846 73.556307 
L 769.818574 16.986982 
M 770.110175 16.818621 
L 770.110175 16.818621 
" clip-path="url(#p4b075e6f36)" style="fill: #2c404c; opacity: 0.5"/>
   </g>
   <g id="patch_72">
    <path d="M 767.079723 15.405729 
L 701.757133 15.405729 
L 701.757133 14.732301 
L 767.079723 14.732301 
M 767.079723 15.069015 
L 767.079723 15.069015 
" clip-path="url(#p4b075e6f36)" style="fill: #2c404c; opacity: 0.5"/>
   </g>
   <g id="patch_73">
    <path d="M 769.773438 17.089301 
L 769.773438 131.706876 
L 768.426581 131.706876 
L 768.426581 17.089301 
M 769.100009 17.089301 
L 769.100009 17.089301 
" clip-path="url(#p4b075e6f36)" style="fill: #ffc0cb"/>
   </g>
   <g id="patch_74">
    <path d="M 767.506642 130.293992 
L 701.173931 15.405737 
L 702.340336 14.732293 
L 768.673046 129.620548 
M 768.089844 129.95727 
L 768.089844 129.95727 
" clip-path="url(#p4b075e6f36)" style="fill: #ffc0cb"/>
   </g>
   <g id="patch_75">
    <path d="M 767.01367 131.279966 
L 667.748988 73.971156 
L 668.422402 72.804735 
L 767.687084 130.113545 
M 767.350377 130.696756 
L 767.350377 130.696756 
" clip-path="url(#p4b075e6f36)" style="fill: #ffc0cb"/>
   </g>
   <g id="matplotlib.axis_9"/>
   <g id="matplotlib.axis_10"/>
   <g id="patch_76">
    <path d="M 701.757133 16.920944 
C 702.248271 16.920944 702.719358 16.725813 703.066645 16.378527 
C 703.413932 16.03124 703.609062 15.560152 703.609062 15.069015 
C 703.609062 14.577878 703.413932 14.10679 703.066645 13.759503 
C 702.719358 13.412217 702.248271 13.217086 701.757133 13.217086 
C 701.265996 13.217086 700.794908 13.412217 700.447622 13.759503 
C 700.100335 14.10679 699.905204 14.577878 699.905204 15.069015 
C 699.905204 15.560152 700.100335 16.03124 700.447622 16.378527 
C 700.794908 16.725813 701.265996 16.920944 701.757133 16.920944 
z
" clip-path="url(#p4b075e6f36)" style="fill: #ffffff; stroke: #2c404c; stroke-width: 0.336714; stroke-linejoin: miter"/>
   </g>
   <g id="patch_77">
    <path d="M 668.085695 75.239875 
C 668.576833 75.239875 669.04792 75.044744 669.395207 74.697457 
C 669.742493 74.350171 669.937624 73.879083 669.937624 73.387946 
C 669.937624 72.896808 669.742493 72.425721 669.395207 72.078434 
C 669.04792 71.731148 668.576833 71.536017 668.085695 71.536017 
C 667.594558 71.536017 667.12347 71.731148 666.776184 72.078434 
C 666.428897 72.425721 666.233766 72.896808 666.233766 73.387946 
C 666.233766 73.879083 666.428897 74.350171 666.776184 74.697457 
C 667.12347 75.044744 667.594558 75.239875 668.085695 75.239875 
z
" clip-path="url(#p4b075e6f36)" style="fill: #ffffff; stroke: #2c404c; stroke-width: 0.336714; stroke-linejoin: miter"/>
   </g>
   <g id="patch_78">
    <path d="M 701.757133 133.558806 
C 702.248271 133.558806 702.719358 133.363675 703.066645 133.016388 
C 703.413932 132.669102 703.609062 132.198014 703.609062 131.706876 
C 703.609062 131.215739 703.413932 130.744651 703.066645 130.397365 
C 702.719358 130.050078 702.248271 129.854947 701.757133 129.854947 
C 701.265996 129.854947 700.794908 130.050078 700.447622 130.397365 
C 700.100335 130.744651 699.905204 131.215739 699.905204 131.706876 
C 699.905204 132.198014 700.100335 132.669102 700.447622 133.016388 
C 700.794908 133.363675 701.265996 133.558806 701.757133 133.558806 
z
" clip-path="url(#p4b075e6f36)" style="fill: #ffffff; stroke: #2c404c; stroke-width: 0.336714; stroke-linejoin: miter"/>
   </g>
   <g id="patch_79">
    <path d="M 769.100009 133.558806 
C 769.591147 133.558806 770.062235 133.363675 770.409521 133.016388 
C 770.756808 132.669102 770.951939 132.198014 770.951939 131.706876 
C 770.951939 131.215739 770.756808 130.744651 770.409521 130.397365 
C 770.062235 130.050078 769.591147 129.854947 769.100009 129.854947 
C 768.608872 129.854947 768.137784 130.050078 767.790498 130.397365 
C 767.443211 130.744651 767.24808 131.215739 767.24808 131.706876 
C 767.24808 132.198014 767.443211 132.669102 767.790498 133.016388 
C 768.137784 133.363675 768.608872 133.558806 769.100009 133.558806 
z
" clip-path="url(#p4b075e6f36)" style="fill: #ffffff; stroke: #2c404c; stroke-width: 0.336714; stroke-linejoin: miter"/>
   </g>
   <g id="patch_80">
    <path d="M 802.771448 75.239875 
C 803.262585 75.239875 803.733673 75.044744 804.080959 74.697457 
C 804.428246 74.350171 804.623377 73.879083 804.623377 73.387946 
C 804.623377 72.896808 804.428246 72.425721 804.080959 72.078434 
C 803.733673 71.731148 803.262585 71.536017 802.771448 71.536017 
C 802.28031 71.536017 801.809222 71.731148 801.461936 72.078434 
C 801.114649 72.425721 800.919518 72.896808 800.919518 73.387946 
C 800.919518 73.879083 801.114649 74.350171 801.461936 74.697457 
C 801.809222 75.044744 802.28031 75.239875 802.771448 75.239875 
z
" clip-path="url(#p4b075e6f36)" style="fill: #ffffff; stroke: #2c404c; stroke-width: 0.336714; stroke-linejoin: miter"/>
   </g>
   <g id="patch_81">
    <path d="M 769.100009 16.920944 
C 769.591147 16.920944 770.062235 16.725813 770.409521 16.378527 
C 770.756808 16.03124 770.951939 15.560152 770.951939 15.069015 
C 770.951939 14.577878 770.756808 14.10679 770.409521 13.759503 
C 770.062235 13.412217 769.591147 13.217086 769.100009 13.217086 
C 768.608872 13.217086 768.137784 13.412217 767.790498 13.759503 
C 767.443211 14.10679 767.24808 14.577878 767.24808 15.069015 
C 767.24808 15.560152 767.443211 16.03124 767.790498 16.378527 
C 768.137784 16.725813 768.608872 16.920944 769.100009 16.920944 
z
" clip-path="url(#p4b075e6f36)" style="fill: #ffffff; stroke: #2c404c; stroke-width: 0.336714; stroke-linejoin: miter"/>
   </g>
  </g>
  <g id="axes_6">
   <g id="patch_82">
    <path d="M 822.342857 139.575892 
L 974.571429 139.575892 
L 974.571429 7.2 
L 822.342857 7.2 
z
" style="fill: #ffffff"/>
   </g>
   <g id="patch_83">
    <path d="M 831.832831 71.469978 
L 864.494104 14.900654 
L 865.077306 15.237376 
L 832.416033 71.8067 
M 832.124432 71.638339 
L 832.124432 71.638339 
" clip-path="url(#p3534caedfc)" style="fill: #2c404c; opacity: 0.5"/>
   </g>
   <g id="patch_84">
    <path d="M 863.483938 130.125631 
L 830.822666 73.556307 
L 831.405868 73.219585 
L 864.067141 129.788909 
M 863.775539 129.95727 
L 863.775539 129.95727 
" clip-path="url(#p3534caedfc)" style="fill: #2c404c; opacity: 0.5"/>
   </g>
   <g id="patch_85">
    <path d="M 930.108295 132.043591 
L 864.785705 132.043591 
L 864.785705 131.370162 
L 930.108295 131.370162 
M 930.108295 131.706876 
L 930.108295 131.706876 
" clip-path="url(#p3534caedfc)" style="fill: #2c404c; opacity: 0.5"/>
   </g>
   <g id="patch_86">
    <path d="M 965.081455 75.305913 
L 932.420182 131.875237 
L 931.83698 131.538516 
L 964.498253 74.969191 
M 964.789854 75.137552 
L 964.789854 75.137552 
" clip-path="url(#p3534caedfc)" style="fill: #2c404c; opacity: 0.5"/>
   </g>
   <g id="patch_87">
    <path d="M 933.430347 16.650261 
L 966.09162 73.219585 
L 965.508418 73.556307 
L 932.847145 16.986982 
M 933.138746 16.818621 
L 933.138746 16.818621 
" clip-path="url(#p3534caedfc)" style="fill: #2c404c; opacity: 0.5"/>
   </g>
   <g id="patch_88">
    <path d="M 930.108295 15.405729 
L 864.785705 15.405729 
L 864.785705 14.732301 
L 930.108295 14.732301 
M 930.108295 15.069015 
L 930.108295 15.069015 
" clip-path="url(#p3534caedfc)" style="fill: #2c404c; opacity: 0.5"/>
   </g>
   <g id="patch_89">
    <path d="M 963.71368 72.961036 
L 864.448998 15.652226 
L 865.122412 14.485804 
L 964.387094 71.794614 
M 964.050387 72.377825 
L 964.050387 72.377825 
" clip-path="url(#p3534caedfc)" style="fill: #ffc0cb"/>
   </g>
   <g id="patch_90">
    <path d="M 963.779733 74.061375 
L 831.114267 74.061375 
L 831.114267 72.714517 
L 963.779733 72.714517 
M 963.779733 73.387946 
L 963.779733 73.387946 
" clip-path="url(#p3534caedfc)" style="fill: #ffc0cb"/>
   </g>
   <g id="patch_91">
    <path d="M 930.042242 131.279966 
L 830.77756 73.971156 
L 831.450974 72.804735 
L 930.715656 130.113545 
M 930.378949 130.696756 
L 930.378949 130.696756 
" clip-path="url(#p3534caedfc)" style="fill: #ffc0cb"/>
   </g>
   <g id="matplotlib.axis_11"/>
   <g id="matplotlib.axis_12"/>
   <g id="patch_92">
    <path d="M 864.785705 16.920944 
C 865.276842 16.920944 865.74793 16.725813 866.095216 16.378527 
C 866.442503 16.03124 866.637634 15.560152 866.637634 15.069015 
C 866.637634 14.577878 866.442503 14.10679 866.095216 13.759503 
C 865.74793 13.412217 865.276842 13.217086 864.785705 13.217086 
C 864.294567 13.217086 863.82348 13.412217 863.476193 13.759503 
C 863.128907 14.10679 862.933776 14.577878 862.933776 15.069015 
C 862.933776 15.560152 863.128907 16.03124 863.476193 16.378527 
C 863.82348 16.725813 864.294567 16.920944 864.785705 16.920944 
z
" clip-path="url(#p3534caedfc)" style="fill: #ffffff; stroke: #2c404c; stroke-width: 0.336714; stroke-linejoin: miter"/>
   </g>
   <g id="patch_93">
    <path d="M 831.114267 75.239875 
C 831.605404 75.239875 832.076492 75.044744 832.423778 74.697457 
C 832.771065 74.350171 832.966196 73.879083 832.966196 73.387946 
C 832.966196 72.896808 832.771065 72.425721 832.423778 72.078434 
C 832.076492 71.731148 831.605404 71.536017 831.114267 71.536017 
C 830.623129 71.536017 830.152042 71.731148 829.804755 72.078434 
C 829.457469 72.425721 829.262338 72.896808 829.262338 73.387946 
C 829.262338 73.879083 829.457469 74.350171 829.804755 74.697457 
C 830.152042 75.044744 830.623129 75.239875 831.114267 75.239875 
z
" clip-path="url(#p3534caedfc)" style="fill: #ffffff; stroke: #2c404c; stroke-width: 0.336714; stroke-linejoin: miter"/>
   </g>
   <g id="patch_94">
    <path d="M 864.785705 133.558806 
C 865.276842 133.558806 865.74793 133.363675 866.095216 133.016388 
C 866.442503 132.669102 866.637634 132.198014 866.637634 131.706876 
C 866.637634 131.215739 866.442503 130.744651 866.095216 130.397365 
C 865.74793 130.050078 865.276842 129.854947 864.785705 129.854947 
C 864.294567 129.854947 863.82348 130.050078 863.476193 130.397365 
C 863.128907 130.744651 862.933776 131.215739 862.933776 131.706876 
C 862.933776 132.198014 863.128907 132.669102 863.476193 133.016388 
C 863.82348 133.363675 864.294567 133.558806 864.785705 133.558806 
z
" clip-path="url(#p3534caedfc)" style="fill: #ffffff; stroke: #2c404c; stroke-width: 0.336714; stroke-linejoin: miter"/>
   </g>
   <g id="patch_95">
    <path d="M 932.128581 133.558806 
C 932.619718 133.558806 933.090806 133.363675 933.438093 133.016388 
C 933.785379 132.669102 933.98051 132.198014 933.98051 131.706876 
C 933.98051 131.215739 933.785379 130.744651 933.438093 130.397365 
C 933.090806 130.050078 932.619718 129.854947 932.128581 129.854947 
C 931.637444 129.854947 931.166356 130.050078 930.819069 130.397365 
C 930.471783 130.744651 930.276652 131.215739 930.276652 131.706876 
C 930.276652 132.198014 930.471783 132.669102 930.819069 133.016388 
C 931.166356 133.363675 931.637444 133.558806 932.128581 133.558806 
z
" clip-path="url(#p3534caedfc)" style="fill: #ffffff; stroke: #2c404c; stroke-width: 0.336714; stroke-linejoin: miter"/>
   </g>
   <g id="patch_96">
    <path d="M 965.800019 75.239875 
C 966.291156 75.239875 966.762244 75.044744 967.109531 74.697457 
C 967.456817 74.350171 967.651948 73.879083 967.651948 73.387946 
C 967.651948 72.896808 967.456817 72.425721 967.109531 72.078434 
C 966.762244 71.731148 966.291156 71.536017 965.800019 71.536017 
C 965.308882 71.536017 964.837794 71.731148 964.490507 72.078434 
C 964.143221 72.425721 963.94809 72.896808 963.94809 73.387946 
C 963.94809 73.879083 964.143221 74.350171 964.490507 74.697457 
C 964.837794 75.044744 965.308882 75.239875 965.800019 75.239875 
z
" clip-path="url(#p3534caedfc)" style="fill: #ffffff; stroke: #2c404c; stroke-width: 0.336714; stroke-linejoin: miter"/>
   </g>
   <g id="patch_97">
    <path d="M 932.128581 16.920944 
C 932.619718 16.920944 933.090806 16.725813 933.438093 16.378527 
C 933.785379 16.03124 933.98051 15.560152 933.98051 15.069015 
C 933.98051 14.577878 933.785379 14.10679 933.438093 13.759503 
C 933.090806 13.412217 932.619718 13.217086 932.128581 13.217086 
C 931.637444 13.217086 931.166356 13.412217 930.819069 13.759503 
C 930.471783 14.10679 930.276652 14.577878 930.276652 15.069015 
C 930.276652 15.560152 930.471783 16.03124 930.819069 16.378527 
C 931.166356 16.725813 931.637444 16.920944 932.128581 16.920944 
z
" clip-path="url(#p3534caedfc)" style="fill: #ffffff; stroke: #2c404c; stroke-width: 0.336714; stroke-linejoin: miter"/>
   </g>
  </g>
  <g id="axes_7">
   <g id="patch_98">
    <path d="M 985.371429 139.575892 
L 1137.6 139.575892 
L 1137.6 7.2 
L 985.371429 7.2 
z
" style="fill: #ffffff"/>
   </g>
   <g id="patch_99">
    <path d="M 994.861402 71.469978 
L 1027.522675 14.900654 
L 1028.105877 15.237376 
L 995.444605 71.8067 
M 995.153004 71.638339 
L 995.153004 71.638339 
" clip-path="url(#pf787d16489)" style="fill: #2c404c; opacity: 0.5"/>
   </g>
   <g id="patch_100">
    <path d="M 1026.51251 130.125631 
L 993.851237 73.556307 
L 994.434439 73.219585 
L 1027.095712 129.788909 
M 1026.804111 129.95727 
L 1026.804111 129.95727 
" clip-path="url(#pf787d16489)" style="fill: #2c404c; opacity: 0.5"/>
   </g>
   <g id="patch_101">
    <path d="M 1093.136866 132.043591 
L 1027.814276 132.043591 
L 1027.814276 131.370162 
L 1093.136866 131.370162 
M 1093.136866 131.706876 
L 1093.136866 131.706876 
" clip-path="url(#pf787d16489)" style="fill: #2c404c; opacity: 0.5"/>
   </g>
   <g id="patch_102">
    <path d="M 1128.110026 75.305913 
L 1095.448753 131.875237 
L 1094.865551 131.538516 
L 1127.526824 74.969191 
M 1127.818425 75.137552 
L 1127.818425 75.137552 
" clip-path="url(#pf787d16489)" style="fill: #2c404c; opacity: 0.5"/>
   </g>
   <g id="patch_103">
    <path d="M 1096.458919 16.650261 
L 1129.120191 73.219585 
L 1128.536989 73.556307 
L 1095.875717 16.986982 
M 1096.167318 16.818621 
L 1096.167318 16.818621 
" clip-path="url(#pf787d16489)" style="fill: #2c404c; opacity: 0.5"/>
   </g>
   <g id="patch_104">
    <path d="M 1093.136866 15.405729 
L 1027.814276 15.405729 
L 1027.814276 14.732301 
L 1093.136866 14.732301 
M 1093.136866 15.069015 
L 1093.136866 15.069015 
" clip-path="url(#pf787d16489)" style="fill: #2c404c; opacity: 0.5"/>
   </g>
   <g id="patch_105">
    <path d="M 1126.742251 72.961036 
L 1027.477569 15.652226 
L 1028.150983 14.485804 
L 1127.415665 71.794614 
M 1127.078958 72.377825 
L 1127.078958 72.377825 
" clip-path="url(#pf787d16489)" style="fill: #ffc0cb"/>
   </g>
   <g id="patch_106">
    <path d="M 1126.808304 74.061375 
L 994.142838 74.061375 
L 994.142838 72.714517 
L 1126.808304 72.714517 
M 1126.808304 73.387946 
L 1126.808304 73.387946 
" clip-path="url(#pf787d16489)" style="fill: #ffc0cb"/>
   </g>
   <g id="patch_107">
    <path d="M 1127.415665 74.981277 
L 1028.150983 132.290087 
L 1027.477569 131.123666 
L 1126.742251 73.814856 
M 1127.078958 74.398067 
L 1127.078958 74.398067 
" clip-path="url(#pf787d16489)" style="fill: #ffc0cb"/>
   </g>
   <g id="matplotlib.axis_13"/>
   <g id="matplotlib.axis_14"/>
   <g id="patch_108">
    <path d="M 1027.814276 16.920944 
C 1028.305414 16.920944 1028.776501 16.725813 1029.123788 16.378527 
C 1029.471074 16.03124 1029.666205 15.560152 1029.666205 15.069015 
C 1029.666205 14.577878 1029.471074 14.10679 1029.123788 13.759503 
C 1028.776501 13.412217 1028.305414 13.217086 1027.814276 13.217086 
C 1027.323139 13.217086 1026.852051 13.412217 1026.504765 13.759503 
C 1026.157478 14.10679 1025.962347 14.577878 1025.962347 15.069015 
C 1025.962347 15.560152 1026.157478 16.03124 1026.504765 16.378527 
C 1026.852051 16.725813 1027.323139 16.920944 1027.814276 16.920944 
z
" clip-path="url(#pf787d16489)" style="fill: #ffffff; stroke: #2c404c; stroke-width: 0.336714; stroke-linejoin: miter"/>
   </g>
   <g id="patch_109">
    <path d="M 994.142838 75.239875 
C 994.633976 75.239875 995.105063 75.044744 995.45235 74.697457 
C 995.799636 74.350171 995.994767 73.879083 995.994767 73.387946 
C 995.994767 72.896808 995.799636 72.425721 995.45235 72.078434 
C 995.105063 71.731148 994.633976 71.536017 994.142838 71.536017 
C 993.651701 71.536017 993.180613 71.731148 992.833327 72.078434 
C 992.48604 72.425721 992.290909 72.896808 992.290909 73.387946 
C 992.290909 73.879083 992.48604 74.350171 992.833327 74.697457 
C 993.180613 75.044744 993.651701 75.239875 994.142838 75.239875 
z
" clip-path="url(#pf787d16489)" style="fill: #ffffff; stroke: #2c404c; stroke-width: 0.336714; stroke-linejoin: miter"/>
   </g>
   <g id="patch_110">
    <path d="M 1027.814276 133.558806 
C 1028.305414 133.558806 1028.776501 133.363675 1029.123788 133.016388 
C 1029.471074 132.669102 1029.666205 132.198014 1029.666205 131.706876 
C 1029.666205 131.215739 1029.471074 130.744651 1029.123788 130.397365 
C 1028.776501 130.050078 1028.305414 129.854947 1027.814276 129.854947 
C 1027.323139 129.854947 1026.852051 130.050078 1026.504765 130.397365 
C 1026.157478 130.744651 1025.962347 131.215739 1025.962347 131.706876 
C 1025.962347 132.198014 1026.157478 132.669102 1026.504765 133.016388 
C 1026.852051 133.363675 1027.323139 133.558806 1027.814276 133.558806 
z
" clip-path="url(#pf787d16489)" style="fill: #ffffff; stroke: #2c404c; stroke-width: 0.336714; stroke-linejoin: miter"/>
   </g>
   <g id="patch_111">
    <path d="M 1095.157152 133.558806 
C 1095.64829 133.558806 1096.119377 133.363675 1096.466664 133.016388 
C 1096.81395 132.669102 1097.009081 132.198014 1097.009081 131.706876 
C 1097.009081 131.215739 1096.81395 130.744651 1096.466664 130.397365 
C 1096.119377 130.050078 1095.64829 129.854947 1095.157152 129.854947 
C 1094.666015 129.854947 1094.194927 130.050078 1093.847641 130.397365 
C 1093.500354 130.744651 1093.305223 131.215739 1093.305223 131.706876 
C 1093.305223 132.198014 1093.500354 132.669102 1093.847641 133.016388 
C 1094.194927 133.363675 1094.666015 133.558806 1095.157152 133.558806 
z
" clip-path="url(#pf787d16489)" style="fill: #ffffff; stroke: #2c404c; stroke-width: 0.336714; stroke-linejoin: miter"/>
   </g>
   <g id="patch_112">
    <path d="M 1128.82859 75.239875 
C 1129.319728 75.239875 1129.790815 75.044744 1130.138102 74.697457 
C 1130.485389 74.350171 1130.680519 73.879083 1130.680519 73.387946 
C 1130.680519 72.896808 1130.485389 72.425721 1130.138102 72.078434 
C 1129.790815 71.731148 1129.319728 71.536017 1128.82859 71.536017 
C 1128.337453 71.536017 1127.866365 71.731148 1127.519079 72.078434 
C 1127.171792 72.425721 1126.976661 72.896808 1126.976661 73.387946 
C 1126.976661 73.879083 1127.171792 74.350171 1127.519079 74.697457 
C 1127.866365 75.044744 1128.337453 75.239875 1128.82859 75.239875 
z
" clip-path="url(#pf787d16489)" style="fill: #ffffff; stroke: #2c404c; stroke-width: 0.336714; stroke-linejoin: miter"/>
   </g>
   <g id="patch_113">
    <path d="M 1095.157152 16.920944 
C 1095.64829 16.920944 1096.119377 16.725813 1096.466664 16.378527 
C 1096.81395 16.03124 1097.009081 15.560152 1097.009081 15.069015 
C 1097.009081 14.577878 1096.81395 14.10679 1096.466664 13.759503 
C 1096.119377 13.412217 1095.64829 13.217086 1095.157152 13.217086 
C 1094.666015 13.217086 1094.194927 13.412217 1093.847641 13.759503 
C 1093.500354 14.10679 1093.305223 14.577878 1093.305223 15.069015 
C 1093.305223 15.560152 1093.500354 16.03124 1093.847641 16.378527 
C 1094.194927 16.725813 1094.666015 16.920944 1095.157152 16.920944 
z
" clip-path="url(#pf787d16489)" style="fill: #ffffff; stroke: #2c404c; stroke-width: 0.336714; stroke-linejoin: miter"/>
   </g>
  </g>
  <g id="axes_8">
   <g id="patch_114">
    <path d="M 7.2 335.989135 
L 159.428571 335.989135 
L 159.428571 203.613243 
L 7.2 203.613243 
z
" style="fill: #ffffff"/>
   </g>
   <g id="patch_115">
    <path d="M 16.689974 267.883222 
L 49.351247 211.313897 
L 49.934449 211.650619 
L 17.273176 268.219943 
M 16.981575 268.051582 
L 16.981575 268.051582 
" clip-path="url(#pcae7e08d68)" style="fill: #2c404c; opacity: 0.5"/>
   </g>
   <g id="patch_116">
    <path d="M 48.341081 326.538874 
L 15.679809 269.96955 
L 16.263011 269.632828 
L 48.924283 326.202152 
M 48.632682 326.370513 
L 48.632682 326.370513 
" clip-path="url(#pcae7e08d68)" style="fill: #2c404c; opacity: 0.5"/>
   </g>
   <g id="patch_117">
    <path d="M 114.965437 328.456834 
L 49.642848 328.456834 
L 49.642848 327.783405 
L 114.965437 327.783405 
M 114.965437 328.12012 
L 114.965437 328.12012 
" clip-path="url(#pcae7e08d68)" style="fill: #2c404c; opacity: 0.5"/>
   </g>
   <g id="patch_118">
    <path d="M 149.938598 271.719156 
L 117.277325 328.28848 
L 116.694123 327.951759 
L 149.355395 271.382434 
M 149.646996 271.550795 
L 149.646996 271.550795 
" clip-path="url(#pcae7e08d68)" style="fill: #2c404c; opacity: 0.5"/>
   </g>
   <g id="patch_119">
    <path d="M 118.28749 213.063504 
L 150.948763 269.632828 
L 150.365561 269.96955 
L 117.704288 213.400225 
M 117.995889 213.231865 
L 117.995889 213.231865 
" clip-path="url(#pcae7e08d68)" style="fill: #2c404c; opacity: 0.5"/>
   </g>
   <g id="patch_120">
    <path d="M 114.965437 211.818973 
L 49.642848 211.818973 
L 49.642848 211.145544 
L 114.965437 211.145544 
M 114.965437 211.482258 
L 114.965437 211.482258 
" clip-path="url(#pcae7e08d68)" style="fill: #2c404c; opacity: 0.5"/>
   </g>
   <g id="patch_121">
    <path d="M 115.572799 213.07559 
L 16.308117 270.3844 
L 15.634703 269.217978 
L 114.899385 211.909168 
M 115.236092 212.492379 
L 115.236092 212.492379 
" clip-path="url(#pcae7e08d68)" style="fill: #ffc0cb"/>
   </g>
   <g id="patch_122">
    <path d="M 116.558761 213.568586 
L 50.22605 328.456841 
L 49.059646 327.783398 
L 115.392356 212.895143 
M 115.975558 213.231865 
L 115.975558 213.231865 
" clip-path="url(#pcae7e08d68)" style="fill: #ffc0cb"/>
   </g>
   <g id="patch_123">
    <path d="M 149.244237 271.39452 
L 49.979555 328.70333 
L 49.306141 327.536909 
L 148.570823 270.228099 
M 148.90753 270.81131 
L 148.90753 270.81131 
" clip-path="url(#pcae7e08d68)" style="fill: #ffc0cb"/>
   </g>
   <g id="matplotlib.axis_15"/>
   <g id="matplotlib.axis_16"/>
   <g id="patch_124">
    <path d="M 49.642848 213.334187 
C 50.133985 213.334187 50.605073 213.139056 50.952359 212.79177 
C 51.299646 212.444483 51.494777 211.973395 51.494777 211.482258 
C 51.494777 210.991121 51.299646 210.520033 50.952359 210.172747 
C 50.605073 209.82546 50.133985 209.630329 49.642848 209.630329 
C 49.15171 209.630329 48.680623 209.82546 48.333336 210.172747 
C 47.98605 210.520033 47.790919 210.991121 47.790919 211.482258 
C 47.790919 211.973395 47.98605 212.444483 48.333336 212.79177 
C 48.680623 213.139056 49.15171 213.334187 49.642848 213.334187 
z
" clip-path="url(#pcae7e08d68)" style="fill: #ffffff; stroke: #2c404c; stroke-width: 0.336714; stroke-linejoin: miter"/>
   </g>
   <g id="patch_125">
    <path d="M 15.97141 271.653118 
C 16.462547 271.653118 16.933635 271.457987 17.280921 271.1107 
C 17.628208 270.763414 17.823339 270.292326 17.823339 269.801189 
C 17.823339 269.310052 17.628208 268.838964 17.280921 268.491677 
C 16.933635 268.144391 16.462547 267.94926 15.97141 267.94926 
C 15.480272 267.94926 15.009185 268.144391 14.661898 268.491677 
C 14.314611 268.838964 14.119481 269.310052 14.119481 269.801189 
C 14.119481 270.292326 14.314611 270.763414 14.661898 271.1107 
C 15.009185 271.457987 15.480272 271.653118 15.97141 271.653118 
z
" clip-path="url(#pcae7e08d68)" style="fill: #ffffff; stroke: #2c404c; stroke-width: 0.336714; stroke-linejoin: miter"/>
   </g>
   <g id="patch_126">
    <path d="M 49.642848 329.972049 
C 50.133985 329.972049 50.605073 329.776918 50.952359 329.429631 
C 51.299646 329.082345 51.494777 328.611257 51.494777 328.12012 
C 51.494777 327.628982 51.299646 327.157894 50.952359 326.810608 
C 50.605073 326.463321 50.133985 326.26819 49.642848 326.26819 
C 49.15171 326.26819 48.680623 326.463321 48.333336 326.810608 
C 47.98605 327.157894 47.790919 327.628982 47.790919 328.12012 
C 47.790919 328.611257 47.98605 329.082345 48.333336 329.429631 
C 48.680623 329.776918 49.15171 329.972049 49.642848 329.972049 
z
" clip-path="url(#pcae7e08d68)" style="fill: #ffffff; stroke: #2c404c; stroke-width: 0.336714; stroke-linejoin: miter"/>
   </g>
   <g id="patch_127">
    <path d="M 116.985724 329.972049 
C 117.476861 329.972049 117.947949 329.776918 118.295235 329.429631 
C 118.642522 329.082345 118.837653 328.611257 118.837653 328.12012 
C 118.837653 327.628982 118.642522 327.157894 118.295235 326.810608 
C 117.947949 326.463321 117.476861 326.26819 116.985724 326.26819 
C 116.494586 326.26819 116.023499 326.463321 115.676212 326.810608 
C 115.328926 327.157894 115.133795 327.628982 115.133795 328.12012 
C 115.133795 328.611257 115.328926 329.082345 115.676212 329.429631 
C 116.023499 329.776918 116.494586 329.972049 116.985724 329.972049 
z
" clip-path="url(#pcae7e08d68)" style="fill: #ffffff; stroke: #2c404c; stroke-width: 0.336714; stroke-linejoin: miter"/>
   </g>
   <g id="patch_128">
    <path d="M 150.657162 271.653118 
C 151.148299 271.653118 151.619387 271.457987 151.966673 271.1107 
C 152.31396 270.763414 152.509091 270.292326 152.509091 269.801189 
C 152.509091 269.310052 152.31396 268.838964 151.966673 268.491677 
C 151.619387 268.144391 151.148299 267.94926 150.657162 267.94926 
C 150.166024 267.94926 149.694937 268.144391 149.34765 268.491677 
C 149.000364 268.838964 148.805233 269.310052 148.805233 269.801189 
C 148.805233 270.292326 149.000364 270.763414 149.34765 271.1107 
C 149.694937 271.457987 150.166024 271.653118 150.657162 271.653118 
z
" clip-path="url(#pcae7e08d68)" style="fill: #ffffff; stroke: #2c404c; stroke-width: 0.336714; stroke-linejoin: miter"/>
   </g>
   <g id="patch_129">
    <path d="M 116.985724 213.334187 
C 117.476861 213.334187 117.947949 213.139056 118.295235 212.79177 
C 118.642522 212.444483 118.837653 211.973395 118.837653 211.482258 
C 118.837653 210.991121 118.642522 210.520033 118.295235 210.172747 
C 117.947949 209.82546 117.476861 209.630329 116.985724 209.630329 
C 116.494586 209.630329 116.023499 209.82546 115.676212 210.172747 
C 115.328926 210.520033 115.133795 210.991121 115.133795 211.482258 
C 115.133795 211.973395 115.328926 212.444483 115.676212 212.79177 
C 116.023499 213.139056 116.494586 213.334187 116.985724 213.334187 
z
" clip-path="url(#pcae7e08d68)" style="fill: #ffffff; stroke: #2c404c; stroke-width: 0.336714; stroke-linejoin: miter"/>
   </g>
  </g>
  <g id="axes_9">
   <g id="patch_130">
    <path d="M 170.228571 335.989135 
L 322.457143 335.989135 
L 322.457143 203.613243 
L 170.228571 203.613243 
z
" style="fill: #ffffff"/>
   </g>
   <g id="patch_131">
    <path d="M 179.718545 267.883222 
L 212.379818 211.313897 
L 212.96302 211.650619 
L 180.301747 268.219943 
M 180.010146 268.051582 
L 180.010146 268.051582 
" clip-path="url(#p6d7b783ca0)" style="fill: #2c404c; opacity: 0.5"/>
   </g>
   <g id="patch_132">
    <path d="M 211.369653 326.538874 
L 178.70838 269.96955 
L 179.291582 269.632828 
L 211.952855 326.202152 
M 211.661254 326.370513 
L 211.661254 326.370513 
" clip-path="url(#p6d7b783ca0)" style="fill: #2c404c; opacity: 0.5"/>
   </g>
   <g id="patch_133">
    <path d="M 277.994009 328.456834 
L 212.671419 328.456834 
L 212.671419 327.783405 
L 277.994009 327.783405 
M 277.994009 328.12012 
L 277.994009 328.12012 
" clip-path="url(#p6d7b783ca0)" style="fill: #2c404c; opacity: 0.5"/>
   </g>
   <g id="patch_134">
    <path d="M 312.967169 271.719156 
L 280.305896 328.28848 
L 279.722694 327.951759 
L 312.383967 271.382434 
M 312.675568 271.550795 
L 312.675568 271.550795 
" clip-path="url(#p6d7b783ca0)" style="fill: #2c404c; opacity: 0.5"/>
   </g>
   <g id="patch_135">
    <path d="M 281.316062 213.063504 
L 313.977334 269.632828 
L 313.394132 269.96955 
L 280.732859 213.400225 
M 281.024461 213.231865 
L 281.024461 213.231865 
" clip-path="url(#p6d7b783ca0)" style="fill: #2c404c; opacity: 0.5"/>
   </g>
   <g id="patch_136">
    <path d="M 277.994009 211.818973 
L 212.671419 211.818973 
L 212.671419 211.145544 
L 277.994009 211.145544 
M 277.994009 211.482258 
L 277.994009 211.482258 
" clip-path="url(#p6d7b783ca0)" style="fill: #2c404c; opacity: 0.5"/>
   </g>
   <g id="patch_137">
    <path d="M 279.587332 213.568586 
L 213.254621 328.456841 
L 212.088217 327.783398 
L 278.420928 212.895143 
M 279.00413 213.231865 
L 279.00413 213.231865 
" clip-path="url(#p6d7b783ca0)" style="fill: #ffc0cb"/>
   </g>
   <g id="patch_138">
    <path d="M 280.687724 213.502544 
L 280.687724 328.12012 
L 279.340866 328.12012 
L 279.340866 213.502544 
M 280.014295 213.502544 
L 280.014295 213.502544 
" clip-path="url(#p6d7b783ca0)" style="fill: #ffc0cb"/>
   </g>
   <g id="patch_139">
    <path d="M 211.99799 326.099833 
L 211.99799 211.482258 
L 213.344848 211.482258 
L 213.344848 326.099833 
M 212.671419 326.099833 
L 212.671419 326.099833 
" clip-path="url(#p6d7b783ca0)" style="fill: #ffc0cb"/>
   </g>
   <g id="matplotlib.axis_17"/>
   <g id="matplotlib.axis_18"/>
   <g id="patch_140">
    <path d="M 212.671419 213.334187 
C 213.162556 213.334187 213.633644 213.139056 213.980931 212.79177 
C 214.328217 212.444483 214.523348 211.973395 214.523348 211.482258 
C 214.523348 210.991121 214.328217 210.520033 213.980931 210.172747 
C 213.633644 209.82546 213.162556 209.630329 212.671419 209.630329 
C 212.180282 209.630329 211.709194 209.82546 211.361907 210.172747 
C 211.014621 210.520033 210.81949 210.991121 210.81949 211.482258 
C 210.81949 211.973395 211.014621 212.444483 211.361907 212.79177 
C 211.709194 213.139056 212.180282 213.334187 212.671419 213.334187 
z
" clip-path="url(#p6d7b783ca0)" style="fill: #ffffff; stroke: #2c404c; stroke-width: 0.336714; stroke-linejoin: miter"/>
   </g>
   <g id="patch_141">
    <path d="M 178.999981 271.653118 
C 179.491118 271.653118 179.962206 271.457987 180.309493 271.1107 
C 180.656779 270.763414 180.85191 270.292326 180.85191 269.801189 
C 180.85191 269.310052 180.656779 268.838964 180.309493 268.491677 
C 179.962206 268.144391 179.491118 267.94926 178.999981 267.94926 
C 178.508844 267.94926 178.037756 268.144391 177.690469 268.491677 
C 177.343183 268.838964 177.148052 269.310052 177.148052 269.801189 
C 177.148052 270.292326 177.343183 270.763414 177.690469 271.1107 
C 178.037756 271.457987 178.508844 271.653118 178.999981 271.653118 
z
" clip-path="url(#p6d7b783ca0)" style="fill: #ffffff; stroke: #2c404c; stroke-width: 0.336714; stroke-linejoin: miter"/>
   </g>
   <g id="patch_142">
    <path d="M 212.671419 329.972049 
C 213.162556 329.972049 213.633644 329.776918 213.980931 329.429631 
C 214.328217 329.082345 214.523348 328.611257 214.523348 328.12012 
C 214.523348 327.628982 214.328217 327.157894 213.980931 326.810608 
C 213.633644 326.463321 213.162556 326.26819 212.671419 326.26819 
C 212.180282 326.26819 211.709194 326.463321 211.361907 326.810608 
C 211.014621 327.157894 210.81949 327.628982 210.81949 328.12012 
C 210.81949 328.611257 211.014621 329.082345 211.361907 329.429631 
C 211.709194 329.776918 212.180282 329.972049 212.671419 329.972049 
z
" clip-path="url(#p6d7b783ca0)" style="fill: #ffffff; stroke: #2c404c; stroke-width: 0.336714; stroke-linejoin: miter"/>
   </g>
   <g id="patch_143">
    <path d="M 280.014295 329.972049 
C 280.505433 329.972049 280.97652 329.776918 281.323807 329.429631 
C 281.671093 329.082345 281.866224 328.611257 281.866224 328.12012 
C 281.866224 327.628982 281.671093 327.157894 281.323807 326.810608 
C 280.97652 326.463321 280.505433 326.26819 280.014295 326.26819 
C 279.523158 326.26819 279.05207 326.463321 278.704784 326.810608 
C 278.357497 327.157894 278.162366 327.628982 278.162366 328.12012 
C 278.162366 328.611257 278.357497 329.082345 278.704784 329.429631 
C 279.05207 329.776918 279.523158 329.972049 280.014295 329.972049 
z
" clip-path="url(#p6d7b783ca0)" style="fill: #ffffff; stroke: #2c404c; stroke-width: 0.336714; stroke-linejoin: miter"/>
   </g>
   <g id="patch_144">
    <path d="M 313.685733 271.653118 
C 314.176871 271.653118 314.647958 271.457987 314.995245 271.1107 
C 315.342531 270.763414 315.537662 270.292326 315.537662 269.801189 
C 315.537662 269.310052 315.342531 268.838964 314.995245 268.491677 
C 314.647958 268.144391 314.176871 267.94926 313.685733 267.94926 
C 313.194596 267.94926 312.723508 268.144391 312.376222 268.491677 
C 312.028935 268.838964 311.833804 269.310052 311.833804 269.801189 
C 311.833804 270.292326 312.028935 270.763414 312.376222 271.1107 
C 312.723508 271.457987 313.194596 271.653118 313.685733 271.653118 
z
" clip-path="url(#p6d7b783ca0)" style="fill: #ffffff; stroke: #2c404c; stroke-width: 0.336714; stroke-linejoin: miter"/>
   </g>
   <g id="patch_145">
    <path d="M 280.014295 213.334187 
C 280.505433 213.334187 280.97652 213.139056 281.323807 212.79177 
C 281.671093 212.444483 281.866224 211.973395 281.866224 211.482258 
C 281.866224 210.991121 281.671093 210.520033 281.323807 210.172747 
C 280.97652 209.82546 280.505433 209.630329 280.014295 209.630329 
C 279.523158 209.630329 279.05207 209.82546 278.704784 210.172747 
C 278.357497 210.520033 278.162366 210.991121 278.162366 211.482258 
C 278.162366 211.973395 278.357497 212.444483 278.704784 212.79177 
C 279.05207 213.139056 279.523158 213.334187 280.014295 213.334187 
z
" clip-path="url(#p6d7b783ca0)" style="fill: #ffffff; stroke: #2c404c; stroke-width: 0.336714; stroke-linejoin: miter"/>
   </g>
  </g>
  <g id="axes_10">
   <g id="patch_146">
    <path d="M 333.257143 335.989135 
L 485.485714 335.989135 
L 485.485714 203.613243 
L 333.257143 203.613243 
z
" style="fill: #ffffff"/>
   </g>
   <g id="patch_147">
    <path d="M 342.747117 267.883222 
L 375.408389 211.313897 
L 375.991592 211.650619 
L 343.330319 268.219943 
M 343.038718 268.051582 
L 343.038718 268.051582 
" clip-path="url(#pd2ce68fc70)" style="fill: #2c404c; opacity: 0.5"/>
   </g>
   <g id="patch_148">
    <path d="M 374.398224 326.538874 
L 341.736951 269.96955 
L 342.320154 269.632828 
L 374.981426 326.202152 
M 374.689825 326.370513 
L 374.689825 326.370513 
" clip-path="url(#pd2ce68fc70)" style="fill: #2c404c; opacity: 0.5"/>
   </g>
   <g id="patch_149">
    <path d="M 441.02258 328.456834 
L 375.699991 328.456834 
L 375.699991 327.783405 
L 441.02258 327.783405 
M 441.02258 328.12012 
L 441.02258 328.12012 
" clip-path="url(#pd2ce68fc70)" style="fill: #2c404c; opacity: 0.5"/>
   </g>
   <g id="patch_150">
    <path d="M 475.99574 271.719156 
L 443.334468 328.28848 
L 442.751266 327.951759 
L 475.412538 271.382434 
M 475.704139 271.550795 
L 475.704139 271.550795 
" clip-path="url(#pd2ce68fc70)" style="fill: #2c404c; opacity: 0.5"/>
   </g>
   <g id="patch_151">
    <path d="M 444.344633 213.063504 
L 477.005906 269.632828 
L 476.422704 269.96955 
L 443.761431 213.400225 
M 444.053032 213.231865 
L 444.053032 213.231865 
" clip-path="url(#pd2ce68fc70)" style="fill: #2c404c; opacity: 0.5"/>
   </g>
   <g id="patch_152">
    <path d="M 441.02258 211.818973 
L 375.699991 211.818973 
L 375.699991 211.145544 
L 441.02258 211.145544 
M 441.02258 211.482258 
L 441.02258 211.482258 
" clip-path="url(#pd2ce68fc70)" style="fill: #2c404c; opacity: 0.5"/>
   </g>
   <g id="patch_153">
    <path d="M 441.629942 213.07559 
L 342.365259 270.3844 
L 341.691845 269.217978 
L 440.956528 211.909168 
M 441.293235 212.492379 
L 441.293235 212.492379 
" clip-path="url(#pd2ce68fc70)" style="fill: #ffc0cb"/>
   </g>
   <g id="patch_154">
    <path d="M 442.615903 213.568586 
L 376.283193 328.456841 
L 375.116788 327.783398 
L 441.449499 212.895143 
M 442.032701 213.231865 
L 442.032701 213.231865 
" clip-path="url(#pd2ce68fc70)" style="fill: #ffc0cb"/>
   </g>
   <g id="patch_155">
    <path d="M 443.716295 213.502544 
L 443.716295 328.12012 
L 442.369438 328.12012 
L 442.369438 213.502544 
M 443.042867 213.502544 
L 443.042867 213.502544 
" clip-path="url(#pd2ce68fc70)" style="fill: #ffc0cb"/>
   </g>
   <g id="matplotlib.axis_19"/>
   <g id="matplotlib.axis_20"/>
   <g id="patch_156">
    <path d="M 375.699991 213.334187 
C 376.191128 213.334187 376.662216 213.139056 377.009502 212.79177 
C 377.356789 212.444483 377.55192 211.973395 377.55192 211.482258 
C 377.55192 210.991121 377.356789 210.520033 377.009502 210.172747 
C 376.662216 209.82546 376.191128 209.630329 375.699991 209.630329 
C 375.208853 209.630329 374.737765 209.82546 374.390479 210.172747 
C 374.043192 210.520033 373.848061 210.991121 373.848061 211.482258 
C 373.848061 211.973395 374.043192 212.444483 374.390479 212.79177 
C 374.737765 213.139056 375.208853 213.334187 375.699991 213.334187 
z
" clip-path="url(#pd2ce68fc70)" style="fill: #ffffff; stroke: #2c404c; stroke-width: 0.336714; stroke-linejoin: miter"/>
   </g>
   <g id="patch_157">
    <path d="M 342.028552 271.653118 
C 342.51969 271.653118 342.990778 271.457987 343.338064 271.1107 
C 343.685351 270.763414 343.880482 270.292326 343.880482 269.801189 
C 343.880482 269.310052 343.685351 268.838964 343.338064 268.491677 
C 342.990778 268.144391 342.51969 267.94926 342.028552 267.94926 
C 341.537415 267.94926 341.066327 268.144391 340.719041 268.491677 
C 340.371754 268.838964 340.176623 269.310052 340.176623 269.801189 
C 340.176623 270.292326 340.371754 270.763414 340.719041 271.1107 
C 341.066327 271.457987 341.537415 271.653118 342.028552 271.653118 
z
" clip-path="url(#pd2ce68fc70)" style="fill: #ffffff; stroke: #2c404c; stroke-width: 0.336714; stroke-linejoin: miter"/>
   </g>
   <g id="patch_158">
    <path d="M 375.699991 329.972049 
C 376.191128 329.972049 376.662216 329.776918 377.009502 329.429631 
C 377.356789 329.082345 377.55192 328.611257 377.55192 328.12012 
C 377.55192 327.628982 377.356789 327.157894 377.009502 326.810608 
C 376.662216 326.463321 376.191128 326.26819 375.699991 326.26819 
C 375.208853 326.26819 374.737765 326.463321 374.390479 326.810608 
C 374.043192 327.157894 373.848061 327.628982 373.848061 328.12012 
C 373.848061 328.611257 374.043192 329.082345 374.390479 329.429631 
C 374.737765 329.776918 375.208853 329.972049 375.699991 329.972049 
z
" clip-path="url(#pd2ce68fc70)" style="fill: #ffffff; stroke: #2c404c; stroke-width: 0.336714; stroke-linejoin: miter"/>
   </g>
   <g id="patch_159">
    <path d="M 443.042867 329.972049 
C 443.534004 329.972049 444.005092 329.776918 444.352378 329.429631 
C 444.699665 329.082345 444.894796 328.611257 444.894796 328.12012 
C 444.894796 327.628982 444.699665 327.157894 444.352378 326.810608 
C 444.005092 326.463321 443.534004 326.26819 443.042867 326.26819 
C 442.551729 326.26819 442.080642 326.463321 441.733355 326.810608 
C 441.386068 327.157894 441.190938 327.628982 441.190938 328.12012 
C 441.190938 328.611257 441.386068 329.082345 441.733355 329.429631 
C 442.080642 329.776918 442.551729 329.972049 443.042867 329.972049 
z
" clip-path="url(#pd2ce68fc70)" style="fill: #ffffff; stroke: #2c404c; stroke-width: 0.336714; stroke-linejoin: miter"/>
   </g>
   <g id="patch_160">
    <path d="M 476.714305 271.653118 
C 477.205442 271.653118 477.67653 271.457987 478.023816 271.1107 
C 478.371103 270.763414 478.566234 270.292326 478.566234 269.801189 
C 478.566234 269.310052 478.371103 268.838964 478.023816 268.491677 
C 477.67653 268.144391 477.205442 267.94926 476.714305 267.94926 
C 476.223167 267.94926 475.75208 268.144391 475.404793 268.491677 
C 475.057507 268.838964 474.862376 269.310052 474.862376 269.801189 
C 474.862376 270.292326 475.057507 270.763414 475.404793 271.1107 
C 475.75208 271.457987 476.223167 271.653118 476.714305 271.653118 
z
" clip-path="url(#pd2ce68fc70)" style="fill: #ffffff; stroke: #2c404c; stroke-width: 0.336714; stroke-linejoin: miter"/>
   </g>
   <g id="patch_161">
    <path d="M 443.042867 213.334187 
C 443.534004 213.334187 444.005092 213.139056 444.352378 212.79177 
C 444.699665 212.444483 444.894796 211.973395 444.894796 211.482258 
C 444.894796 210.991121 444.699665 210.520033 444.352378 210.172747 
C 444.005092 209.82546 443.534004 209.630329 443.042867 209.630329 
C 442.551729 209.630329 442.080642 209.82546 441.733355 210.172747 
C 441.386068 210.520033 441.190938 210.991121 441.190938 211.482258 
C 441.190938 211.973395 441.386068 212.444483 441.733355 212.79177 
C 442.080642 213.139056 442.551729 213.334187 443.042867 213.334187 
z
" clip-path="url(#pd2ce68fc70)" style="fill: #ffffff; stroke: #2c404c; stroke-width: 0.336714; stroke-linejoin: miter"/>
   </g>
  </g>
  <g id="axes_11">
   <g id="patch_162">
    <path d="M 496.285714 335.989135 
L 648.514286 335.989135 
L 648.514286 203.613243 
L 496.285714 203.613243 
z
" style="fill: #ffffff"/>
   </g>
   <g id="patch_163">
    <path d="M 505.775688 267.883222 
L 538.436961 211.313897 
L 539.020163 211.650619 
L 506.35889 268.219943 
M 506.067289 268.051582 
L 506.067289 268.051582 
" clip-path="url(#p92134967e5)" style="fill: #2c404c; opacity: 0.5"/>
   </g>
   <g id="patch_164">
    <path d="M 537.426796 326.538874 
L 504.765523 269.96955 
L 505.348725 269.632828 
L 538.009998 326.202152 
M 537.718397 326.370513 
L 537.718397 326.370513 
" clip-path="url(#p92134967e5)" style="fill: #2c404c; opacity: 0.5"/>
   </g>
   <g id="patch_165">
    <path d="M 604.051152 328.456834 
L 538.728562 328.456834 
L 538.728562 327.783405 
L 604.051152 327.783405 
M 604.051152 328.12012 
L 604.051152 328.12012 
" clip-path="url(#p92134967e5)" style="fill: #2c404c; opacity: 0.5"/>
   </g>
   <g id="patch_166">
    <path d="M 639.024312 271.719156 
L 606.363039 328.28848 
L 605.779837 327.951759 
L 638.44111 271.382434 
M 638.732711 271.550795 
L 638.732711 271.550795 
" clip-path="url(#p92134967e5)" style="fill: #2c404c; opacity: 0.5"/>
   </g>
   <g id="patch_167">
    <path d="M 607.373204 213.063504 
L 640.034477 269.632828 
L 639.451275 269.96955 
L 606.790002 213.400225 
M 607.081603 213.231865 
L 607.081603 213.231865 
" clip-path="url(#p92134967e5)" style="fill: #2c404c; opacity: 0.5"/>
   </g>
   <g id="patch_168">
    <path d="M 604.051152 211.818973 
L 538.728562 211.818973 
L 538.728562 211.145544 
L 604.051152 211.145544 
M 604.051152 211.482258 
L 604.051152 211.482258 
" clip-path="url(#p92134967e5)" style="fill: #2c404c; opacity: 0.5"/>
   </g>
   <g id="patch_169">
    <path d="M 604.658513 213.07559 
L 505.393831 270.3844 
L 504.720417 269.217978 
L 603.985099 211.909168 
M 604.321806 212.492379 
L 604.321806 212.492379 
" clip-path="url(#p92134967e5)" style="fill: #ffc0cb"/>
   </g>
   <g id="patch_170">
    <path d="M 637.72259 270.474618 
L 505.057124 270.474618 
L 505.057124 269.12776 
L 637.72259 269.12776 
M 637.72259 269.801189 
L 637.72259 269.801189 
" clip-path="url(#p92134967e5)" style="fill: #ffc0cb"/>
   </g>
   <g id="patch_171">
    <path d="M 638.329951 271.39452 
L 539.065269 328.70333 
L 538.391855 327.536909 
L 637.656537 270.228099 
M 637.993244 270.81131 
L 637.993244 270.81131 
" clip-path="url(#p92134967e5)" style="fill: #ffc0cb"/>
   </g>
   <g id="matplotlib.axis_21"/>
   <g id="matplotlib.axis_22"/>
   <g id="patch_172">
    <path d="M 538.728562 213.334187 
C 539.219699 213.334187 539.690787 213.139056 540.038074 212.79177 
C 540.38536 212.444483 540.580491 211.973395 540.580491 211.482258 
C 540.580491 210.991121 540.38536 210.520033 540.038074 210.172747 
C 539.690787 209.82546 539.219699 209.630329 538.728562 209.630329 
C 538.237425 209.630329 537.766337 209.82546 537.41905 210.172747 
C 537.071764 210.520033 536.876633 210.991121 536.876633 211.482258 
C 536.876633 211.973395 537.071764 212.444483 537.41905 212.79177 
C 537.766337 213.139056 538.237425 213.334187 538.728562 213.334187 
z
" clip-path="url(#p92134967e5)" style="fill: #ffffff; stroke: #2c404c; stroke-width: 0.336714; stroke-linejoin: miter"/>
   </g>
   <g id="patch_173">
    <path d="M 505.057124 271.653118 
C 505.548261 271.653118 506.019349 271.457987 506.366636 271.1107 
C 506.713922 270.763414 506.909053 270.292326 506.909053 269.801189 
C 506.909053 269.310052 506.713922 268.838964 506.366636 268.491677 
C 506.019349 268.144391 505.548261 267.94926 505.057124 267.94926 
C 504.565987 267.94926 504.094899 268.144391 503.747612 268.491677 
C 503.400326 268.838964 503.205195 269.310052 503.205195 269.801189 
C 503.205195 270.292326 503.400326 270.763414 503.747612 271.1107 
C 504.094899 271.457987 504.565987 271.653118 505.057124 271.653118 
z
" clip-path="url(#p92134967e5)" style="fill: #ffffff; stroke: #2c404c; stroke-width: 0.336714; stroke-linejoin: miter"/>
   </g>
   <g id="patch_174">
    <path d="M 538.728562 329.972049 
C 539.219699 329.972049 539.690787 329.776918 540.038074 329.429631 
C 540.38536 329.082345 540.580491 328.611257 540.580491 328.12012 
C 540.580491 327.628982 540.38536 327.157894 540.038074 326.810608 
C 539.690787 326.463321 539.219699 326.26819 538.728562 326.26819 
C 538.237425 326.26819 537.766337 326.463321 537.41905 326.810608 
C 537.071764 327.157894 536.876633 327.628982 536.876633 328.12012 
C 536.876633 328.611257 537.071764 329.082345 537.41905 329.429631 
C 537.766337 329.776918 538.237425 329.972049 538.728562 329.972049 
z
" clip-path="url(#p92134967e5)" style="fill: #ffffff; stroke: #2c404c; stroke-width: 0.336714; stroke-linejoin: miter"/>
   </g>
   <g id="patch_175">
    <path d="M 606.071438 329.972049 
C 606.562575 329.972049 607.033663 329.776918 607.38095 329.429631 
C 607.728236 329.082345 607.923367 328.611257 607.923367 328.12012 
C 607.923367 327.628982 607.728236 327.157894 607.38095 326.810608 
C 607.033663 326.463321 606.562575 326.26819 606.071438 326.26819 
C 605.580301 326.26819 605.109213 326.463321 604.761926 326.810608 
C 604.41464 327.157894 604.219509 327.628982 604.219509 328.12012 
C 604.219509 328.611257 604.41464 329.082345 604.761926 329.429631 
C 605.109213 329.776918 605.580301 329.972049 606.071438 329.972049 
z
" clip-path="url(#p92134967e5)" style="fill: #ffffff; stroke: #2c404c; stroke-width: 0.336714; stroke-linejoin: miter"/>
   </g>
   <g id="patch_176">
    <path d="M 639.742876 271.653118 
C 640.234013 271.653118 640.705101 271.457987 641.052388 271.1107 
C 641.399674 270.763414 641.594805 270.292326 641.594805 269.801189 
C 641.594805 269.310052 641.399674 268.838964 641.052388 268.491677 
C 640.705101 268.144391 640.234013 267.94926 639.742876 267.94926 
C 639.251739 267.94926 638.780651 268.144391 638.433364 268.491677 
C 638.086078 268.838964 637.890947 269.310052 637.890947 269.801189 
C 637.890947 270.292326 638.086078 270.763414 638.433364 271.1107 
C 638.780651 271.457987 639.251739 271.653118 639.742876 271.653118 
z
" clip-path="url(#p92134967e5)" style="fill: #ffffff; stroke: #2c404c; stroke-width: 0.336714; stroke-linejoin: miter"/>
   </g>
   <g id="patch_177">
    <path d="M 606.071438 213.334187 
C 606.562575 213.334187 607.033663 213.139056 607.38095 212.79177 
C 607.728236 212.444483 607.923367 211.973395 607.923367 211.482258 
C 607.923367 210.991121 607.728236 210.520033 607.38095 210.172747 
C 607.033663 209.82546 606.562575 209.630329 606.071438 209.630329 
C 605.580301 209.630329 605.109213 209.82546 604.761926 210.172747 
C 604.41464 210.520033 604.219509 210.991121 604.219509 211.482258 
C 604.219509 211.973395 604.41464 212.444483 604.761926 212.79177 
C 605.109213 213.139056 605.580301 213.334187 606.071438 213.334187 
z
" clip-path="url(#p92134967e5)" style="fill: #ffffff; stroke: #2c404c; stroke-width: 0.336714; stroke-linejoin: miter"/>
   </g>
  </g>
  <g id="axes_12">
   <g id="patch_178">
    <path d="M 659.314286 335.989135 
L 811.542857 335.989135 
L 811.542857 203.613243 
L 659.314286 203.613243 
z
" style="fill: #ffffff"/>
   </g>
   <g id="patch_179">
    <path d="M 668.80426 267.883222 
L 701.465532 211.313897 
L 702.048734 211.650619 
L 669.387462 268.219943 
M 669.095861 268.051582 
L 669.095861 268.051582 
" clip-path="url(#pd90c13d421)" style="fill: #2c404c; opacity: 0.5"/>
   </g>
   <g id="patch_180">
    <path d="M 700.455367 326.538874 
L 667.794094 269.96955 
L 668.377296 269.632828 
L 701.038569 326.202152 
M 700.746968 326.370513 
L 700.746968 326.370513 
" clip-path="url(#pd90c13d421)" style="fill: #2c404c; opacity: 0.5"/>
   </g>
   <g id="patch_181">
    <path d="M 767.079723 328.456834 
L 701.757133 328.456834 
L 701.757133 327.783405 
L 767.079723 327.783405 
M 767.079723 328.12012 
L 767.079723 328.12012 
" clip-path="url(#pd90c13d421)" style="fill: #2c404c; opacity: 0.5"/>
   </g>
   <g id="patch_182">
    <path d="M 802.052883 271.719156 
L 769.391611 328.28848 
L 768.808408 327.951759 
L 801.469681 271.382434 
M 801.761282 271.550795 
L 801.761282 271.550795 
" clip-path="url(#pd90c13d421)" style="fill: #2c404c; opacity: 0.5"/>
   </g>
   <g id="patch_183">
    <path d="M 770.401776 213.063504 
L 803.063049 269.632828 
L 802.479846 269.96955 
L 769.818574 213.400225 
M 770.110175 213.231865 
L 770.110175 213.231865 
" clip-path="url(#pd90c13d421)" style="fill: #2c404c; opacity: 0.5"/>
   </g>
   <g id="patch_184">
    <path d="M 767.079723 211.818973 
L 701.757133 211.818973 
L 701.757133 211.145544 
L 767.079723 211.145544 
M 767.079723 211.482258 
L 767.079723 211.482258 
" clip-path="url(#pd90c13d421)" style="fill: #2c404c; opacity: 0.5"/>
   </g>
   <g id="patch_185">
    <path d="M 800.685108 269.374279 
L 701.420426 212.065469 
L 702.09384 210.899047 
L 801.358522 268.207857 
M 801.021815 268.791068 
L 801.021815 268.791068 
" clip-path="url(#pd90c13d421)" style="fill: #ffc0cb"/>
   </g>
   <g id="patch_186">
    <path d="M 767.506642 326.707235 
L 701.173931 211.81898 
L 702.340336 211.145536 
L 768.673046 326.033791 
M 768.089844 326.370513 
L 768.089844 326.370513 
" clip-path="url(#pd90c13d421)" style="fill: #ffc0cb"/>
   </g>
   <g id="patch_187">
    <path d="M 767.01367 327.693209 
L 667.748988 270.3844 
L 668.422402 269.217978 
L 767.687084 326.526788 
M 767.350377 327.109999 
L 767.350377 327.109999 
" clip-path="url(#pd90c13d421)" style="fill: #ffc0cb"/>
   </g>
   <g id="matplotlib.axis_23"/>
   <g id="matplotlib.axis_24"/>
   <g id="patch_188">
    <path d="M 701.757133 213.334187 
C 702.248271 213.334187 702.719358 213.139056 703.066645 212.79177 
C 703.413932 212.444483 703.609062 211.973395 703.609062 211.482258 
C 703.609062 210.991121 703.413932 210.520033 703.066645 210.172747 
C 702.719358 209.82546 702.248271 209.630329 701.757133 209.630329 
C 701.265996 209.630329 700.794908 209.82546 700.447622 210.172747 
C 700.100335 210.520033 699.905204 210.991121 699.905204 211.482258 
C 699.905204 211.973395 700.100335 212.444483 700.447622 212.79177 
C 700.794908 213.139056 701.265996 213.334187 701.757133 213.334187 
z
" clip-path="url(#pd90c13d421)" style="fill: #ffffff; stroke: #2c404c; stroke-width: 0.336714; stroke-linejoin: miter"/>
   </g>
   <g id="patch_189">
    <path d="M 668.085695 271.653118 
C 668.576833 271.653118 669.04792 271.457987 669.395207 271.1107 
C 669.742493 270.763414 669.937624 270.292326 669.937624 269.801189 
C 669.937624 269.310052 669.742493 268.838964 669.395207 268.491677 
C 669.04792 268.144391 668.576833 267.94926 668.085695 267.94926 
C 667.594558 267.94926 667.12347 268.144391 666.776184 268.491677 
C 666.428897 268.838964 666.233766 269.310052 666.233766 269.801189 
C 666.233766 270.292326 666.428897 270.763414 666.776184 271.1107 
C 667.12347 271.457987 667.594558 271.653118 668.085695 271.653118 
z
" clip-path="url(#pd90c13d421)" style="fill: #ffffff; stroke: #2c404c; stroke-width: 0.336714; stroke-linejoin: miter"/>
   </g>
   <g id="patch_190">
    <path d="M 701.757133 329.972049 
C 702.248271 329.972049 702.719358 329.776918 703.066645 329.429631 
C 703.413932 329.082345 703.609062 328.611257 703.609062 328.12012 
C 703.609062 327.628982 703.413932 327.157894 703.066645 326.810608 
C 702.719358 326.463321 702.248271 326.26819 701.757133 326.26819 
C 701.265996 326.26819 700.794908 326.463321 700.447622 326.810608 
C 700.100335 327.157894 699.905204 327.628982 699.905204 328.12012 
C 699.905204 328.611257 700.100335 329.082345 700.447622 329.429631 
C 700.794908 329.776918 701.265996 329.972049 701.757133 329.972049 
z
" clip-path="url(#pd90c13d421)" style="fill: #ffffff; stroke: #2c404c; stroke-width: 0.336714; stroke-linejoin: miter"/>
   </g>
   <g id="patch_191">
    <path d="M 769.100009 329.972049 
C 769.591147 329.972049 770.062235 329.776918 770.409521 329.429631 
C 770.756808 329.082345 770.951939 328.611257 770.951939 328.12012 
C 770.951939 327.628982 770.756808 327.157894 770.409521 326.810608 
C 770.062235 326.463321 769.591147 326.26819 769.100009 326.26819 
C 768.608872 326.26819 768.137784 326.463321 767.790498 326.810608 
C 767.443211 327.157894 767.24808 327.628982 767.24808 328.12012 
C 767.24808 328.611257 767.443211 329.082345 767.790498 329.429631 
C 768.137784 329.776918 768.608872 329.972049 769.100009 329.972049 
z
" clip-path="url(#pd90c13d421)" style="fill: #ffffff; stroke: #2c404c; stroke-width: 0.336714; stroke-linejoin: miter"/>
   </g>
   <g id="patch_192">
    <path d="M 802.771448 271.653118 
C 803.262585 271.653118 803.733673 271.457987 804.080959 271.1107 
C 804.428246 270.763414 804.623377 270.292326 804.623377 269.801189 
C 804.623377 269.310052 804.428246 268.838964 804.080959 268.491677 
C 803.733673 268.144391 803.262585 267.94926 802.771448 267.94926 
C 802.28031 267.94926 801.809222 268.144391 801.461936 268.491677 
C 801.114649 268.838964 800.919518 269.310052 800.919518 269.801189 
C 800.919518 270.292326 801.114649 270.763414 801.461936 271.1107 
C 801.809222 271.457987 802.28031 271.653118 802.771448 271.653118 
z
" clip-path="url(#pd90c13d421)" style="fill: #ffffff; stroke: #2c404c; stroke-width: 0.336714; stroke-linejoin: miter"/>
   </g>
   <g id="patch_193">
    <path d="M 769.100009 213.334187 
C 769.591147 213.334187 770.062235 213.139056 770.409521 212.79177 
C 770.756808 212.444483 770.951939 211.973395 770.951939 211.482258 
C 770.951939 210.991121 770.756808 210.520033 770.409521 210.172747 
C 770.062235 209.82546 769.591147 209.630329 769.100009 209.630329 
C 768.608872 209.630329 768.137784 209.82546 767.790498 210.172747 
C 767.443211 210.520033 767.24808 210.991121 767.24808 211.482258 
C 767.24808 211.973395 767.443211 212.444483 767.790498 212.79177 
C 768.137784 213.139056 768.608872 213.334187 769.100009 213.334187 
z
" clip-path="url(#pd90c13d421)" style="fill: #ffffff; stroke: #2c404c; stroke-width: 0.336714; stroke-linejoin: miter"/>
   </g>
  </g>
  <g id="axes_13">
   <g id="patch_194">
    <path d="M 822.342857 335.989135 
L 974.571429 335.989135 
L 974.571429 203.613243 
L 822.342857 203.613243 
z
" style="fill: #ffffff"/>
   </g>
   <g id="patch_195">
    <path d="M 831.832831 267.883222 
L 864.494104 211.313897 
L 865.077306 211.650619 
L 832.416033 268.219943 
M 832.124432 268.051582 
L 832.124432 268.051582 
" clip-path="url(#p6987202c2a)" style="fill: #2c404c; opacity: 0.5"/>
   </g>
   <g id="patch_196">
    <path d="M 863.483938 326.538874 
L 830.822666 269.96955 
L 831.405868 269.632828 
L 864.067141 326.202152 
M 863.775539 326.370513 
L 863.775539 326.370513 
" clip-path="url(#p6987202c2a)" style="fill: #2c404c; opacity: 0.5"/>
   </g>
   <g id="patch_197">
    <path d="M 930.108295 328.456834 
L 864.785705 328.456834 
L 864.785705 327.783405 
L 930.108295 327.783405 
M 930.108295 328.12012 
L 930.108295 328.12012 
" clip-path="url(#p6987202c2a)" style="fill: #2c404c; opacity: 0.5"/>
   </g>
   <g id="patch_198">
    <path d="M 965.081455 271.719156 
L 932.420182 328.28848 
L 931.83698 327.951759 
L 964.498253 271.382434 
M 964.789854 271.550795 
L 964.789854 271.550795 
" clip-path="url(#p6987202c2a)" style="fill: #2c404c; opacity: 0.5"/>
   </g>
   <g id="patch_199">
    <path d="M 933.430347 213.063504 
L 966.09162 269.632828 
L 965.508418 269.96955 
L 932.847145 213.400225 
M 933.138746 213.231865 
L 933.138746 213.231865 
" clip-path="url(#p6987202c2a)" style="fill: #2c404c; opacity: 0.5"/>
   </g>
   <g id="patch_200">
    <path d="M 930.108295 211.818973 
L 864.785705 211.818973 
L 864.785705 211.145544 
L 930.108295 211.145544 
M 930.108295 211.482258 
L 930.108295 211.482258 
" clip-path="url(#p6987202c2a)" style="fill: #2c404c; opacity: 0.5"/>
   </g>
   <g id="patch_201">
    <path d="M 930.715656 213.07559 
L 831.450974 270.3844 
L 830.77756 269.217978 
L 930.042242 211.909168 
M 930.378949 212.492379 
L 930.378949 212.492379 
" clip-path="url(#p6987202c2a)" style="fill: #ffc0cb"/>
   </g>
   <g id="patch_202">
    <path d="M 963.779733 270.474618 
L 831.114267 270.474618 
L 831.114267 269.12776 
L 963.779733 269.12776 
M 963.779733 269.801189 
L 963.779733 269.801189 
" clip-path="url(#p6987202c2a)" style="fill: #ffc0cb"/>
   </g>
   <g id="patch_203">
    <path d="M 930.042242 327.693209 
L 830.77756 270.3844 
L 831.450974 269.217978 
L 930.715656 326.526788 
M 930.378949 327.109999 
L 930.378949 327.109999 
" clip-path="url(#p6987202c2a)" style="fill: #ffc0cb"/>
   </g>
   <g id="matplotlib.axis_25"/>
   <g id="matplotlib.axis_26"/>
   <g id="patch_204">
    <path d="M 864.785705 213.334187 
C 865.276842 213.334187 865.74793 213.139056 866.095216 212.79177 
C 866.442503 212.444483 866.637634 211.973395 866.637634 211.482258 
C 866.637634 210.991121 866.442503 210.520033 866.095216 210.172747 
C 865.74793 209.82546 865.276842 209.630329 864.785705 209.630329 
C 864.294567 209.630329 863.82348 209.82546 863.476193 210.172747 
C 863.128907 210.520033 862.933776 210.991121 862.933776 211.482258 
C 862.933776 211.973395 863.128907 212.444483 863.476193 212.79177 
C 863.82348 213.139056 864.294567 213.334187 864.785705 213.334187 
z
" clip-path="url(#p6987202c2a)" style="fill: #ffffff; stroke: #2c404c; stroke-width: 0.336714; stroke-linejoin: miter"/>
   </g>
   <g id="patch_205">
    <path d="M 831.114267 271.653118 
C 831.605404 271.653118 832.076492 271.457987 832.423778 271.1107 
C 832.771065 270.763414 832.966196 270.292326 832.966196 269.801189 
C 832.966196 269.310052 832.771065 268.838964 832.423778 268.491677 
C 832.076492 268.144391 831.605404 267.94926 831.114267 267.94926 
C 830.623129 267.94926 830.152042 268.144391 829.804755 268.491677 
C 829.457469 268.838964 829.262338 269.310052 829.262338 269.801189 
C 829.262338 270.292326 829.457469 270.763414 829.804755 271.1107 
C 830.152042 271.457987 830.623129 271.653118 831.114267 271.653118 
z
" clip-path="url(#p6987202c2a)" style="fill: #ffffff; stroke: #2c404c; stroke-width: 0.336714; stroke-linejoin: miter"/>
   </g>
   <g id="patch_206">
    <path d="M 864.785705 329.972049 
C 865.276842 329.972049 865.74793 329.776918 866.095216 329.429631 
C 866.442503 329.082345 866.637634 328.611257 866.637634 328.12012 
C 866.637634 327.628982 866.442503 327.157894 866.095216 326.810608 
C 865.74793 326.463321 865.276842 326.26819 864.785705 326.26819 
C 864.294567 326.26819 863.82348 326.463321 863.476193 326.810608 
C 863.128907 327.157894 862.933776 327.628982 862.933776 328.12012 
C 862.933776 328.611257 863.128907 329.082345 863.476193 329.429631 
C 863.82348 329.776918 864.294567 329.972049 864.785705 329.972049 
z
" clip-path="url(#p6987202c2a)" style="fill: #ffffff; stroke: #2c404c; stroke-width: 0.336714; stroke-linejoin: miter"/>
   </g>
   <g id="patch_207">
    <path d="M 932.128581 329.972049 
C 932.619718 329.972049 933.090806 329.776918 933.438093 329.429631 
C 933.785379 329.082345 933.98051 328.611257 933.98051 328.12012 
C 933.98051 327.628982 933.785379 327.157894 933.438093 326.810608 
C 933.090806 326.463321 932.619718 326.26819 932.128581 326.26819 
C 931.637444 326.26819 931.166356 326.463321 930.819069 326.810608 
C 930.471783 327.157894 930.276652 327.628982 930.276652 328.12012 
C 930.276652 328.611257 930.471783 329.082345 930.819069 329.429631 
C 931.166356 329.776918 931.637444 329.972049 932.128581 329.972049 
z
" clip-path="url(#p6987202c2a)" style="fill: #ffffff; stroke: #2c404c; stroke-width: 0.336714; stroke-linejoin: miter"/>
   </g>
   <g id="patch_208">
    <path d="M 965.800019 271.653118 
C 966.291156 271.653118 966.762244 271.457987 967.109531 271.1107 
C 967.456817 270.763414 967.651948 270.292326 967.651948 269.801189 
C 967.651948 269.310052 967.456817 268.838964 967.109531 268.491677 
C 966.762244 268.144391 966.291156 267.94926 965.800019 267.94926 
C 965.308882 267.94926 964.837794 268.144391 964.490507 268.491677 
C 964.143221 268.838964 963.94809 269.310052 963.94809 269.801189 
C 963.94809 270.292326 964.143221 270.763414 964.490507 271.1107 
C 964.837794 271.457987 965.308882 271.653118 965.800019 271.653118 
z
" clip-path="url(#p6987202c2a)" style="fill: #ffffff; stroke: #2c404c; stroke-width: 0.336714; stroke-linejoin: miter"/>
   </g>
   <g id="patch_209">
    <path d="M 932.128581 213.334187 
C 932.619718 213.334187 933.090806 213.139056 933.438093 212.79177 
C 933.785379 212.444483 933.98051 211.973395 933.98051 211.482258 
C 933.98051 210.991121 933.785379 210.520033 933.438093 210.172747 
C 933.090806 209.82546 932.619718 209.630329 932.128581 209.630329 
C 931.637444 209.630329 931.166356 209.82546 930.819069 210.172747 
C 930.471783 210.520033 930.276652 210.991121 930.276652 211.482258 
C 930.276652 211.973395 930.471783 212.444483 930.819069 212.79177 
C 931.166356 213.139056 931.637444 213.334187 932.128581 213.334187 
z
" clip-path="url(#p6987202c2a)" style="fill: #ffffff; stroke: #2c404c; stroke-width: 0.336714; stroke-linejoin: miter"/>
   </g>
  </g>
  <g id="axes_14">
   <g id="patch_210">
    <path d="M 985.371429 335.989135 
L 1137.6 335.989135 
L 1137.6 203.613243 
L 985.371429 203.613243 
z
" style="fill: #ffffff"/>
   </g>
   <g id="patch_211">
    <path d="M 994.861402 267.883222 
L 1027.522675 211.313897 
L 1028.105877 211.650619 
L 995.444605 268.219943 
M 995.153004 268.051582 
L 995.153004 268.051582 
" clip-path="url(#p3dc68da224)" style="fill: #2c404c; opacity: 0.5"/>
   </g>
   <g id="patch_212">
    <path d="M 1026.51251 326.538874 
L 993.851237 269.96955 
L 994.434439 269.632828 
L 1027.095712 326.202152 
M 1026.804111 326.370513 
L 1026.804111 326.370513 
" clip-path="url(#p3dc68da224)" style="fill: #2c404c; opacity: 0.5"/>
   </g>
   <g id="patch_213">
    <path d="M 1093.136866 328.456834 
L 1027.814276 328.456834 
L 1027.814276 327.783405 
L 1093.136866 327.783405 
M 1093.136866 328.12012 
L 1093.136866 328.12012 
" clip-path="url(#p3dc68da224)" style="fill: #2c404c; opacity: 0.5"/>
   </g>
   <g id="patch_214">
    <path d="M 1128.110026 271.719156 
L 1095.448753 328.28848 
L 1094.865551 327.951759 
L 1127.526824 271.382434 
M 1127.818425 271.550795 
L 1127.818425 271.550795 
" clip-path="url(#p3dc68da224)" style="fill: #2c404c; opacity: 0.5"/>
   </g>
   <g id="patch_215">
    <path d="M 1096.458919 213.063504 
L 1129.120191 269.632828 
L 1128.536989 269.96955 
L 1095.875717 213.400225 
M 1096.167318 213.231865 
L 1096.167318 213.231865 
" clip-path="url(#p3dc68da224)" style="fill: #2c404c; opacity: 0.5"/>
   </g>
   <g id="patch_216">
    <path d="M 1093.136866 211.818973 
L 1027.814276 211.818973 
L 1027.814276 211.145544 
L 1093.136866 211.145544 
M 1093.136866 211.482258 
L 1093.136866 211.482258 
" clip-path="url(#p3dc68da224)" style="fill: #2c404c; opacity: 0.5"/>
   </g>
   <g id="patch_217">
    <path d="M 1095.830581 213.502544 
L 1095.830581 328.12012 
L 1094.483724 328.12012 
L 1094.483724 213.502544 
M 1095.157152 213.502544 
L 1095.157152 213.502544 
" clip-path="url(#p3dc68da224)" style="fill: #ffc0cb"/>
   </g>
   <g id="patch_218">
    <path d="M 1093.563785 326.707235 
L 1027.231074 211.81898 
L 1028.397478 211.145536 
L 1094.730189 326.033791 
M 1094.146987 326.370513 
L 1094.146987 326.370513 
" clip-path="url(#p3dc68da224)" style="fill: #ffc0cb"/>
   </g>
   <g id="patch_219">
    <path d="M 1027.140847 326.099833 
L 1027.140847 211.482258 
L 1028.487705 211.482258 
L 1028.487705 326.099833 
M 1027.814276 326.099833 
L 1027.814276 326.099833 
" clip-path="url(#p3dc68da224)" style="fill: #ffc0cb"/>
   </g>
   <g id="matplotlib.axis_27"/>
   <g id="matplotlib.axis_28"/>
   <g id="patch_220">
    <path d="M 1027.814276 213.334187 
C 1028.305414 213.334187 1028.776501 213.139056 1029.123788 212.79177 
C 1029.471074 212.444483 1029.666205 211.973395 1029.666205 211.482258 
C 1029.666205 210.991121 1029.471074 210.520033 1029.123788 210.172747 
C 1028.776501 209.82546 1028.305414 209.630329 1027.814276 209.630329 
C 1027.323139 209.630329 1026.852051 209.82546 1026.504765 210.172747 
C 1026.157478 210.520033 1025.962347 210.991121 1025.962347 211.482258 
C 1025.962347 211.973395 1026.157478 212.444483 1026.504765 212.79177 
C 1026.852051 213.139056 1027.323139 213.334187 1027.814276 213.334187 
z
" clip-path="url(#p3dc68da224)" style="fill: #ffffff; stroke: #2c404c; stroke-width: 0.336714; stroke-linejoin: miter"/>
   </g>
   <g id="patch_221">
    <path d="M 994.142838 271.653118 
C 994.633976 271.653118 995.105063 271.457987 995.45235 271.1107 
C 995.799636 270.763414 995.994767 270.292326 995.994767 269.801189 
C 995.994767 269.310052 995.799636 268.838964 995.45235 268.491677 
C 995.105063 268.144391 994.633976 267.94926 994.142838 267.94926 
C 993.651701 267.94926 993.180613 268.144391 992.833327 268.491677 
C 992.48604 268.838964 992.290909 269.310052 992.290909 269.801189 
C 992.290909 270.292326 992.48604 270.763414 992.833327 271.1107 
C 993.180613 271.457987 993.651701 271.653118 994.142838 271.653118 
z
" clip-path="url(#p3dc68da224)" style="fill: #ffffff; stroke: #2c404c; stroke-width: 0.336714; stroke-linejoin: miter"/>
   </g>
   <g id="patch_222">
    <path d="M 1027.814276 329.972049 
C 1028.305414 329.972049 1028.776501 329.776918 1029.123788 329.429631 
C 1029.471074 329.082345 1029.666205 328.611257 1029.666205 328.12012 
C 1029.666205 327.628982 1029.471074 327.157894 1029.123788 326.810608 
C 1028.776501 326.463321 1028.305414 326.26819 1027.814276 326.26819 
C 1027.323139 326.26819 1026.852051 326.463321 1026.504765 326.810608 
C 1026.157478 327.157894 1025.962347 327.628982 1025.962347 328.12012 
C 1025.962347 328.611257 1026.157478 329.082345 1026.504765 329.429631 
C 1026.852051 329.776918 1027.323139 329.972049 1027.814276 329.972049 
z
" clip-path="url(#p3dc68da224)" style="fill: #ffffff; stroke: #2c404c; stroke-width: 0.336714; stroke-linejoin: miter"/>
   </g>
   <g id="patch_223">
    <path d="M 1095.157152 329.972049 
C 1095.64829 329.972049 1096.119377 329.776918 1096.466664 329.429631 
C 1096.81395 329.082345 1097.009081 328.611257 1097.009081 328.12012 
C 1097.009081 327.628982 1096.81395 327.157894 1096.466664 326.810608 
C 1096.119377 326.463321 1095.64829 326.26819 1095.157152 326.26819 
C 1094.666015 326.26819 1094.194927 326.463321 1093.847641 326.810608 
C 1093.500354 327.157894 1093.305223 327.628982 1093.305223 328.12012 
C 1093.305223 328.611257 1093.500354 329.082345 1093.847641 329.429631 
C 1094.194927 329.776918 1094.666015 329.972049 1095.157152 329.972049 
z
" clip-path="url(#p3dc68da224)" style="fill: #ffffff; stroke: #2c404c; stroke-width: 0.336714; stroke-linejoin: miter"/>
   </g>
   <g id="patch_224">
    <path d="M 1128.82859 271.653118 
C 1129.319728 271.653118 1129.790815 271.457987 1130.138102 271.1107 
C 1130.485389 270.763414 1130.680519 270.292326 1130.680519 269.801189 
C 1130.680519 269.310052 1130.485389 268.838964 1130.138102 268.491677 
C 1129.790815 268.144391 1129.319728 267.94926 1128.82859 267.94926 
C 1128.337453 267.94926 1127.866365 268.144391 1127.519079 268.491677 
C 1127.171792 268.838964 1126.976661 269.310052 1126.976661 269.801189 
C 1126.976661 270.292326 1127.171792 270.763414 1127.519079 271.1107 
C 1127.866365 271.457987 1128.337453 271.653118 1128.82859 271.653118 
z
" clip-path="url(#p3dc68da224)" style="fill: #ffffff; stroke: #2c404c; stroke-width: 0.336714; stroke-linejoin: miter"/>
   </g>
   <g id="patch_225">
    <path d="M 1095.157152 213.334187 
C 1095.64829 213.334187 1096.119377 213.139056 1096.466664 212.79177 
C 1096.81395 212.444483 1097.009081 211.973395 1097.009081 211.482258 
C 1097.009081 210.991121 1096.81395 210.520033 1096.466664 210.172747 
C 1096.119377 209.82546 1095.64829 209.630329 1095.157152 209.630329 
C 1094.666015 209.630329 1094.194927 209.82546 1093.847641 210.172747 
C 1093.500354 210.520033 1093.305223 210.991121 1093.305223 211.482258 
C 1093.305223 211.973395 1093.500354 212.444483 1093.847641 212.79177 
C 1094.194927 213.139056 1094.666015 213.334187 1095.157152 213.334187 
z
" clip-path="url(#p3dc68da224)" style="fill: #ffffff; stroke: #2c404c; stroke-width: 0.336714; stroke-linejoin: miter"/>
   </g>
  </g>
 </g>
 <defs>
  <clipPath id="p133cebf868">
   <rect x="7.2" y="7.2" width="152.228571" height="132.375892"/>
  </clipPath>
  <clipPath id="p47fe367b39">
   <rect x="170.228571" y="7.2" width="152.228571" height="132.375892"/>
  </clipPath>
  <clipPath id="pbc7b2a53cd">
   <rect x="333.257143" y="7.2" width="152.228571" height="132.375892"/>
  </clipPath>
  <clipPath id="p3dcd8b0e1d">
   <rect x="496.285714" y="7.2" width="152.228571" height="132.375892"/>
  </clipPath>
  <clipPath id="p4b075e6f36">
   <rect x="659.314286" y="7.2" width="152.228571" height="132.375892"/>
  </clipPath>
  <clipPath id="p3534caedfc">
   <rect x="822.342857" y="7.2" width="152.228571" height="132.375892"/>
  </clipPath>
  <clipPath id="pf787d16489">
   <rect x="985.371429" y="7.2" width="152.228571" height="132.375892"/>
  </clipPath>
  <clipPath id="pcae7e08d68">
   <rect x="7.2" y="203.613243" width="152.228571" height="132.375892"/>
  </clipPath>
  <clipPath id="p6d7b783ca0">
   <rect x="170.228571" y="203.613243" width="152.228571" height="132.375892"/>
  </clipPath>
  <clipPath id="pd2ce68fc70">
   <rect x="333.257143" y="203.613243" width="152.228571" height="132.375892"/>
  </clipPath>
  <clipPath id="p92134967e5">
   <rect x="496.285714" y="203.613243" width="152.228571" height="132.375892"/>
  </clipPath>
  <clipPath id="pd90c13d421">
   <rect x="659.314286" y="203.613243" width="152.228571" height="132.375892"/>
  </clipPath>
  <clipPath id="p6987202c2a">
   <rect x="822.342857" y="203.613243" width="152.228571" height="132.375892"/>
  </clipPath>
  <clipPath id="p3dc68da224">
   <rect x="985.371429" y="203.613243" width="152.228571" height="132.375892"/>
  </clipPath>
 </defs>
</svg>
