<?xml version="1.0" encoding="utf-8" standalone="no"?>
<!DOCTYPE svg PUBLIC "-//W3C//DTD SVG 1.1//EN"
  "http://www.w3.org/Graphics/SVG/1.1/DTD/svg11.dtd">
<svg xmlns:xlink="http://www.w3.org/1999/xlink" width="1144.8pt" height="351.653391pt" viewBox="0 0 1144.8 351.653391" xmlns="http://www.w3.org/2000/svg" version="1.1">
 <metadata>
  <rdf:RDF xmlns:dc="http://purl.org/dc/elements/1.1/" xmlns:cc="http://creativecommons.org/ns#" xmlns:rdf="http://www.w3.org/1999/02/22-rdf-syntax-ns#">
   <cc:Work>
    <dc:type rdf:resource="http://purl.org/dc/dcmitype/StillImage"/>
    <dc:date>2024-05-09T22:01:29.930913</dc:date>
    <dc:format>image/svg+xml</dc:format>
    <dc:creator>
     <cc:Agent>
      <dc:title>Matplotlib v3.8.4, https://matplotlib.org/</dc:title>
     </cc:Agent>
    </dc:creator>
   </cc:Work>
  </rdf:RDF>
 </metadata>
 <defs>
  <style type="text/css">*{stroke-linejoin: round; stroke-linecap: butt}</style>
 </defs>
 <g id="figure_1">
  <g id="patch_1">
   <path d="M 0 351.653391 
L 1144.8 351.653391 
L 1144.8 0 
L 0 0 
z
" style="fill: #ffffff"/>
  </g>
  <g id="axes_1">
   <g id="patch_2">
    <path d="M 7.2 144.193641 
L 159.428571 144.193641 
L 159.428571 7.2 
L 7.2 7.2 
z
" style="fill: #ffffff"/>
   </g>
   <g id="patch_3">
    <path d="M 29.416359 103.638589 
L 31.3731 120.584476 
L 31.028116 120.624312 
L 29.071375 103.678424 
M 29.243867 103.658506 
L 29.243867 103.658506 
" clip-path="url(#p5ac7e634c5)" style="fill: none; opacity: 0"/>
   </g>
   <g id="patch_4">
    <path d="M 100.525437 90.849397 
L 83.46695 90.849397 
L 83.46695 90.502121 
L 100.525437 90.502121 
M 100.525437 90.675759 
L 100.525437 90.675759 
" clip-path="url(#p5ac7e634c5)" style="fill: none; opacity: 0"/>
   </g>
   <g id="patch_5">
    <path d="M 94.884848 136.963234 
L 100.468546 120.844479 
L 100.796691 120.958152 
L 95.212993 137.076907 
M 95.048921 137.020071 
L 95.048921 137.020071 
" clip-path="url(#p5ac7e634c5)" style="fill: none; opacity: 0"/>
   </g>
   <g id="patch_6">
    <path d="M 60.476385 104.437215 
L 66.060083 120.55597 
L 65.731938 120.669643 
L 60.14824 104.550888 
M 60.312312 104.494051 
L 60.312312 104.494051 
" clip-path="url(#p5ac7e634c5)" style="fill: none; opacity: 0"/>
   </g>
   <g id="patch_7">
    <path d="M 133.263706 137.833678 
L 135.220447 120.88779 
L 135.565432 120.927626 
L 133.60869 137.873514 
M 133.436198 137.853596 
L 133.436198 137.853596 
" clip-path="url(#p5ac7e634c5)" style="fill: none; opacity: 0"/>
   </g>
   <g id="matplotlib.axis_1"/>
   <g id="matplotlib.axis_2"/>
   <g id="patch_8">
    <path d="M 31.222839 137.858865 
C 35.758703 137.858865 40.1094 136.056747 43.31674 132.849407 
C 46.52408 129.642067 48.326197 125.29137 48.326197 120.755506 
C 48.326197 116.219642 46.52408 111.868945 43.31674 108.661605 
C 40.1094 105.454266 35.758703 103.652148 31.222839 103.652148 
C 26.686975 103.652148 22.336278 105.454266 19.128938 108.661605 
C 15.921598 111.868945 14.119481 116.219642 14.119481 120.755506 
C 14.119481 125.29137 15.921598 129.642067 19.128938 132.849407 
C 22.336278 136.056747 26.686975 137.858865 31.222839 137.858865 
z
" clip-path="url(#p5ac7e634c5)" style="fill: #ffffff; stroke: #2c404c; stroke-width: 0.520914; stroke-linejoin: miter"/>
   </g>
   <g id="patch_9">
    <path d="M 83.314286 107.783868 
C 87.850149 107.783868 92.200846 105.98175 95.408186 102.77441 
C 98.615526 99.56707 100.417644 95.216373 100.417644 90.680509 
C 100.417644 86.144646 98.615526 81.793949 95.408186 78.586609 
C 92.200846 75.379269 87.850149 73.577151 83.314286 73.577151 
C 78.778422 73.577151 74.427725 75.379269 71.220385 78.586609 
C 68.013045 81.793949 66.210927 86.144646 66.210927 90.680509 
C 66.210927 95.216373 68.013045 99.56707 71.220385 102.77441 
C 74.427725 105.98175 78.778422 107.783868 83.314286 107.783868 
z
" clip-path="url(#p5ac7e634c5)" style="fill: #ffffff; stroke: #2c404c; stroke-width: 0.520914; stroke-linejoin: miter"/>
   </g>
   <g id="patch_10">
    <path d="M 100.678101 137.858865 
C 105.213965 137.858865 109.564662 136.056747 112.772002 132.849407 
C 115.979342 129.642067 117.78146 125.29137 117.78146 120.755506 
C 117.78146 116.219642 115.979342 111.868945 112.772002 108.661605 
C 109.564662 105.454266 105.213965 103.652148 100.678101 103.652148 
C 96.142238 103.652148 91.791541 105.454266 88.584201 108.661605 
C 85.376861 111.868945 83.574743 116.219642 83.574743 120.755506 
C 83.574743 125.29137 85.376861 129.642067 88.584201 132.849407 
C 91.791541 136.056747 96.142238 137.858865 100.678101 137.858865 
z
" clip-path="url(#p5ac7e634c5)" style="fill: #ffffff; stroke: #2c404c; stroke-width: 0.520914; stroke-linejoin: miter"/>
   </g>
   <g id="patch_11">
    <path d="M 65.95047 137.858865 
C 70.486334 137.858865 74.837031 136.056747 78.044371 132.849407 
C 81.251711 129.642067 83.053828 125.29137 83.053828 120.755506 
C 83.053828 116.219642 81.251711 111.868945 78.044371 108.661605 
C 74.837031 105.454266 70.486334 103.652148 65.95047 103.652148 
C 61.414606 103.652148 57.063909 105.454266 53.856569 108.661605 
C 50.649229 111.868945 48.847112 116.219642 48.847112 120.755506 
C 48.847112 125.29137 50.649229 129.642067 53.856569 132.849407 
C 57.063909 136.056747 61.414606 137.858865 65.95047 137.858865 
z
" clip-path="url(#p5ac7e634c5)" style="fill: #ffffff; stroke: #2c404c; stroke-width: 0.520914; stroke-linejoin: miter"/>
   </g>
   <g id="patch_12">
    <path d="M 135.405733 137.858865 
C 139.941596 137.858865 144.292293 136.056747 147.499633 132.849407 
C 150.706973 129.642067 152.509091 125.29137 152.509091 120.755506 
C 152.509091 116.219642 150.706973 111.868945 147.499633 108.661605 
C 144.292293 105.454266 139.941596 103.652148 135.405733 103.652148 
C 130.869869 103.652148 126.519172 105.454266 123.311832 108.661605 
C 120.104492 111.868945 118.302374 116.219642 118.302374 120.755506 
C 118.302374 125.29137 120.104492 129.642067 123.311832 132.849407 
C 126.519172 136.056747 130.869869 137.858865 135.405733 137.858865 
z
" clip-path="url(#p5ac7e634c5)" style="fill: #ffffff; stroke: #2c404c; stroke-width: 0.520914; stroke-linejoin: miter"/>
   </g>
  </g>
  <g id="axes_2">
   <g id="patch_13">
    <path d="M 170.228571 144.193641 
L 322.457143 144.193641 
L 322.457143 7.2 
L 170.228571 7.2 
z
" style="fill: #ffffff"/>
   </g>
   <g id="patch_14">
    <path d="M 244.613403 53.406972 
L 229.189216 60.693014 
L 229.040887 60.379008 
L 244.465074 53.092966 
M 244.539238 53.249969 
L 244.539238 53.249969 
" clip-path="url(#pb6d827adfc)" style="fill: none; opacity: 0"/>
   </g>
   <g id="patch_15">
    <path d="M 279.196763 68.109469 
L 263.772576 60.823426 
L 263.920905 60.509421 
L 279.345092 67.795463 
M 279.270927 67.952466 
L 279.270927 67.952466 
" clip-path="url(#pb6d827adfc)" style="fill: none; opacity: 0"/>
   </g>
   <g id="patch_16">
    <path d="M 284.157244 107.613441 
L 280.933495 90.86234 
L 281.274513 90.796711 
L 284.498263 107.547812 
M 284.327753 107.580627 
L 284.327753 107.580627 
" clip-path="url(#pb6d827adfc)" style="fill: none; opacity: 0"/>
   </g>
   <g id="patch_17">
    <path d="M 263.554008 90.849397 
L 246.495522 90.849397 
L 246.495522 90.502121 
L 263.554008 90.502121 
M 263.554008 90.675759 
L 263.554008 90.675759 
" clip-path="url(#pb6d827adfc)" style="fill: none; opacity: 0"/>
   </g>
   <g id="patch_18">
    <path d="M 215.033671 73.811411 
L 211.809922 90.562512 
L 211.468903 90.496883 
L 214.692652 73.745782 
M 214.863162 73.778597 
L 214.863162 73.778597 
" clip-path="url(#pb6d827adfc)" style="fill: none; opacity: 0"/>
   </g>
   <g id="patch_19">
    <path d="M 291.229794 136.387118 
L 298.217698 120.82559 
L 298.5345 120.967849 
L 291.546596 136.529377 
M 291.388195 136.458248 
L 291.388195 136.458248 
" clip-path="url(#pb6d827adfc)" style="fill: none; opacity: 0"/>
   </g>
   <g id="patch_20">
    <path d="M 249.78623 130.878427 
L 263.483426 120.710891 
L 263.690416 120.989738 
L 249.993221 131.157274 
M 249.889725 131.01785 
L 249.889725 131.01785 
" clip-path="url(#pb6d827adfc)" style="fill: none; opacity: 0"/>
   </g>
   <g id="patch_21">
    <path d="M 215.259927 110.361367 
L 228.957123 120.528902 
L 228.750132 120.80775 
L 215.052936 110.640214 
M 215.156432 110.50079 
L 215.156432 110.50079 
" clip-path="url(#pb6d827adfc)" style="fill: none; opacity: 0"/>
   </g>
   <g id="patch_22">
    <path d="M 187.355035 104.985527 
L 194.34294 120.547055 
L 194.026138 120.689314 
L 187.038234 105.127786 
M 187.196635 105.056656 
L 187.196635 105.056656 
" clip-path="url(#pb6d827adfc)" style="fill: none; opacity: 0"/>
   </g>
   <g id="matplotlib.axis_3"/>
   <g id="matplotlib.axis_4"/>
   <g id="patch_23">
    <path d="M 228.979042 77.708871 
C 233.514905 77.708871 237.865602 75.906753 241.072942 72.699413 
C 244.280282 69.492073 246.0824 65.141376 246.0824 60.605513 
C 246.0824 56.069649 244.280282 51.718952 241.072942 48.511612 
C 237.865602 45.304272 233.514905 43.502154 228.979042 43.502154 
C 224.443178 43.502154 220.092481 45.304272 216.885141 48.511612 
C 213.677801 51.718952 211.875683 56.069649 211.875683 60.605513 
C 211.875683 65.141376 213.677801 69.492073 216.885141 72.699413 
C 220.092481 75.906753 224.443178 77.708871 228.979042 77.708871 
z
" clip-path="url(#pb6d827adfc)" style="fill: #ffffff; stroke: #2c404c; stroke-width: 0.520914; stroke-linejoin: miter"/>
   </g>
   <g id="patch_24">
    <path d="M 263.706673 77.708871 
C 268.242536 77.708871 272.593233 75.906753 275.800573 72.699413 
C 279.007913 69.492073 280.810031 65.141376 280.810031 60.605513 
C 280.810031 56.069649 279.007913 51.718952 275.800573 48.511612 
C 272.593233 45.304272 268.242536 43.502154 263.706673 43.502154 
C 259.170809 43.502154 254.820112 45.304272 251.612772 48.511612 
C 248.405432 51.718952 246.603314 56.069649 246.603314 60.605513 
C 246.603314 65.141376 248.405432 69.492073 251.612772 72.699413 
C 254.820112 75.906753 259.170809 77.708871 263.706673 77.708871 
z
" clip-path="url(#pb6d827adfc)" style="fill: #ffffff; stroke: #2c404c; stroke-width: 0.520914; stroke-linejoin: miter"/>
   </g>
   <g id="patch_25">
    <path d="M 281.070488 107.783868 
C 285.606352 107.783868 289.957049 105.98175 293.164389 102.77441 
C 296.371729 99.56707 298.173847 95.216373 298.173847 90.680509 
C 298.173847 86.144646 296.371729 81.793949 293.164389 78.586609 
C 289.957049 75.379269 285.606352 73.577151 281.070488 73.577151 
C 276.534625 73.577151 272.183928 75.379269 268.976588 78.586609 
C 265.769248 81.793949 263.96713 86.144646 263.96713 90.680509 
C 263.96713 95.216373 265.769248 99.56707 268.976588 102.77441 
C 272.183928 105.98175 276.534625 107.783868 281.070488 107.783868 
z
" clip-path="url(#pb6d827adfc)" style="fill: #ffffff; stroke: #2c404c; stroke-width: 0.520914; stroke-linejoin: miter"/>
   </g>
   <g id="patch_26">
    <path d="M 246.342857 107.783868 
C 250.878721 107.783868 255.229418 105.98175 258.436758 102.77441 
C 261.644098 99.56707 263.446216 95.216373 263.446216 90.680509 
C 263.446216 86.144646 261.644098 81.793949 258.436758 78.586609 
C 255.229418 75.379269 250.878721 73.577151 246.342857 73.577151 
C 241.806993 73.577151 237.456296 75.379269 234.248956 78.586609 
C 231.041617 81.793949 229.239499 86.144646 229.239499 90.680509 
C 229.239499 95.216373 231.041617 99.56707 234.248956 102.77441 
C 237.456296 105.98175 241.806993 107.783868 246.342857 107.783868 
z
" clip-path="url(#pb6d827adfc)" style="fill: #ffffff; stroke: #2c404c; stroke-width: 0.520914; stroke-linejoin: miter"/>
   </g>
   <g id="patch_27">
    <path d="M 211.615226 107.783868 
C 216.15109 107.783868 220.501787 105.98175 223.709127 102.77441 
C 226.916467 99.56707 228.718584 95.216373 228.718584 90.680509 
C 228.718584 86.144646 226.916467 81.793949 223.709127 78.586609 
C 220.501787 75.379269 216.15109 73.577151 211.615226 73.577151 
C 207.079362 73.577151 202.728665 75.379269 199.521325 78.586609 
C 196.313985 81.793949 194.511868 86.144646 194.511868 90.680509 
C 194.511868 95.216373 196.313985 99.56707 199.521325 102.77441 
C 202.728665 105.98175 207.079362 107.783868 211.615226 107.783868 
z
" clip-path="url(#pb6d827adfc)" style="fill: #ffffff; stroke: #2c404c; stroke-width: 0.520914; stroke-linejoin: miter"/>
   </g>
   <g id="patch_28">
    <path d="M 298.434304 137.858865 
C 302.970168 137.858865 307.320865 136.056747 310.528205 132.849407 
C 313.735545 129.642067 315.537662 125.29137 315.537662 120.755506 
C 315.537662 116.219642 313.735545 111.868945 310.528205 108.661605 
C 307.320865 105.454266 302.970168 103.652148 298.434304 103.652148 
C 293.89844 103.652148 289.547743 105.454266 286.340403 108.661605 
C 283.133063 111.868945 281.330946 116.219642 281.330946 120.755506 
C 281.330946 125.29137 283.133063 129.642067 286.340403 132.849407 
C 289.547743 136.056747 293.89844 137.858865 298.434304 137.858865 
z
" clip-path="url(#pb6d827adfc)" style="fill: #ffffff; stroke: #2c404c; stroke-width: 0.520914; stroke-linejoin: miter"/>
   </g>
   <g id="patch_29">
    <path d="M 263.706673 137.858865 
C 268.242536 137.858865 272.593233 136.056747 275.800573 132.849407 
C 279.007913 129.642067 280.810031 125.29137 280.810031 120.755506 
C 280.810031 116.219642 279.007913 111.868945 275.800573 108.661605 
C 272.593233 105.454266 268.242536 103.652148 263.706673 103.652148 
C 259.170809 103.652148 254.820112 105.454266 251.612772 108.661605 
C 248.405432 111.868945 246.603314 116.219642 246.603314 120.755506 
C 246.603314 125.29137 248.405432 129.642067 251.612772 132.849407 
C 254.820112 136.056747 259.170809 137.858865 263.706673 137.858865 
z
" clip-path="url(#pb6d827adfc)" style="fill: #ffffff; stroke: #2c404c; stroke-width: 0.520914; stroke-linejoin: miter"/>
   </g>
   <g id="patch_30">
    <path d="M 228.979042 137.858865 
C 233.514905 137.858865 237.865602 136.056747 241.072942 132.849407 
C 244.280282 129.642067 246.0824 125.29137 246.0824 120.755506 
C 246.0824 116.219642 244.280282 111.868945 241.072942 108.661605 
C 237.865602 105.454266 233.514905 103.652148 228.979042 103.652148 
C 224.443178 103.652148 220.092481 105.454266 216.885141 108.661605 
C 213.677801 111.868945 211.875683 116.219642 211.875683 120.755506 
C 211.875683 125.29137 213.677801 129.642067 216.885141 132.849407 
C 220.092481 136.056747 224.443178 137.858865 228.979042 137.858865 
z
" clip-path="url(#pb6d827adfc)" style="fill: #ffffff; stroke: #2c404c; stroke-width: 0.520914; stroke-linejoin: miter"/>
   </g>
   <g id="patch_31">
    <path d="M 194.25141 137.858865 
C 198.787274 137.858865 203.137971 136.056747 206.345311 132.849407 
C 209.552651 129.642067 211.354769 125.29137 211.354769 120.755506 
C 211.354769 116.219642 209.552651 111.868945 206.345311 108.661605 
C 203.137971 105.454266 198.787274 103.652148 194.25141 103.652148 
C 189.715547 103.652148 185.36485 105.454266 182.15751 108.661605 
C 178.95017 111.868945 177.148052 116.219642 177.148052 120.755506 
C 177.148052 125.29137 178.95017 129.642067 182.15751 132.849407 
C 185.36485 136.056747 189.715547 137.858865 194.25141 137.858865 
z
" clip-path="url(#pb6d827adfc)" style="fill: #ffffff; stroke: #2c404c; stroke-width: 0.520914; stroke-linejoin: miter"/>
   </g>
  </g>
  <g id="axes_3">
   <g id="patch_32">
    <path d="M 333.257143 144.193641 
L 485.485714 144.193641 
L 485.485714 7.2 
L 333.257143 7.2 
z
" style="fill: #ffffff"/>
   </g>
   <g id="patch_33">
    <path d="M 354.509069 103.768032 
L 357.420338 120.576258 
L 357.078156 120.635526 
L 354.166887 103.827299 
M 354.337978 103.797666 
L 354.337978 103.797666 
" clip-path="url(#pdfb484c316)" style="fill: none; opacity: 0"/>
   </g>
   <g id="patch_34">
    <path d="M 425.954208 86.069255 
L 409.564945 90.80043 
L 409.468628 90.466778 
L 425.857891 85.735603 
M 425.906049 85.902429 
L 425.906049 85.902429 
" clip-path="url(#pdfb484c316)" style="fill: none; opacity: 0"/>
   </g>
   <g id="patch_35">
    <path d="M 453.761893 104.924171 
L 444.047176 90.90218 
L 444.332636 90.704408 
L 454.047352 104.726399 
M 453.904622 104.825285 
L 453.904622 104.825285 
" clip-path="url(#pdfb484c316)" style="fill: none; opacity: 0"/>
   </g>
   <g id="patch_36">
    <path d="M 457.65587 137.541183 
L 461.265507 120.868976 
L 461.60492 120.942461 
L 457.995283 137.614668 
M 457.825577 137.577926 
L 457.825577 137.577926 
" clip-path="url(#pdfb484c316)" style="fill: none; opacity: 0"/>
   </g>
   <g id="patch_37">
    <path d="M 415.340237 133.655353 
L 426.507634 120.760347 
L 426.770151 120.987692 
L 415.602753 133.882698 
M 415.471495 133.769026 
L 415.471495 133.769026 
" clip-path="url(#pdfb484c316)" style="fill: none; opacity: 0"/>
   </g>
   <g id="patch_38">
    <path d="M 385.32358 104.89436 
L 392.101932 120.548302 
L 391.78325 120.686296 
L 385.004897 105.032354 
M 385.164239 104.963357 
L 385.164239 104.963357 
" clip-path="url(#pdfb484c316)" style="fill: none; opacity: 0"/>
   </g>
   <g id="matplotlib.axis_5"/>
   <g id="matplotlib.axis_6"/>
   <g id="patch_39">
    <path d="M 357.279982 137.858865 
C 361.815845 137.858865 366.166542 136.056747 369.373882 132.849407 
C 372.581222 129.642067 374.38334 125.29137 374.38334 120.755506 
C 374.38334 116.219642 372.581222 111.868945 369.373882 108.661605 
C 366.166542 105.454266 361.815845 103.652148 357.279982 103.652148 
C 352.744118 103.652148 348.393421 105.454266 345.186081 108.661605 
C 341.978741 111.868945 340.176623 116.219642 340.176623 120.755506 
C 340.176623 125.29137 341.978741 129.642067 345.186081 132.849407 
C 348.393421 136.056747 352.744118 137.858865 357.279982 137.858865 
z
" clip-path="url(#pdfb484c316)" style="fill: #ffffff; stroke: #2c404c; stroke-width: 0.520914; stroke-linejoin: miter"/>
   </g>
   <g id="patch_40">
    <path d="M 409.371429 107.783868 
C 413.907292 107.783868 418.257989 105.98175 421.465329 102.77441 
C 424.672669 99.56707 426.474787 95.216373 426.474787 90.680509 
C 426.474787 86.144646 424.672669 81.793949 421.465329 78.586609 
C 418.257989 75.379269 413.907292 73.577151 409.371429 73.577151 
C 404.835565 73.577151 400.484868 75.379269 397.277528 78.586609 
C 394.070188 81.793949 392.26807 86.144646 392.26807 90.680509 
C 392.26807 95.216373 394.070188 99.56707 397.277528 102.77441 
C 400.484868 105.98175 404.835565 107.783868 409.371429 107.783868 
z
" clip-path="url(#pdfb484c316)" style="fill: #ffffff; stroke: #2c404c; stroke-width: 0.520914; stroke-linejoin: miter"/>
   </g>
   <g id="patch_41">
    <path d="M 444.09906 107.783868 
C 448.634923 107.783868 452.985621 105.98175 456.19296 102.77441 
C 459.4003 99.56707 461.202418 95.216373 461.202418 90.680509 
C 461.202418 86.144646 459.4003 81.793949 456.19296 78.586609 
C 452.985621 75.379269 448.634923 73.577151 444.09906 73.577151 
C 439.563196 73.577151 435.212499 75.379269 432.005159 78.586609 
C 428.797819 81.793949 426.995701 86.144646 426.995701 90.680509 
C 426.995701 95.216373 428.797819 99.56707 432.005159 102.77441 
C 435.212499 105.98175 439.563196 107.783868 444.09906 107.783868 
z
" clip-path="url(#pdfb484c316)" style="fill: #ffffff; stroke: #2c404c; stroke-width: 0.520914; stroke-linejoin: miter"/>
   </g>
   <g id="patch_42">
    <path d="M 461.462875 137.858865 
C 465.998739 137.858865 470.349436 136.056747 473.556776 132.849407 
C 476.764116 129.642067 478.566234 125.29137 478.566234 120.755506 
C 478.566234 116.219642 476.764116 111.868945 473.556776 108.661605 
C 470.349436 105.454266 465.998739 103.652148 461.462875 103.652148 
C 456.927012 103.652148 452.576315 105.454266 449.368975 108.661605 
C 446.161635 111.868945 444.359517 116.219642 444.359517 120.755506 
C 444.359517 125.29137 446.161635 129.642067 449.368975 132.849407 
C 452.576315 136.056747 456.927012 137.858865 461.462875 137.858865 
z
" clip-path="url(#pdfb484c316)" style="fill: #ffffff; stroke: #2c404c; stroke-width: 0.520914; stroke-linejoin: miter"/>
   </g>
   <g id="patch_43">
    <path d="M 426.735244 137.858865 
C 431.271108 137.858865 435.621805 136.056747 438.829145 132.849407 
C 442.036485 129.642067 443.838603 125.29137 443.838603 120.755506 
C 443.838603 116.219642 442.036485 111.868945 438.829145 108.661605 
C 435.621805 105.454266 431.271108 103.652148 426.735244 103.652148 
C 422.199381 103.652148 417.848683 105.454266 414.641343 108.661605 
C 411.434004 111.868945 409.631886 116.219642 409.631886 120.755506 
C 409.631886 125.29137 411.434004 129.642067 414.641343 132.849407 
C 417.848683 136.056747 422.199381 137.858865 426.735244 137.858865 
z
" clip-path="url(#pdfb484c316)" style="fill: #ffffff; stroke: #2c404c; stroke-width: 0.520914; stroke-linejoin: miter"/>
   </g>
   <g id="patch_44">
    <path d="M 392.007613 137.858865 
C 396.543477 137.858865 400.894174 136.056747 404.101514 132.849407 
C 407.308854 129.642067 409.110971 125.29137 409.110971 120.755506 
C 409.110971 116.219642 407.308854 111.868945 404.101514 108.661605 
C 400.894174 105.454266 396.543477 103.652148 392.007613 103.652148 
C 387.471749 103.652148 383.121052 105.454266 379.913712 108.661605 
C 376.706372 111.868945 374.904255 116.219642 374.904255 120.755506 
C 374.904255 125.29137 376.706372 129.642067 379.913712 132.849407 
C 383.121052 136.056747 387.471749 137.858865 392.007613 137.858865 
z
" clip-path="url(#pdfb484c316)" style="fill: #ffffff; stroke: #2c404c; stroke-width: 0.520914; stroke-linejoin: miter"/>
   </g>
  </g>
  <g id="axes_4">
   <g id="patch_45">
    <path d="M 496.285714 144.193641 
L 648.514286 144.193641 
L 648.514286 7.2 
L 496.285714 7.2 
z
" style="fill: #ffffff"/>
   </g>
   <g id="patch_46">
    <path d="M 589.611151 30.69923 
L 572.552665 30.69923 
L 572.552665 30.351954 
L 589.611151 30.351954 
M 589.611151 30.525592 
L 589.611151 30.525592 
" clip-path="url(#pae1f203334)" style="fill: none; opacity: 0"/>
   </g>
   <g id="patch_47">
    <path d="M 604.584662 69.357356 
L 589.811583 60.828106 
L 589.985221 60.527356 
L 604.7583 69.056606 
M 604.671481 69.206981 
L 604.671481 69.206981 
" clip-path="url(#pae1f203334)" style="fill: none; opacity: 0"/>
   </g>
   <g id="patch_48">
    <path d="M 570.025919 52.146192 
L 555.25284 60.675441 
L 555.079202 60.374691 
L 569.85228 51.845442 
M 569.939099 51.995817 
L 569.939099 51.995817 
" clip-path="url(#pae1f203334)" style="fill: none; opacity: 0"/>
   </g>
   <g id="patch_49">
    <path d="M 606.958735 107.89166 
L 606.958743 90.833174 
L 607.306019 90.833174 
L 607.306011 107.89166 
M 607.132373 107.89166 
L 607.132373 107.89166 
" clip-path="url(#pae1f203334)" style="fill: none; opacity: 0"/>
   </g>
   <g id="patch_50">
    <path d="M 555.188849 90.511621 
L 572.247335 90.511621 
L 572.247335 90.858898 
L 555.188849 90.858898 
M 555.188849 90.685259 
L 555.188849 90.685259 
" clip-path="url(#pae1f203334)" style="fill: none; opacity: 0"/>
   </g>
   <g id="patch_51">
    <path d="M 537.841248 73.469358 
L 537.841257 90.527845 
L 537.49398 90.527845 
L 537.493972 73.469358 
M 537.66761 73.469358 
L 537.66761 73.469358 
" clip-path="url(#pae1f203334)" style="fill: none; opacity: 0"/>
   </g>
   <g id="patch_52">
    <path d="M 615.739609 135.576356 
L 624.268853 120.803274 
L 624.569603 120.976912 
L 616.040359 135.749994 
M 615.889984 135.663175 
L 615.889984 135.663175 
" clip-path="url(#pae1f203334)" style="fill: none; opacity: 0"/>
   </g>
   <g id="patch_53">
    <path d="M 574.774077 129.21482 
L 589.54716 120.685577 
L 589.720798 120.986327 
L 574.947715 129.51557 
M 574.860896 129.365195 
L 574.860896 129.365195 
" clip-path="url(#pae1f203334)" style="fill: none; opacity: 0"/>
   </g>
   <g id="patch_54">
    <path d="M 540.215334 112.00367 
L 554.988417 120.532913 
L 554.814779 120.833663 
L 540.041696 112.30442 
M 540.128515 112.154045 
L 540.128515 112.154045 
" clip-path="url(#pae1f203334)" style="fill: none; opacity: 0"/>
   </g>
   <g id="patch_55">
    <path d="M 511.849238 105.765769 
L 520.378482 120.538851 
L 520.077732 120.712489 
L 511.548488 105.939407 
M 511.698863 105.852588 
L 511.698863 105.852588 
" clip-path="url(#pae1f203334)" style="fill: none; opacity: 0"/>
   </g>
   <g id="matplotlib.axis_7"/>
   <g id="matplotlib.axis_8"/>
   <g id="patch_56">
    <path d="M 572.4 47.6337 
C 576.935864 47.6337 581.286561 45.831583 584.493901 42.624243 
C 587.701241 39.416903 589.503358 35.066206 589.503358 30.530342 
C 589.503358 25.994478 587.701241 21.643781 584.493901 18.436441 
C 581.286561 15.229101 576.935864 13.426984 572.4 13.426984 
C 567.864136 13.426984 563.513439 15.229101 560.306099 18.436441 
C 557.098759 21.643781 555.296642 25.994478 555.296642 30.530342 
C 555.296642 35.066206 557.098759 39.416903 560.306099 42.624243 
C 563.513439 45.831583 567.864136 47.6337 572.4 47.6337 
z
" clip-path="url(#pae1f203334)" style="fill: #ffffff; stroke: #2c404c; stroke-width: 0.520914; stroke-linejoin: miter"/>
   </g>
   <g id="patch_57">
    <path d="M 589.763816 77.708871 
C 594.299679 77.708871 598.650376 75.906753 601.857716 72.699413 
C 605.065056 69.492073 606.867174 65.141376 606.867174 60.605513 
C 606.867174 56.069649 605.065056 51.718952 601.857716 48.511612 
C 598.650376 45.304272 594.299679 43.502154 589.763816 43.502154 
C 585.227952 43.502154 580.877255 45.304272 577.669915 48.511612 
C 574.462575 51.718952 572.660457 56.069649 572.660457 60.605513 
C 572.660457 65.141376 574.462575 69.492073 577.669915 72.699413 
C 580.877255 75.906753 585.227952 77.708871 589.763816 77.708871 
z
" clip-path="url(#pae1f203334)" style="fill: #ffffff; stroke: #2c404c; stroke-width: 0.520914; stroke-linejoin: miter"/>
   </g>
   <g id="patch_58">
    <path d="M 555.036184 77.708871 
C 559.572048 77.708871 563.922745 75.906753 567.130085 72.699413 
C 570.337425 69.492073 572.139543 65.141376 572.139543 60.605513 
C 572.139543 56.069649 570.337425 51.718952 567.130085 48.511612 
C 563.922745 45.304272 559.572048 43.502154 555.036184 43.502154 
C 550.500321 43.502154 546.149624 45.304272 542.942284 48.511612 
C 539.734944 51.718952 537.932826 56.069649 537.932826 60.605513 
C 537.932826 65.141376 539.734944 69.492073 542.942284 72.699413 
C 546.149624 75.906753 550.500321 77.708871 555.036184 77.708871 
z
" clip-path="url(#pae1f203334)" style="fill: #ffffff; stroke: #2c404c; stroke-width: 0.520914; stroke-linejoin: miter"/>
   </g>
   <g id="patch_59">
    <path d="M 607.127631 107.783868 
C 611.663495 107.783868 616.014192 105.98175 619.221532 102.77441 
C 622.428872 99.56707 624.23099 95.216373 624.23099 90.680509 
C 624.23099 86.144646 622.428872 81.793949 619.221532 78.586609 
C 616.014192 75.379269 611.663495 73.577151 607.127631 73.577151 
C 602.591768 73.577151 598.24107 75.379269 595.033731 78.586609 
C 591.826391 81.793949 590.024273 86.144646 590.024273 90.680509 
C 590.024273 95.216373 591.826391 99.56707 595.033731 102.77441 
C 598.24107 105.98175 602.591768 107.783868 607.127631 107.783868 
z
" clip-path="url(#pae1f203334)" style="fill: #ffffff; stroke: #2c404c; stroke-width: 0.520914; stroke-linejoin: miter"/>
   </g>
   <g id="patch_60">
    <path d="M 572.4 107.783868 
C 576.935864 107.783868 581.286561 105.98175 584.493901 102.77441 
C 587.701241 99.56707 589.503358 95.216373 589.503358 90.680509 
C 589.503358 86.144646 587.701241 81.793949 584.493901 78.586609 
C 581.286561 75.379269 576.935864 73.577151 572.4 73.577151 
C 567.864136 73.577151 563.513439 75.379269 560.306099 78.586609 
C 557.098759 81.793949 555.296642 86.144646 555.296642 90.680509 
C 555.296642 95.216373 557.098759 99.56707 560.306099 102.77441 
C 563.513439 105.98175 567.864136 107.783868 572.4 107.783868 
z
" clip-path="url(#pae1f203334)" style="fill: #ffffff; stroke: #2c404c; stroke-width: 0.520914; stroke-linejoin: miter"/>
   </g>
   <g id="patch_61">
    <path d="M 537.672369 107.783868 
C 542.208232 107.783868 546.55893 105.98175 549.766269 102.77441 
C 552.973609 99.56707 554.775727 95.216373 554.775727 90.680509 
C 554.775727 86.144646 552.973609 81.793949 549.766269 78.586609 
C 546.55893 75.379269 542.208232 73.577151 537.672369 73.577151 
C 533.136505 73.577151 528.785808 75.379269 525.578468 78.586609 
C 522.371128 81.793949 520.56901 86.144646 520.56901 90.680509 
C 520.56901 95.216373 522.371128 99.56707 525.578468 102.77441 
C 528.785808 105.98175 533.136505 107.783868 537.672369 107.783868 
z
" clip-path="url(#pae1f203334)" style="fill: #ffffff; stroke: #2c404c; stroke-width: 0.520914; stroke-linejoin: miter"/>
   </g>
   <g id="patch_62">
    <path d="M 624.491447 137.858865 
C 629.02731 137.858865 633.378008 136.056747 636.585348 132.849407 
C 639.792687 129.642067 641.594805 125.29137 641.594805 120.755506 
C 641.594805 116.219642 639.792687 111.868945 636.585348 108.661605 
C 633.378008 105.454266 629.02731 103.652148 624.491447 103.652148 
C 619.955583 103.652148 615.604886 105.454266 612.397546 108.661605 
C 609.190206 111.868945 607.388088 116.219642 607.388088 120.755506 
C 607.388088 125.29137 609.190206 129.642067 612.397546 132.849407 
C 615.604886 136.056747 619.955583 137.858865 624.491447 137.858865 
z
" clip-path="url(#pae1f203334)" style="fill: #ffffff; stroke: #2c404c; stroke-width: 0.520914; stroke-linejoin: miter"/>
   </g>
   <g id="patch_63">
    <path d="M 589.763816 137.858865 
C 594.299679 137.858865 598.650376 136.056747 601.857716 132.849407 
C 605.065056 129.642067 606.867174 125.29137 606.867174 120.755506 
C 606.867174 116.219642 605.065056 111.868945 601.857716 108.661605 
C 598.650376 105.454266 594.299679 103.652148 589.763816 103.652148 
C 585.227952 103.652148 580.877255 105.454266 577.669915 108.661605 
C 574.462575 111.868945 572.660457 116.219642 572.660457 120.755506 
C 572.660457 125.29137 574.462575 129.642067 577.669915 132.849407 
C 580.877255 136.056747 585.227952 137.858865 589.763816 137.858865 
z
" clip-path="url(#pae1f203334)" style="fill: #ffffff; stroke: #2c404c; stroke-width: 0.520914; stroke-linejoin: miter"/>
   </g>
   <g id="patch_64">
    <path d="M 555.036184 137.858865 
C 559.572048 137.858865 563.922745 136.056747 567.130085 132.849407 
C 570.337425 129.642067 572.139543 125.29137 572.139543 120.755506 
C 572.139543 116.219642 570.337425 111.868945 567.130085 108.661605 
C 563.922745 105.454266 559.572048 103.652148 555.036184 103.652148 
C 550.500321 103.652148 546.149624 105.454266 542.942284 108.661605 
C 539.734944 111.868945 537.932826 116.219642 537.932826 120.755506 
C 537.932826 125.29137 539.734944 129.642067 542.942284 132.849407 
C 546.149624 136.056747 550.500321 137.858865 555.036184 137.858865 
z
" clip-path="url(#pae1f203334)" style="fill: #ffffff; stroke: #2c404c; stroke-width: 0.520914; stroke-linejoin: miter"/>
   </g>
   <g id="patch_65">
    <path d="M 520.308553 137.858865 
C 524.844417 137.858865 529.195114 136.056747 532.402454 132.849407 
C 535.609794 129.642067 537.411912 125.29137 537.411912 120.755506 
C 537.411912 116.219642 535.609794 111.868945 532.402454 108.661605 
C 529.195114 105.454266 524.844417 103.652148 520.308553 103.652148 
C 515.77269 103.652148 511.421992 105.454266 508.214652 108.661605 
C 505.007313 111.868945 503.205195 116.219642 503.205195 120.755506 
C 503.205195 125.29137 505.007313 129.642067 508.214652 132.849407 
C 511.421992 136.056747 515.77269 137.858865 520.308553 137.858865 
z
" clip-path="url(#pae1f203334)" style="fill: #ffffff; stroke: #2c404c; stroke-width: 0.520914; stroke-linejoin: miter"/>
   </g>
  </g>
  <g id="axes_5">
   <g id="patch_66">
    <path d="M 659.314286 144.193641 
L 811.542857 144.193641 
L 811.542857 7.2 
L 659.314286 7.2 
z
" style="fill: #ffffff"/>
   </g>
   <g id="patch_67">
    <path d="M 708.486014 75.329781 
L 700.920019 90.61859 
L 700.60877 90.464561 
L 708.174765 75.175752 
M 708.330389 75.252767 
L 708.330389 75.252767 
" clip-path="url(#p8f4c1aa66d)" style="fill: none; opacity: 0"/>
   </g>
   <g id="patch_68">
    <path d="M 752.639722 90.849397 
L 735.581236 90.849397 
L 735.581236 90.502121 
L 752.639722 90.502121 
M 752.639722 90.675759 
L 752.639722 90.675759 
" clip-path="url(#p8f4c1aa66d)" style="fill: none; opacity: 0"/>
   </g>
   <g id="patch_69">
    <path d="M 777.638542 106.181053 
L 770.072547 90.892244 
L 770.383796 90.738215 
L 777.949791 106.027024 
M 777.794166 106.104038 
L 777.794166 106.104038 
" clip-path="url(#p8f4c1aa66d)" style="fill: none; opacity: 0"/>
   </g>
   <g id="patch_70">
    <path d="M 783.222091 137.422241 
L 787.319406 120.863136 
L 787.656515 120.946549 
L 783.559201 137.505654 
M 783.390646 137.463948 
L 783.390646 137.463948 
" clip-path="url(#p8f4c1aa66d)" style="fill: none; opacity: 0"/>
   </g>
   <g id="patch_71">
    <path d="M 742.398254 134.474625 
L 752.565783 120.777425 
L 752.844631 120.984415 
L 742.677101 134.681616 
M 742.537677 134.578121 
L 742.537677 134.578121 
" clip-path="url(#p8f4c1aa66d)" style="fill: none; opacity: 0"/>
   </g>
   <g id="patch_72">
    <path d="M 707.941842 106.835059 
L 718.109371 120.532259 
L 717.830524 120.73925 
L 707.662994 107.042049 
M 707.802418 106.938554 
L 707.802418 106.938554 
" clip-path="url(#p8f4c1aa66d)" style="fill: none; opacity: 0"/>
   </g>
   <g id="patch_73">
    <path d="M 679.367086 104.00764 
L 683.4644 120.566745 
L 683.12729 120.650158 
L 679.029976 104.091053 
M 679.198531 104.049346 
L 679.198531 104.049346 
" clip-path="url(#p8f4c1aa66d)" style="fill: none; opacity: 0"/>
   </g>
   <g id="matplotlib.axis_9"/>
   <g id="matplotlib.axis_10"/>
   <g id="patch_74">
    <path d="M 700.70094 107.783868 
C 705.236804 107.783868 709.587501 105.98175 712.794841 102.77441 
C 716.002181 99.56707 717.804299 95.216373 717.804299 90.680509 
C 717.804299 86.144646 716.002181 81.793949 712.794841 78.586609 
C 709.587501 75.379269 705.236804 73.577151 700.70094 73.577151 
C 696.165077 73.577151 691.814379 75.379269 688.60704 78.586609 
C 685.3997 81.793949 683.597582 86.144646 683.597582 90.680509 
C 683.597582 95.216373 685.3997 99.56707 688.60704 102.77441 
C 691.814379 105.98175 696.165077 107.783868 700.70094 107.783868 
z
" clip-path="url(#p8f4c1aa66d)" style="fill: #ffffff; stroke: #2c404c; stroke-width: 0.520914; stroke-linejoin: miter"/>
   </g>
   <g id="patch_75">
    <path d="M 735.428571 107.783868 
C 739.964435 107.783868 744.315132 105.98175 747.522472 102.77441 
C 750.729812 99.56707 752.53193 95.216373 752.53193 90.680509 
C 752.53193 86.144646 750.729812 81.793949 747.522472 78.586609 
C 744.315132 75.379269 739.964435 73.577151 735.428571 73.577151 
C 730.892708 73.577151 726.542011 75.379269 723.334671 78.586609 
C 720.127331 81.793949 718.325213 86.144646 718.325213 90.680509 
C 718.325213 95.216373 720.127331 99.56707 723.334671 102.77441 
C 726.542011 105.98175 730.892708 107.783868 735.428571 107.783868 
z
" clip-path="url(#p8f4c1aa66d)" style="fill: #ffffff; stroke: #2c404c; stroke-width: 0.520914; stroke-linejoin: miter"/>
   </g>
   <g id="patch_76">
    <path d="M 770.156203 107.783868 
C 774.692066 107.783868 779.042763 105.98175 782.250103 102.77441 
C 785.457443 99.56707 787.259561 95.216373 787.259561 90.680509 
C 787.259561 86.144646 785.457443 81.793949 782.250103 78.586609 
C 779.042763 75.379269 774.692066 73.577151 770.156203 73.577151 
C 765.620339 73.577151 761.269642 75.379269 758.062302 78.586609 
C 754.854962 81.793949 753.052844 86.144646 753.052844 90.680509 
C 753.052844 95.216373 754.854962 99.56707 758.062302 102.77441 
C 761.269642 105.98175 765.620339 107.783868 770.156203 107.783868 
z
" clip-path="url(#p8f4c1aa66d)" style="fill: #ffffff; stroke: #2c404c; stroke-width: 0.520914; stroke-linejoin: miter"/>
   </g>
   <g id="patch_77">
    <path d="M 787.520018 137.858865 
C 792.055882 137.858865 796.406579 136.056747 799.613919 132.849407 
C 802.821259 129.642067 804.623377 125.29137 804.623377 120.755506 
C 804.623377 116.219642 802.821259 111.868945 799.613919 108.661605 
C 796.406579 105.454266 792.055882 103.652148 787.520018 103.652148 
C 782.984155 103.652148 778.633458 105.454266 775.426118 108.661605 
C 772.218778 111.868945 770.41666 116.219642 770.41666 120.755506 
C 770.41666 125.29137 772.218778 129.642067 775.426118 132.849407 
C 778.633458 136.056747 782.984155 137.858865 787.520018 137.858865 
z
" clip-path="url(#p8f4c1aa66d)" style="fill: #ffffff; stroke: #2c404c; stroke-width: 0.520914; stroke-linejoin: miter"/>
   </g>
   <g id="patch_78">
    <path d="M 752.792387 137.858865 
C 757.328251 137.858865 761.678948 136.056747 764.886288 132.849407 
C 768.093628 129.642067 769.895745 125.29137 769.895745 120.755506 
C 769.895745 116.219642 768.093628 111.868945 764.886288 108.661605 
C 761.678948 105.454266 757.328251 103.652148 752.792387 103.652148 
C 748.256523 103.652148 743.905826 105.454266 740.698486 108.661605 
C 737.491146 111.868945 735.689029 116.219642 735.689029 120.755506 
C 735.689029 125.29137 737.491146 129.642067 740.698486 132.849407 
C 743.905826 136.056747 748.256523 137.858865 752.792387 137.858865 
z
" clip-path="url(#p8f4c1aa66d)" style="fill: #ffffff; stroke: #2c404c; stroke-width: 0.520914; stroke-linejoin: miter"/>
   </g>
   <g id="patch_79">
    <path d="M 718.064756 137.858865 
C 722.600619 137.858865 726.951317 136.056747 730.158657 132.849407 
C 733.365996 129.642067 735.168114 125.29137 735.168114 120.755506 
C 735.168114 116.219642 733.365996 111.868945 730.158657 108.661605 
C 726.951317 105.454266 722.600619 103.652148 718.064756 103.652148 
C 713.528892 103.652148 709.178195 105.454266 705.970855 108.661605 
C 702.763515 111.868945 700.961397 116.219642 700.961397 120.755506 
C 700.961397 125.29137 702.763515 129.642067 705.970855 132.849407 
C 709.178195 136.056747 713.528892 137.858865 718.064756 137.858865 
z
" clip-path="url(#p8f4c1aa66d)" style="fill: #ffffff; stroke: #2c404c; stroke-width: 0.520914; stroke-linejoin: miter"/>
   </g>
   <g id="patch_80">
    <path d="M 683.337125 137.858865 
C 687.872988 137.858865 692.223685 136.056747 695.431025 132.849407 
C 698.638365 129.642067 700.440483 125.29137 700.440483 120.755506 
C 700.440483 116.219642 698.638365 111.868945 695.431025 108.661605 
C 692.223685 105.454266 687.872988 103.652148 683.337125 103.652148 
C 678.801261 103.652148 674.450564 105.454266 671.243224 108.661605 
C 668.035884 111.868945 666.233766 116.219642 666.233766 120.755506 
C 666.233766 125.29137 668.035884 129.642067 671.243224 132.849407 
C 674.450564 136.056747 678.801261 137.858865 683.337125 137.858865 
z
" clip-path="url(#p8f4c1aa66d)" style="fill: #ffffff; stroke: #2c404c; stroke-width: 0.520914; stroke-linejoin: miter"/>
   </g>
  </g>
  <g id="axes_6">
   <g id="patch_81">
    <path d="M 822.342857 144.193641 
L 974.571429 144.193641 
L 974.571429 7.2 
L 822.342857 7.2 
z
" style="fill: #ffffff"/>
   </g>
   <g id="patch_82">
    <path d="M 875.124519 77.780663 
L 863.957121 90.675669 
L 863.694605 90.448323 
L 874.862003 77.553317 
M 874.993261 77.66699 
L 874.993261 77.66699 
" clip-path="url(#p24085d1a07)" style="fill: none; opacity: 0"/>
   </g>
   <g id="patch_83">
    <path d="M 872.634016 105.765766 
L 881.163256 120.538851 
L 880.862506 120.712489 
L 872.333266 105.939405 
M 872.483641 105.852586 
L 872.483641 105.852586 
" clip-path="url(#p24085d1a07)" style="fill: none; opacity: 0"/>
   </g>
   <g id="patch_84">
    <path d="M 844.26007 103.672808 
L 846.512943 120.581874 
L 846.168708 120.627738 
L 843.915835 103.718672 
M 844.087953 103.69574 
L 844.087953 103.69574 
" clip-path="url(#p24085d1a07)" style="fill: none; opacity: 0"/>
   </g>
   <g id="patch_85">
    <path d="M 911.523032 137.422241 
L 915.620346 120.863136 
L 915.957456 120.946549 
L 911.860142 137.505654 
M 911.691587 137.463948 
L 911.691587 137.463948 
" clip-path="url(#p24085d1a07)" style="fill: none; opacity: 0"/>
   </g>
   <g id="patch_86">
    <path d="M 948.63604 137.860897 
L 950.365097 120.890266 
L 950.710585 120.925466 
L 948.981527 137.896097 
M 948.808783 137.878497 
L 948.808783 137.878497 
" clip-path="url(#p24085d1a07)" style="fill: none; opacity: 0"/>
   </g>
   <g id="matplotlib.axis_11"/>
   <g id="matplotlib.axis_12"/>
   <g id="patch_87">
    <path d="M 863.729512 107.783868 
C 868.265375 107.783868 872.616072 105.98175 875.823412 102.77441 
C 879.030752 99.56707 880.83287 95.216373 880.83287 90.680509 
C 880.83287 86.144646 879.030752 81.793949 875.823412 78.586609 
C 872.616072 75.379269 868.265375 73.577151 863.729512 73.577151 
C 859.193648 73.577151 854.842951 75.379269 851.635611 78.586609 
C 848.428271 81.793949 846.626153 86.144646 846.626153 90.680509 
C 846.626153 95.216373 848.428271 99.56707 851.635611 102.77441 
C 854.842951 105.98175 859.193648 107.783868 863.729512 107.783868 
z
" clip-path="url(#p24085d1a07)" style="fill: #ffffff; stroke: #2c404c; stroke-width: 0.520914; stroke-linejoin: miter"/>
   </g>
   <g id="patch_88">
    <path d="M 881.093327 137.858865 
C 885.629191 137.858865 889.979888 136.056747 893.187228 132.849407 
C 896.394568 129.642067 898.196686 125.29137 898.196686 120.755506 
C 898.196686 116.219642 896.394568 111.868945 893.187228 108.661605 
C 889.979888 105.454266 885.629191 103.652148 881.093327 103.652148 
C 876.557464 103.652148 872.206767 105.454266 868.999427 108.661605 
C 865.792087 111.868945 863.989969 116.219642 863.989969 120.755506 
C 863.989969 125.29137 865.792087 129.642067 868.999427 132.849407 
C 872.206767 136.056747 876.557464 137.858865 881.093327 137.858865 
z
" clip-path="url(#p24085d1a07)" style="fill: #ffffff; stroke: #2c404c; stroke-width: 0.520914; stroke-linejoin: miter"/>
   </g>
   <g id="patch_89">
    <path d="M 846.365696 137.858865 
C 850.90156 137.858865 855.252257 136.056747 858.459597 132.849407 
C 861.666937 129.642067 863.469054 125.29137 863.469054 120.755506 
C 863.469054 116.219642 861.666937 111.868945 858.459597 108.661605 
C 855.252257 105.454266 850.90156 103.652148 846.365696 103.652148 
C 841.829832 103.652148 837.479135 105.454266 834.271795 108.661605 
C 831.064455 111.868945 829.262338 116.219642 829.262338 120.755506 
C 829.262338 125.29137 831.064455 129.642067 834.271795 132.849407 
C 837.479135 136.056747 841.829832 137.858865 846.365696 137.858865 
z
" clip-path="url(#p24085d1a07)" style="fill: #ffffff; stroke: #2c404c; stroke-width: 0.520914; stroke-linejoin: miter"/>
   </g>
   <g id="patch_90">
    <path d="M 915.820958 137.858865 
C 920.356822 137.858865 924.707519 136.056747 927.914859 132.849407 
C 931.122199 129.642067 932.924317 125.29137 932.924317 120.755506 
C 932.924317 116.219642 931.122199 111.868945 927.914859 108.661605 
C 924.707519 105.454266 920.356822 103.652148 915.820958 103.652148 
C 911.285095 103.652148 906.934398 105.454266 903.727058 108.661605 
C 900.519718 111.868945 898.7176 116.219642 898.7176 120.755506 
C 898.7176 125.29137 900.519718 129.642067 903.727058 132.849407 
C 906.934398 136.056747 911.285095 137.858865 915.820958 137.858865 
z
" clip-path="url(#p24085d1a07)" style="fill: #ffffff; stroke: #2c404c; stroke-width: 0.520914; stroke-linejoin: miter"/>
   </g>
   <g id="patch_91">
    <path d="M 950.54859 137.858865 
C 955.084453 137.858865 959.43515 136.056747 962.64249 132.849407 
C 965.84983 129.642067 967.651948 125.29137 967.651948 120.755506 
C 967.651948 116.219642 965.84983 111.868945 962.64249 108.661605 
C 959.43515 105.454266 955.084453 103.652148 950.54859 103.652148 
C 946.012726 103.652148 941.662029 105.454266 938.454689 108.661605 
C 935.247349 111.868945 933.445231 116.219642 933.445231 120.755506 
C 933.445231 125.29137 935.247349 129.642067 938.454689 132.849407 
C 941.662029 136.056747 946.012726 137.858865 950.54859 137.858865 
z
" clip-path="url(#p24085d1a07)" style="fill: #ffffff; stroke: #2c404c; stroke-width: 0.520914; stroke-linejoin: miter"/>
   </g>
  </g>
  <g id="axes_7">
   <g id="patch_92">
    <path d="M 985.371429 144.193641 
L 1137.6 144.193641 
L 1137.6 7.2 
L 985.371429 7.2 
z
" style="fill: #ffffff"/>
   </g>
   <g id="patch_93">
    <path d="M 1036.698566 76.629209 
L 1026.98385 90.651201 
L 1026.69839 90.453429 
L 1036.413107 76.431437 
M 1036.555836 76.530323 
L 1036.555836 76.530323 
" clip-path="url(#p92d7552480)" style="fill: none; opacity: 0"/>
   </g>
   <g id="patch_94">
    <path d="M 1077.974812 95.616288 
L 1061.585549 90.885113 
L 1061.681866 90.551461 
L 1078.071129 95.282636 
M 1078.02297 95.449462 
L 1078.02297 95.449462 
" clip-path="url(#p92d7552480)" style="fill: none; opacity: 0"/>
   </g>
   <g id="patch_95">
    <path d="M 1071.855532 136.482433 
L 1078.633885 120.828492 
L 1078.952567 120.966485 
L 1072.174215 136.620427 
M 1072.014874 136.55143 
L 1072.014874 136.55143 
" clip-path="url(#p92d7552480)" style="fill: none; opacity: 0"/>
   </g>
   <g id="patch_96">
    <path d="M 1032.982226 107.634533 
L 1044.149624 120.529539 
L 1043.887107 120.756885 
L 1032.71971 107.861879 
M 1032.850968 107.748206 
L 1032.850968 107.748206 
" clip-path="url(#p92d7552480)" style="fill: none; opacity: 0"/>
   </g>
   <g id="patch_97">
    <path d="M 1005.91739 103.898355 
L 1009.527027 120.570561 
L 1009.187614 120.644046 
L 1005.577977 103.971839 
M 1005.747684 103.935097 
L 1005.747684 103.935097 
" clip-path="url(#p92d7552480)" style="fill: none; opacity: 0"/>
   </g>
   <g id="patch_98">
    <path d="M 1110.473428 137.685334 
L 1113.384696 120.877108 
L 1113.726878 120.936376 
L 1110.815609 137.744602 
M 1110.644518 137.714968 
L 1110.644518 137.714968 
" clip-path="url(#p92d7552480)" style="fill: none; opacity: 0"/>
   </g>
   <g id="matplotlib.axis_13"/>
   <g id="matplotlib.axis_14"/>
   <g id="patch_99">
    <path d="M 1026.758083 107.783868 
C 1031.293947 107.783868 1035.644644 105.98175 1038.851984 102.77441 
C 1042.059324 99.56707 1043.861441 95.216373 1043.861441 90.680509 
C 1043.861441 86.144646 1042.059324 81.793949 1038.851984 78.586609 
C 1035.644644 75.379269 1031.293947 73.577151 1026.758083 73.577151 
C 1022.222219 73.577151 1017.871522 75.379269 1014.664182 78.586609 
C 1011.456842 81.793949 1009.654725 86.144646 1009.654725 90.680509 
C 1009.654725 95.216373 1011.456842 99.56707 1014.664182 102.77441 
C 1017.871522 105.98175 1022.222219 107.783868 1026.758083 107.783868 
z
" clip-path="url(#p92d7552480)" style="fill: #ffffff; stroke: #2c404c; stroke-width: 0.520914; stroke-linejoin: miter"/>
   </g>
   <g id="patch_100">
    <path d="M 1061.485714 107.783868 
C 1066.021578 107.783868 1070.372275 105.98175 1073.579615 102.77441 
C 1076.786955 99.56707 1078.589073 95.216373 1078.589073 90.680509 
C 1078.589073 86.144646 1076.786955 81.793949 1073.579615 78.586609 
C 1070.372275 75.379269 1066.021578 73.577151 1061.485714 73.577151 
C 1056.949851 73.577151 1052.599154 75.379269 1049.391814 78.586609 
C 1046.184474 81.793949 1044.382356 86.144646 1044.382356 90.680509 
C 1044.382356 95.216373 1046.184474 99.56707 1049.391814 102.77441 
C 1052.599154 105.98175 1056.949851 107.783868 1061.485714 107.783868 
z
" clip-path="url(#p92d7552480)" style="fill: #ffffff; stroke: #2c404c; stroke-width: 0.520914; stroke-linejoin: miter"/>
   </g>
   <g id="patch_101">
    <path d="M 1078.84953 137.858865 
C 1083.385394 137.858865 1087.736091 136.056747 1090.943431 132.849407 
C 1094.150771 129.642067 1095.952888 125.29137 1095.952888 120.755506 
C 1095.952888 116.219642 1094.150771 111.868945 1090.943431 108.661605 
C 1087.736091 105.454266 1083.385394 103.652148 1078.84953 103.652148 
C 1074.313666 103.652148 1069.962969 105.454266 1066.755629 108.661605 
C 1063.548289 111.868945 1061.746172 116.219642 1061.746172 120.755506 
C 1061.746172 125.29137 1063.548289 129.642067 1066.755629 132.849407 
C 1069.962969 136.056747 1074.313666 137.858865 1078.84953 137.858865 
z
" clip-path="url(#p92d7552480)" style="fill: #ffffff; stroke: #2c404c; stroke-width: 0.520914; stroke-linejoin: miter"/>
   </g>
   <g id="patch_102">
    <path d="M 1044.121899 137.858865 
C 1048.657762 137.858865 1053.008459 136.056747 1056.215799 132.849407 
C 1059.423139 129.642067 1061.225257 125.29137 1061.225257 120.755506 
C 1061.225257 116.219642 1059.423139 111.868945 1056.215799 108.661605 
C 1053.008459 105.454266 1048.657762 103.652148 1044.121899 103.652148 
C 1039.586035 103.652148 1035.235338 105.454266 1032.027998 108.661605 
C 1028.820658 111.868945 1027.01854 116.219642 1027.01854 120.755506 
C 1027.01854 125.29137 1028.820658 129.642067 1032.027998 132.849407 
C 1035.235338 136.056747 1039.586035 137.858865 1044.121899 137.858865 
z
" clip-path="url(#p92d7552480)" style="fill: #ffffff; stroke: #2c404c; stroke-width: 0.520914; stroke-linejoin: miter"/>
   </g>
   <g id="patch_103">
    <path d="M 1009.394267 137.858865 
C 1013.930131 137.858865 1018.280828 136.056747 1021.488168 132.849407 
C 1024.695508 129.642067 1026.497626 125.29137 1026.497626 120.755506 
C 1026.497626 116.219642 1024.695508 111.868945 1021.488168 108.661605 
C 1018.280828 105.454266 1013.930131 103.652148 1009.394267 103.652148 
C 1004.858404 103.652148 1000.507707 105.454266 997.300367 108.661605 
C 994.093027 111.868945 992.290909 116.219642 992.290909 120.755506 
C 992.290909 125.29137 994.093027 129.642067 997.300367 132.849407 
C 1000.507707 136.056747 1004.858404 137.858865 1009.394267 137.858865 
z
" clip-path="url(#p92d7552480)" style="fill: #ffffff; stroke: #2c404c; stroke-width: 0.520914; stroke-linejoin: miter"/>
   </g>
   <g id="patch_104">
    <path d="M 1113.577161 137.858865 
C 1118.113025 137.858865 1122.463722 136.056747 1125.671062 132.849407 
C 1128.878402 129.642067 1130.680519 125.29137 1130.680519 120.755506 
C 1130.680519 116.219642 1128.878402 111.868945 1125.671062 108.661605 
C 1122.463722 105.454266 1118.113025 103.652148 1113.577161 103.652148 
C 1109.041297 103.652148 1104.6906 105.454266 1101.48326 108.661605 
C 1098.27592 111.868945 1096.473803 116.219642 1096.473803 120.755506 
C 1096.473803 125.29137 1098.27592 129.642067 1101.48326 132.849407 
C 1104.6906 136.056747 1109.041297 137.858865 1113.577161 137.858865 
z
" clip-path="url(#p92d7552480)" style="fill: #ffffff; stroke: #2c404c; stroke-width: 0.520914; stroke-linejoin: miter"/>
   </g>
  </g>
  <g id="axes_8">
   <g id="patch_105">
    <path d="M 7.2 344.453391 
L 159.428571 344.453391 
L 159.428571 207.45975 
L 7.2 207.45975 
z
" style="fill: #ffffff"/>
   </g>
   <g id="patch_106">
    <path d="M 53.779094 274.530177 
L 48.792791 290.84363 
L 48.460682 290.742119 
L 53.446985 274.428666 
M 53.613039 274.479422 
L 53.613039 274.479422 
" clip-path="url(#p14f0342b4f)" style="fill: none; opacity: 0"/>
   </g>
   <g id="patch_107">
    <path d="M 116.775142 266.95932 
L 100.763157 261.076439 
L 100.88292 260.750467 
L 116.894905 266.633349 
M 116.835023 266.796334 
L 116.835023 266.796334 
" clip-path="url(#p14f0342b4f)" style="fill: none; opacity: 0"/>
   </g>
   <g id="patch_108">
    <path d="M 123.516002 307.258551 
L 117.932304 291.139796 
L 118.260449 291.026123 
L 123.844147 307.144878 
M 123.680075 307.201715 
L 123.680075 307.201715 
" clip-path="url(#p14f0342b4f)" style="fill: none; opacity: 0"/>
   </g>
   <g id="patch_109">
    <path d="M 100.247217 287.853501 
L 83.496116 291.077254 
L 83.430487 290.736235 
L 100.181588 287.512483 
M 100.214402 287.682992 
L 100.214402 287.682992 
" clip-path="url(#p14f0342b4f)" style="fill: none; opacity: 0"/>
   </g>
   <g id="patch_110">
    <path d="M 129.182802 337.062916 
L 135.193881 321.098616 
L 135.518882 321.220989 
L 129.507803 337.185289 
M 129.345302 337.124103 
L 129.345302 337.124103 
" clip-path="url(#p14f0342b4f)" style="fill: none; opacity: 0"/>
   </g>
   <g id="patch_111">
    <path d="M 87.186589 331.703162 
L 100.453206 320.979878 
L 100.67151 321.249959 
L 87.404893 331.973244 
M 87.295741 331.838203 
L 87.295741 331.838203 
" clip-path="url(#p14f0342b4f)" style="fill: none; opacity: 0"/>
   </g>
   <g id="patch_112">
    <path d="M 54.138384 308.496197 
L 65.966313 320.788147 
L 65.716074 321.02894 
L 53.888144 308.73699 
M 54.013264 308.616593 
L 54.013264 308.616593 
" clip-path="url(#p14f0342b4f)" style="fill: none; opacity: 0"/>
   </g>
   <g id="patch_113">
    <path d="M 25.748754 304.696965 
L 31.332452 320.81572 
L 31.004307 320.929393 
L 25.420609 304.810638 
M 25.584681 304.753802 
L 25.584681 304.753802 
" clip-path="url(#p14f0342b4f)" style="fill: none; opacity: 0"/>
   </g>
   <g id="matplotlib.axis_15"/>
   <g id="matplotlib.axis_16"/>
   <g id="patch_114">
    <path d="M 48.586654 308.043618 
C 53.122518 308.043618 57.473215 306.2415 60.680555 303.03416 
C 63.887895 299.82682 65.690013 295.476123 65.690013 290.94026 
C 65.690013 286.404396 63.887895 282.053699 60.680555 278.846359 
C 57.473215 275.639019 53.122518 273.836901 48.586654 273.836901 
C 44.050791 273.836901 39.700094 275.639019 36.492754 278.846359 
C 33.285414 282.053699 31.483296 286.404396 31.483296 290.94026 
C 31.483296 295.476123 33.285414 299.82682 36.492754 303.03416 
C 39.700094 306.2415 44.050791 308.043618 48.586654 308.043618 
z
" clip-path="url(#p14f0342b4f)" style="fill: #ffffff; stroke: #2c404c; stroke-width: 0.520914; stroke-linejoin: miter"/>
   </g>
   <g id="patch_115">
    <path d="M 100.678101 277.968621 
C 105.213965 277.968621 109.564662 276.166504 112.772002 272.959164 
C 115.979342 269.751824 117.78146 265.401127 117.78146 260.865263 
C 117.78146 256.329399 115.979342 251.978702 112.772002 248.771362 
C 109.564662 245.564022 105.213965 243.761905 100.678101 243.761905 
C 96.142238 243.761905 91.791541 245.564022 88.584201 248.771362 
C 85.376861 251.978702 83.574743 256.329399 83.574743 260.865263 
C 83.574743 265.401127 85.376861 269.751824 88.584201 272.959164 
C 91.791541 276.166504 96.142238 277.968621 100.678101 277.968621 
z
" clip-path="url(#p14f0342b4f)" style="fill: #ffffff; stroke: #2c404c; stroke-width: 0.520914; stroke-linejoin: miter"/>
   </g>
   <g id="patch_116">
    <path d="M 118.041917 308.043618 
C 122.577781 308.043618 126.928478 306.2415 130.135818 303.03416 
C 133.343158 299.82682 135.145275 295.476123 135.145275 290.94026 
C 135.145275 286.404396 133.343158 282.053699 130.135818 278.846359 
C 126.928478 275.639019 122.577781 273.836901 118.041917 273.836901 
C 113.506053 273.836901 109.155356 275.639019 105.948016 278.846359 
C 102.740676 282.053699 100.938559 286.404396 100.938559 290.94026 
C 100.938559 295.476123 102.740676 299.82682 105.948016 303.03416 
C 109.155356 306.2415 113.506053 308.043618 118.041917 308.043618 
z
" clip-path="url(#p14f0342b4f)" style="fill: #ffffff; stroke: #2c404c; stroke-width: 0.520914; stroke-linejoin: miter"/>
   </g>
   <g id="patch_117">
    <path d="M 83.314286 308.043618 
C 87.850149 308.043618 92.200846 306.2415 95.408186 303.03416 
C 98.615526 299.82682 100.417644 295.476123 100.417644 290.94026 
C 100.417644 286.404396 98.615526 282.053699 95.408186 278.846359 
C 92.200846 275.639019 87.850149 273.836901 83.314286 273.836901 
C 78.778422 273.836901 74.427725 275.639019 71.220385 278.846359 
C 68.013045 282.053699 66.210927 286.404396 66.210927 290.94026 
C 66.210927 295.476123 68.013045 299.82682 71.220385 303.03416 
C 74.427725 306.2415 78.778422 308.043618 83.314286 308.043618 
z
" clip-path="url(#p14f0342b4f)" style="fill: #ffffff; stroke: #2c404c; stroke-width: 0.520914; stroke-linejoin: miter"/>
   </g>
   <g id="patch_118">
    <path d="M 135.405733 338.118615 
C 139.941596 338.118615 144.292293 336.316497 147.499633 333.109157 
C 150.706973 329.901817 152.509091 325.55112 152.509091 321.015257 
C 152.509091 316.479393 150.706973 312.128696 147.499633 308.921356 
C 144.292293 305.714016 139.941596 303.911898 135.405733 303.911898 
C 130.869869 303.911898 126.519172 305.714016 123.311832 308.921356 
C 120.104492 312.128696 118.302374 316.479393 118.302374 321.015257 
C 118.302374 325.55112 120.104492 329.901817 123.311832 333.109157 
C 126.519172 336.316497 130.869869 338.118615 135.405733 338.118615 
z
" clip-path="url(#p14f0342b4f)" style="fill: #ffffff; stroke: #2c404c; stroke-width: 0.520914; stroke-linejoin: miter"/>
   </g>
   <g id="patch_119">
    <path d="M 100.678101 338.118615 
C 105.213965 338.118615 109.564662 336.316497 112.772002 333.109157 
C 115.979342 329.901817 117.78146 325.55112 117.78146 321.015257 
C 117.78146 316.479393 115.979342 312.128696 112.772002 308.921356 
C 109.564662 305.714016 105.213965 303.911898 100.678101 303.911898 
C 96.142238 303.911898 91.791541 305.714016 88.584201 308.921356 
C 85.376861 312.128696 83.574743 316.479393 83.574743 321.015257 
C 83.574743 325.55112 85.376861 329.901817 88.584201 333.109157 
C 91.791541 336.316497 96.142238 338.118615 100.678101 338.118615 
z
" clip-path="url(#p14f0342b4f)" style="fill: #ffffff; stroke: #2c404c; stroke-width: 0.520914; stroke-linejoin: miter"/>
   </g>
   <g id="patch_120">
    <path d="M 65.95047 338.118615 
C 70.486334 338.118615 74.837031 336.316497 78.044371 333.109157 
C 81.251711 329.901817 83.053828 325.55112 83.053828 321.015257 
C 83.053828 316.479393 81.251711 312.128696 78.044371 308.921356 
C 74.837031 305.714016 70.486334 303.911898 65.95047 303.911898 
C 61.414606 303.911898 57.063909 305.714016 53.856569 308.921356 
C 50.649229 312.128696 48.847112 316.479393 48.847112 321.015257 
C 48.847112 325.55112 50.649229 329.901817 53.856569 333.109157 
C 57.063909 336.316497 61.414606 338.118615 65.95047 338.118615 
z
" clip-path="url(#p14f0342b4f)" style="fill: #ffffff; stroke: #2c404c; stroke-width: 0.520914; stroke-linejoin: miter"/>
   </g>
   <g id="patch_121">
    <path d="M 31.222839 338.118615 
C 35.758703 338.118615 40.1094 336.316497 43.31674 333.109157 
C 46.52408 329.901817 48.326197 325.55112 48.326197 321.015257 
C 48.326197 316.479393 46.52408 312.128696 43.31674 308.921356 
C 40.1094 305.714016 35.758703 303.911898 31.222839 303.911898 
C 26.686975 303.911898 22.336278 305.714016 19.128938 308.921356 
C 15.921598 312.128696 14.119481 316.479393 14.119481 321.015257 
C 14.119481 325.55112 15.921598 329.901817 19.128938 333.109157 
C 22.336278 336.316497 26.686975 338.118615 31.222839 338.118615 
z
" clip-path="url(#p14f0342b4f)" style="fill: #ffffff; stroke: #2c404c; stroke-width: 0.520914; stroke-linejoin: miter"/>
   </g>
  </g>
  <g id="axes_9">
   <g id="patch_122">
    <path d="M 170.228571 344.453391 
L 322.457143 344.453391 
L 322.457143 207.45975 
L 170.228571 207.45975 
z
" style="fill: #ffffff"/>
   </g>
   <g id="patch_123">
    <path d="M 192.674897 303.875629 
L 194.403954 320.84626 
L 194.058467 320.88146 
L 192.329409 303.910829 
M 192.502153 303.893229 
L 192.502153 303.893229 
" clip-path="url(#p39039d64b8)" style="fill: none; opacity: 0"/>
   </g>
   <g id="patch_124">
    <path d="M 225.009002 304.26739 
L 229.106317 320.826496 
L 228.769207 320.909909 
L 224.671893 304.350803 
M 224.840448 304.309097 
L 224.840448 304.309097 
" clip-path="url(#p39039d64b8)" style="fill: none; opacity: 0"/>
   </g>
   <g id="patch_125">
    <path d="M 292.210161 304.061233 
L 281.042763 291.166227 
L 281.30528 290.938881 
L 292.472677 303.833887 
M 292.341419 303.94756 
L 292.341419 303.94756 
" clip-path="url(#p39039d64b8)" style="fill: none; opacity: 0"/>
   </g>
   <g id="patch_126">
    <path d="M 295.99386 338.053346 
L 298.246733 321.144279 
L 298.590968 321.190143 
L 296.338095 338.099209 
M 296.165978 338.076277 
L 296.165978 338.076277 
" clip-path="url(#p39039d64b8)" style="fill: none; opacity: 0"/>
   </g>
   <g id="patch_127">
    <path d="M 254.954839 335.836108 
L 263.484079 321.063024 
L 263.784829 321.236662 
L 255.255589 336.009746 
M 255.105214 335.922927 
L 255.105214 335.922927 
" clip-path="url(#p39039d64b8)" style="fill: none; opacity: 0"/>
   </g>
   <g id="matplotlib.axis_17"/>
   <g id="matplotlib.axis_18"/>
   <g id="patch_128">
    <path d="M 194.25141 338.118615 
C 198.787274 338.118615 203.137971 336.316497 206.345311 333.109157 
C 209.552651 329.901817 211.354769 325.55112 211.354769 321.015257 
C 211.354769 316.479393 209.552651 312.128696 206.345311 308.921356 
C 203.137971 305.714016 198.787274 303.911898 194.25141 303.911898 
C 189.715547 303.911898 185.36485 305.714016 182.15751 308.921356 
C 178.95017 312.128696 177.148052 316.479393 177.148052 321.015257 
C 177.148052 325.55112 178.95017 329.901817 182.15751 333.109157 
C 185.36485 336.316497 189.715547 338.118615 194.25141 338.118615 
z
" clip-path="url(#p39039d64b8)" style="fill: #ffffff; stroke: #2c404c; stroke-width: 0.520914; stroke-linejoin: miter"/>
   </g>
   <g id="patch_129">
    <path d="M 228.979042 338.118615 
C 233.514905 338.118615 237.865602 336.316497 241.072942 333.109157 
C 244.280282 329.901817 246.0824 325.55112 246.0824 321.015257 
C 246.0824 316.479393 244.280282 312.128696 241.072942 308.921356 
C 237.865602 305.714016 233.514905 303.911898 228.979042 303.911898 
C 224.443178 303.911898 220.092481 305.714016 216.885141 308.921356 
C 213.677801 312.128696 211.875683 316.479393 211.875683 321.015257 
C 211.875683 325.55112 213.677801 329.901817 216.885141 333.109157 
C 220.092481 336.316497 224.443178 338.118615 228.979042 338.118615 
z
" clip-path="url(#p39039d64b8)" style="fill: #ffffff; stroke: #2c404c; stroke-width: 0.520914; stroke-linejoin: miter"/>
   </g>
   <g id="patch_130">
    <path d="M 281.070488 308.043618 
C 285.606352 308.043618 289.957049 306.2415 293.164389 303.03416 
C 296.371729 299.82682 298.173847 295.476123 298.173847 290.94026 
C 298.173847 286.404396 296.371729 282.053699 293.164389 278.846359 
C 289.957049 275.639019 285.606352 273.836901 281.070488 273.836901 
C 276.534625 273.836901 272.183928 275.639019 268.976588 278.846359 
C 265.769248 282.053699 263.96713 286.404396 263.96713 290.94026 
C 263.96713 295.476123 265.769248 299.82682 268.976588 303.03416 
C 272.183928 306.2415 276.534625 308.043618 281.070488 308.043618 
z
" clip-path="url(#p39039d64b8)" style="fill: #ffffff; stroke: #2c404c; stroke-width: 0.520914; stroke-linejoin: miter"/>
   </g>
   <g id="patch_131">
    <path d="M 298.434304 338.118615 
C 302.970168 338.118615 307.320865 336.316497 310.528205 333.109157 
C 313.735545 329.901817 315.537662 325.55112 315.537662 321.015257 
C 315.537662 316.479393 313.735545 312.128696 310.528205 308.921356 
C 307.320865 305.714016 302.970168 303.911898 298.434304 303.911898 
C 293.89844 303.911898 289.547743 305.714016 286.340403 308.921356 
C 283.133063 312.128696 281.330946 316.479393 281.330946 321.015257 
C 281.330946 325.55112 283.133063 329.901817 286.340403 333.109157 
C 289.547743 336.316497 293.89844 338.118615 298.434304 338.118615 
z
" clip-path="url(#p39039d64b8)" style="fill: #ffffff; stroke: #2c404c; stroke-width: 0.520914; stroke-linejoin: miter"/>
   </g>
   <g id="patch_132">
    <path d="M 263.706673 338.118615 
C 268.242536 338.118615 272.593233 336.316497 275.800573 333.109157 
C 279.007913 329.901817 280.810031 325.55112 280.810031 321.015257 
C 280.810031 316.479393 279.007913 312.128696 275.800573 308.921356 
C 272.593233 305.714016 268.242536 303.911898 263.706673 303.911898 
C 259.170809 303.911898 254.820112 305.714016 251.612772 308.921356 
C 248.405432 312.128696 246.603314 316.479393 246.603314 321.015257 
C 246.603314 325.55112 248.405432 329.901817 251.612772 333.109157 
C 254.820112 336.316497 259.170809 338.118615 263.706673 338.118615 
z
" clip-path="url(#p39039d64b8)" style="fill: #ffffff; stroke: #2c404c; stroke-width: 0.520914; stroke-linejoin: miter"/>
   </g>
  </g>
  <g id="axes_10">
   <g id="patch_133">
    <path d="M 333.257143 344.453391 
L 485.485714 344.453391 
L 485.485714 207.45975 
L 333.257143 207.45975 
z
" style="fill: #ffffff"/>
   </g>
   <g id="patch_134">
    <path d="M 352.668732 304.432476 
L 357.399903 320.82174 
L 357.06625 320.918057 
L 352.335079 304.528793 
M 352.501906 304.480634 
L 352.501906 304.480634 
" clip-path="url(#p384e5d57b6)" style="fill: none; opacity: 0"/>
   </g>
   <g id="patch_135">
    <path d="M 443.467007 264.902633 
L 426.845991 261.064172 
L 426.924134 260.725802 
L 443.54515 264.564263 
M 443.506079 264.733448 
L 443.506079 264.733448 
" clip-path="url(#p384e5d57b6)" style="fill: none; opacity: 0"/>
   </g>
   <g id="patch_136">
    <path d="M 451.297595 306.574623 
L 444.011558 291.150434 
L 444.325564 291.002105 
L 451.6116 306.426295 
M 451.454598 306.500459 
L 451.454598 306.500459 
" clip-path="url(#p384e5d57b6)" style="fill: none; opacity: 0"/>
   </g>
   <g id="patch_137">
    <path d="M 424.361165 282.480943 
L 409.588084 291.010189 
L 409.414446 290.709439 
L 424.187527 282.180192 
M 424.274346 282.330568 
L 424.274346 282.330568 
" clip-path="url(#p384e5d57b6)" style="fill: none; opacity: 0"/>
   </g>
   <g id="patch_138">
    <path d="M 455.122834 337.01701 
L 461.250421 321.097066 
L 461.574519 321.221811 
L 455.446932 337.141755 
M 455.284883 337.079383 
L 455.284883 337.079383 
" clip-path="url(#p384e5d57b6)" style="fill: none; opacity: 0"/>
   </g>
   <g id="patch_139">
    <path d="M 411.745508 329.474574 
L 426.518589 320.945328 
L 426.692227 321.246078 
L 411.919146 329.775324 
M 411.832327 329.624949 
L 411.832327 329.624949 
" clip-path="url(#p384e5d57b6)" style="fill: none; opacity: 0"/>
   </g>
   <g id="patch_140">
    <path d="M 382.34478 306.771595 
L 392.059496 320.793586 
L 391.774037 320.991358 
L 382.059321 306.969367 
M 382.202051 306.870481 
L 382.202051 306.870481 
" clip-path="url(#p384e5d57b6)" style="fill: none; opacity: 0"/>
   </g>
   <g id="matplotlib.axis_19"/>
   <g id="matplotlib.axis_20"/>
   <g id="patch_141">
    <path d="M 357.279982 338.118615 
C 361.815845 338.118615 366.166542 336.316497 369.373882 333.109157 
C 372.581222 329.901817 374.38334 325.55112 374.38334 321.015257 
C 374.38334 316.479393 372.581222 312.128696 369.373882 308.921356 
C 366.166542 305.714016 361.815845 303.911898 357.279982 303.911898 
C 352.744118 303.911898 348.393421 305.714016 345.186081 308.921356 
C 341.978741 312.128696 340.176623 316.479393 340.176623 321.015257 
C 340.176623 325.55112 341.978741 329.901817 345.186081 333.109157 
C 348.393421 336.316497 352.744118 338.118615 357.279982 338.118615 
z
" clip-path="url(#p384e5d57b6)" style="fill: #ffffff; stroke: #2c404c; stroke-width: 0.520914; stroke-linejoin: miter"/>
   </g>
   <g id="patch_142">
    <path d="M 426.735244 277.968621 
C 431.271108 277.968621 435.621805 276.166504 438.829145 272.959164 
C 442.036485 269.751824 443.838603 265.401127 443.838603 260.865263 
C 443.838603 256.329399 442.036485 251.978702 438.829145 248.771362 
C 435.621805 245.564022 431.271108 243.761905 426.735244 243.761905 
C 422.199381 243.761905 417.848683 245.564022 414.641343 248.771362 
C 411.434004 251.978702 409.631886 256.329399 409.631886 260.865263 
C 409.631886 265.401127 411.434004 269.751824 414.641343 272.959164 
C 417.848683 276.166504 422.199381 277.968621 426.735244 277.968621 
z
" clip-path="url(#p384e5d57b6)" style="fill: #ffffff; stroke: #2c404c; stroke-width: 0.520914; stroke-linejoin: miter"/>
   </g>
   <g id="patch_143">
    <path d="M 444.09906 308.043618 
C 448.634923 308.043618 452.985621 306.2415 456.19296 303.03416 
C 459.4003 299.82682 461.202418 295.476123 461.202418 290.94026 
C 461.202418 286.404396 459.4003 282.053699 456.19296 278.846359 
C 452.985621 275.639019 448.634923 273.836901 444.09906 273.836901 
C 439.563196 273.836901 435.212499 275.639019 432.005159 278.846359 
C 428.797819 282.053699 426.995701 286.404396 426.995701 290.94026 
C 426.995701 295.476123 428.797819 299.82682 432.005159 303.03416 
C 435.212499 306.2415 439.563196 308.043618 444.09906 308.043618 
z
" clip-path="url(#p384e5d57b6)" style="fill: #ffffff; stroke: #2c404c; stroke-width: 0.520914; stroke-linejoin: miter"/>
   </g>
   <g id="patch_144">
    <path d="M 409.371429 308.043618 
C 413.907292 308.043618 418.257989 306.2415 421.465329 303.03416 
C 424.672669 299.82682 426.474787 295.476123 426.474787 290.94026 
C 426.474787 286.404396 424.672669 282.053699 421.465329 278.846359 
C 418.257989 275.639019 413.907292 273.836901 409.371429 273.836901 
C 404.835565 273.836901 400.484868 275.639019 397.277528 278.846359 
C 394.070188 282.053699 392.26807 286.404396 392.26807 290.94026 
C 392.26807 295.476123 394.070188 299.82682 397.277528 303.03416 
C 400.484868 306.2415 404.835565 308.043618 409.371429 308.043618 
z
" clip-path="url(#p384e5d57b6)" style="fill: #ffffff; stroke: #2c404c; stroke-width: 0.520914; stroke-linejoin: miter"/>
   </g>
   <g id="patch_145">
    <path d="M 461.462875 338.118615 
C 465.998739 338.118615 470.349436 336.316497 473.556776 333.109157 
C 476.764116 329.901817 478.566234 325.55112 478.566234 321.015257 
C 478.566234 316.479393 476.764116 312.128696 473.556776 308.921356 
C 470.349436 305.714016 465.998739 303.911898 461.462875 303.911898 
C 456.927012 303.911898 452.576315 305.714016 449.368975 308.921356 
C 446.161635 312.128696 444.359517 316.479393 444.359517 321.015257 
C 444.359517 325.55112 446.161635 329.901817 449.368975 333.109157 
C 452.576315 336.316497 456.927012 338.118615 461.462875 338.118615 
z
" clip-path="url(#p384e5d57b6)" style="fill: #ffffff; stroke: #2c404c; stroke-width: 0.520914; stroke-linejoin: miter"/>
   </g>
   <g id="patch_146">
    <path d="M 426.735244 338.118615 
C 431.271108 338.118615 435.621805 336.316497 438.829145 333.109157 
C 442.036485 329.901817 443.838603 325.55112 443.838603 321.015257 
C 443.838603 316.479393 442.036485 312.128696 438.829145 308.921356 
C 435.621805 305.714016 431.271108 303.911898 426.735244 303.911898 
C 422.199381 303.911898 417.848683 305.714016 414.641343 308.921356 
C 411.434004 312.128696 409.631886 316.479393 409.631886 321.015257 
C 409.631886 325.55112 411.434004 329.901817 414.641343 333.109157 
C 417.848683 336.316497 422.199381 338.118615 426.735244 338.118615 
z
" clip-path="url(#p384e5d57b6)" style="fill: #ffffff; stroke: #2c404c; stroke-width: 0.520914; stroke-linejoin: miter"/>
   </g>
   <g id="patch_147">
    <path d="M 392.007613 338.118615 
C 396.543477 338.118615 400.894174 336.316497 404.101514 333.109157 
C 407.308854 329.901817 409.110971 325.55112 409.110971 321.015257 
C 409.110971 316.479393 407.308854 312.128696 404.101514 308.921356 
C 400.894174 305.714016 396.543477 303.911898 392.007613 303.911898 
C 387.471749 303.911898 383.121052 305.714016 379.913712 308.921356 
C 376.706372 312.128696 374.904255 316.479393 374.904255 321.015257 
C 374.904255 325.55112 376.706372 329.901817 379.913712 333.109157 
C 383.121052 336.316497 387.471749 338.118615 392.007613 338.118615 
z
" clip-path="url(#p384e5d57b6)" style="fill: #ffffff; stroke: #2c404c; stroke-width: 0.520914; stroke-linejoin: miter"/>
   </g>
  </g>
  <g id="axes_11">
   <g id="patch_148">
    <path d="M 496.285714 344.453391 
L 648.514286 344.453391 
L 648.514286 207.45975 
L 496.285714 207.45975 
z
" style="fill: #ffffff"/>
   </g>
   <g id="patch_149">
    <path d="M 571.249712 255.08826 
L 555.237727 260.971141 
L 555.117963 260.64517 
L 571.129948 254.762288 
M 571.18983 254.925274 
L 571.18983 254.925274 
" clip-path="url(#pbc05a6bf11)" style="fill: none; opacity: 0"/>
   </g>
   <g id="patch_150">
    <path d="M 589.269098 294.358708 
L 572.517997 291.134955 
L 572.583626 290.793937 
L 589.334727 294.017689 
M 589.301912 294.188198 
L 589.301912 294.188198 
" clip-path="url(#pbc05a6bf11)" style="fill: none; opacity: 0"/>
   </g>
   <g id="patch_151">
    <path d="M 543.465622 274.732531 
L 537.881924 290.851287 
L 537.553779 290.737614 
L 543.137477 274.618859 
M 543.30155 274.675695 
L 543.30155 274.675695 
" clip-path="url(#pbc05a6bf11)" style="fill: none; opacity: 0"/>
   </g>
   <g id="patch_152">
    <path d="M 611.997047 307.449076 
L 607.010744 291.135624 
L 607.342853 291.034113 
L 612.329156 307.347565 
M 612.163102 307.398321 
L 612.163102 307.398321 
" clip-path="url(#pbc05a6bf11)" style="fill: none; opacity: 0"/>
   </g>
   <g id="patch_153">
    <path d="M 618.698193 337.222985 
L 624.281891 321.10423 
L 624.610037 321.217902 
L 619.026339 337.336658 
M 618.862266 337.279821 
L 618.862266 337.279821 
" clip-path="url(#pbc05a6bf11)" style="fill: none; opacity: 0"/>
   </g>
   <g id="patch_154">
    <path d="M 577.708336 333.300111 
L 589.536265 321.00816 
L 589.786504 321.248953 
L 577.958575 333.540904 
M 577.833455 333.420507 
L 577.833455 333.420507 
" clip-path="url(#pbc05a6bf11)" style="fill: none; opacity: 0"/>
   </g>
   <g id="patch_155">
    <path d="M 541.757004 310.064658 
L 555.023621 320.787942 
L 554.805317 321.058024 
L 541.5387 310.33474 
M 541.647852 310.199699 
L 541.647852 310.199699 
" clip-path="url(#pbc05a6bf11)" style="fill: none; opacity: 0"/>
   </g>
   <g id="patch_156">
    <path d="M 514.401733 304.848571 
L 520.412812 320.812871 
L 520.087811 320.935245 
L 514.076732 304.970945 
M 514.239232 304.909758 
L 514.239232 304.909758 
" clip-path="url(#pbc05a6bf11)" style="fill: none; opacity: 0"/>
   </g>
   <g id="matplotlib.axis_21"/>
   <g id="matplotlib.axis_22"/>
   <g id="patch_157">
    <path d="M 555.036184 277.968621 
C 559.572048 277.968621 563.922745 276.166504 567.130085 272.959164 
C 570.337425 269.751824 572.139543 265.401127 572.139543 260.865263 
C 572.139543 256.329399 570.337425 251.978702 567.130085 248.771362 
C 563.922745 245.564022 559.572048 243.761905 555.036184 243.761905 
C 550.500321 243.761905 546.149624 245.564022 542.942284 248.771362 
C 539.734944 251.978702 537.932826 256.329399 537.932826 260.865263 
C 537.932826 265.401127 539.734944 269.751824 542.942284 272.959164 
C 546.149624 276.166504 550.500321 277.968621 555.036184 277.968621 
z
" clip-path="url(#pbc05a6bf11)" style="fill: #ffffff; stroke: #2c404c; stroke-width: 0.520914; stroke-linejoin: miter"/>
   </g>
   <g id="patch_158">
    <path d="M 572.4 308.043618 
C 576.935864 308.043618 581.286561 306.2415 584.493901 303.03416 
C 587.701241 299.82682 589.503358 295.476123 589.503358 290.94026 
C 589.503358 286.404396 587.701241 282.053699 584.493901 278.846359 
C 581.286561 275.639019 576.935864 273.836901 572.4 273.836901 
C 567.864136 273.836901 563.513439 275.639019 560.306099 278.846359 
C 557.098759 282.053699 555.296642 286.404396 555.296642 290.94026 
C 555.296642 295.476123 557.098759 299.82682 560.306099 303.03416 
C 563.513439 306.2415 567.864136 308.043618 572.4 308.043618 
z
" clip-path="url(#pbc05a6bf11)" style="fill: #ffffff; stroke: #2c404c; stroke-width: 0.520914; stroke-linejoin: miter"/>
   </g>
   <g id="patch_159">
    <path d="M 537.672369 308.043618 
C 542.208232 308.043618 546.55893 306.2415 549.766269 303.03416 
C 552.973609 299.82682 554.775727 295.476123 554.775727 290.94026 
C 554.775727 286.404396 552.973609 282.053699 549.766269 278.846359 
C 546.55893 275.639019 542.208232 273.836901 537.672369 273.836901 
C 533.136505 273.836901 528.785808 275.639019 525.578468 278.846359 
C 522.371128 282.053699 520.56901 286.404396 520.56901 290.94026 
C 520.56901 295.476123 522.371128 299.82682 525.578468 303.03416 
C 528.785808 306.2415 533.136505 308.043618 537.672369 308.043618 
z
" clip-path="url(#pbc05a6bf11)" style="fill: #ffffff; stroke: #2c404c; stroke-width: 0.520914; stroke-linejoin: miter"/>
   </g>
   <g id="patch_160">
    <path d="M 607.127631 308.043618 
C 611.663495 308.043618 616.014192 306.2415 619.221532 303.03416 
C 622.428872 299.82682 624.23099 295.476123 624.23099 290.94026 
C 624.23099 286.404396 622.428872 282.053699 619.221532 278.846359 
C 616.014192 275.639019 611.663495 273.836901 607.127631 273.836901 
C 602.591768 273.836901 598.24107 275.639019 595.033731 278.846359 
C 591.826391 282.053699 590.024273 286.404396 590.024273 290.94026 
C 590.024273 295.476123 591.826391 299.82682 595.033731 303.03416 
C 598.24107 306.2415 602.591768 308.043618 607.127631 308.043618 
z
" clip-path="url(#pbc05a6bf11)" style="fill: #ffffff; stroke: #2c404c; stroke-width: 0.520914; stroke-linejoin: miter"/>
   </g>
   <g id="patch_161">
    <path d="M 624.491447 338.118615 
C 629.02731 338.118615 633.378008 336.316497 636.585348 333.109157 
C 639.792687 329.901817 641.594805 325.55112 641.594805 321.015257 
C 641.594805 316.479393 639.792687 312.128696 636.585348 308.921356 
C 633.378008 305.714016 629.02731 303.911898 624.491447 303.911898 
C 619.955583 303.911898 615.604886 305.714016 612.397546 308.921356 
C 609.190206 312.128696 607.388088 316.479393 607.388088 321.015257 
C 607.388088 325.55112 609.190206 329.901817 612.397546 333.109157 
C 615.604886 336.316497 619.955583 338.118615 624.491447 338.118615 
z
" clip-path="url(#pbc05a6bf11)" style="fill: #ffffff; stroke: #2c404c; stroke-width: 0.520914; stroke-linejoin: miter"/>
   </g>
   <g id="patch_162">
    <path d="M 589.763816 338.118615 
C 594.299679 338.118615 598.650376 336.316497 601.857716 333.109157 
C 605.065056 329.901817 606.867174 325.55112 606.867174 321.015257 
C 606.867174 316.479393 605.065056 312.128696 601.857716 308.921356 
C 598.650376 305.714016 594.299679 303.911898 589.763816 303.911898 
C 585.227952 303.911898 580.877255 305.714016 577.669915 308.921356 
C 574.462575 312.128696 572.660457 316.479393 572.660457 321.015257 
C 572.660457 325.55112 574.462575 329.901817 577.669915 333.109157 
C 580.877255 336.316497 585.227952 338.118615 589.763816 338.118615 
z
" clip-path="url(#pbc05a6bf11)" style="fill: #ffffff; stroke: #2c404c; stroke-width: 0.520914; stroke-linejoin: miter"/>
   </g>
   <g id="patch_163">
    <path d="M 555.036184 338.118615 
C 559.572048 338.118615 563.922745 336.316497 567.130085 333.109157 
C 570.337425 329.901817 572.139543 325.55112 572.139543 321.015257 
C 572.139543 316.479393 570.337425 312.128696 567.130085 308.921356 
C 563.922745 305.714016 559.572048 303.911898 555.036184 303.911898 
C 550.500321 303.911898 546.149624 305.714016 542.942284 308.921356 
C 539.734944 312.128696 537.932826 316.479393 537.932826 321.015257 
C 537.932826 325.55112 539.734944 329.901817 542.942284 333.109157 
C 546.149624 336.316497 550.500321 338.118615 555.036184 338.118615 
z
" clip-path="url(#pbc05a6bf11)" style="fill: #ffffff; stroke: #2c404c; stroke-width: 0.520914; stroke-linejoin: miter"/>
   </g>
   <g id="patch_164">
    <path d="M 520.308553 338.118615 
C 524.844417 338.118615 529.195114 336.316497 532.402454 333.109157 
C 535.609794 329.901817 537.411912 325.55112 537.411912 321.015257 
C 537.411912 316.479393 535.609794 312.128696 532.402454 308.921356 
C 529.195114 305.714016 524.844417 303.911898 520.308553 303.911898 
C 515.77269 303.911898 511.421992 305.714016 508.214652 308.921356 
C 505.007313 312.128696 503.205195 316.479393 503.205195 321.015257 
C 503.205195 325.55112 505.007313 329.901817 508.214652 333.109157 
C 511.421992 336.316497 515.77269 338.118615 520.308553 338.118615 
z
" clip-path="url(#pbc05a6bf11)" style="fill: #ffffff; stroke: #2c404c; stroke-width: 0.520914; stroke-linejoin: miter"/>
   </g>
  </g>
  <g id="axes_12">
   <g id="patch_165">
    <path d="M 659.314286 344.453391 
L 811.542857 344.453391 
L 811.542857 207.45975 
L 659.314286 207.45975 
z
" style="fill: #ffffff"/>
   </g>
   <g id="patch_166">
    <path d="M 734.872524 257.157006 
L 718.251508 260.995467 
L 718.173365 260.657097 
L 734.794381 256.818636 
M 734.833452 256.987821 
L 734.833452 256.987821 
" clip-path="url(#pdc05a9e452)" style="fill: none; opacity: 0"/>
   </g>
   <g id="patch_167">
    <path d="M 750.24942 299.6921 
L 735.476339 291.162853 
L 735.649977 290.862103 
L 750.423058 299.391349 
M 750.336239 299.541724 
L 750.336239 299.541724 
" clip-path="url(#pdc05a9e452)" style="fill: none; opacity: 0"/>
   </g>
   <g id="patch_168">
    <path d="M 708.204891 275.450167 
L 700.918854 290.874357 
L 700.604849 290.726028 
L 707.890885 275.301838 
M 708.047888 275.376003 
L 708.047888 275.376003 
" clip-path="url(#pdc05a9e452)" style="fill: none; opacity: 0"/>
   </g>
   <g id="patch_169">
    <path d="M 742.851904 335.066557 
L 752.56662 321.044565 
L 752.85208 321.242337 
L 743.137364 335.264329 
M 742.994634 335.165443 
L 742.994634 335.165443 
" clip-path="url(#pdc05a9e452)" style="fill: none; opacity: 0"/>
   </g>
   <g id="patch_170">
    <path d="M 703.243908 312.263417 
L 718.016988 320.792663 
L 717.84335 321.093413 
L 703.070269 312.564167 
M 703.157089 312.413792 
L 703.157089 312.413792 
" clip-path="url(#pdc05a9e452)" style="fill: none; opacity: 0"/>
   </g>
   <g id="patch_171">
    <path d="M 677.312315 304.89217 
L 683.439902 320.812115 
L 683.115804 320.93686 
L 676.988217 305.016916 
M 677.150266 304.954543 
L 677.150266 304.954543 
" clip-path="url(#pdc05a9e452)" style="fill: none; opacity: 0"/>
   </g>
   <g id="patch_172">
    <path d="M 782.584244 337.504355 
L 787.315414 321.115091 
L 787.649067 321.211408 
L 782.917896 337.600672 
M 782.75107 337.552514 
L 782.75107 337.552514 
" clip-path="url(#pdc05a9e452)" style="fill: none; opacity: 0"/>
   </g>
   <g id="matplotlib.axis_23"/>
   <g id="matplotlib.axis_24"/>
   <g id="patch_173">
    <path d="M 718.064756 277.968621 
C 722.600619 277.968621 726.951317 276.166504 730.158657 272.959164 
C 733.365996 269.751824 735.168114 265.401127 735.168114 260.865263 
C 735.168114 256.329399 733.365996 251.978702 730.158657 248.771362 
C 726.951317 245.564022 722.600619 243.761905 718.064756 243.761905 
C 713.528892 243.761905 709.178195 245.564022 705.970855 248.771362 
C 702.763515 251.978702 700.961397 256.329399 700.961397 260.865263 
C 700.961397 265.401127 702.763515 269.751824 705.970855 272.959164 
C 709.178195 276.166504 713.528892 277.968621 718.064756 277.968621 
z
" clip-path="url(#pdc05a9e452)" style="fill: #ffffff; stroke: #2c404c; stroke-width: 0.520914; stroke-linejoin: miter"/>
   </g>
   <g id="patch_174">
    <path d="M 735.428571 308.043618 
C 739.964435 308.043618 744.315132 306.2415 747.522472 303.03416 
C 750.729812 299.82682 752.53193 295.476123 752.53193 290.94026 
C 752.53193 286.404396 750.729812 282.053699 747.522472 278.846359 
C 744.315132 275.639019 739.964435 273.836901 735.428571 273.836901 
C 730.892708 273.836901 726.542011 275.639019 723.334671 278.846359 
C 720.127331 282.053699 718.325213 286.404396 718.325213 290.94026 
C 718.325213 295.476123 720.127331 299.82682 723.334671 303.03416 
C 726.542011 306.2415 730.892708 308.043618 735.428571 308.043618 
z
" clip-path="url(#pdc05a9e452)" style="fill: #ffffff; stroke: #2c404c; stroke-width: 0.520914; stroke-linejoin: miter"/>
   </g>
   <g id="patch_175">
    <path d="M 700.70094 308.043618 
C 705.236804 308.043618 709.587501 306.2415 712.794841 303.03416 
C 716.002181 299.82682 717.804299 295.476123 717.804299 290.94026 
C 717.804299 286.404396 716.002181 282.053699 712.794841 278.846359 
C 709.587501 275.639019 705.236804 273.836901 700.70094 273.836901 
C 696.165077 273.836901 691.814379 275.639019 688.60704 278.846359 
C 685.3997 282.053699 683.597582 286.404396 683.597582 290.94026 
C 683.597582 295.476123 685.3997 299.82682 688.60704 303.03416 
C 691.814379 306.2415 696.165077 308.043618 700.70094 308.043618 
z
" clip-path="url(#pdc05a9e452)" style="fill: #ffffff; stroke: #2c404c; stroke-width: 0.520914; stroke-linejoin: miter"/>
   </g>
   <g id="patch_176">
    <path d="M 752.792387 338.118615 
C 757.328251 338.118615 761.678948 336.316497 764.886288 333.109157 
C 768.093628 329.901817 769.895745 325.55112 769.895745 321.015257 
C 769.895745 316.479393 768.093628 312.128696 764.886288 308.921356 
C 761.678948 305.714016 757.328251 303.911898 752.792387 303.911898 
C 748.256523 303.911898 743.905826 305.714016 740.698486 308.921356 
C 737.491146 312.128696 735.689029 316.479393 735.689029 321.015257 
C 735.689029 325.55112 737.491146 329.901817 740.698486 333.109157 
C 743.905826 336.316497 748.256523 338.118615 752.792387 338.118615 
z
" clip-path="url(#pdc05a9e452)" style="fill: #ffffff; stroke: #2c404c; stroke-width: 0.520914; stroke-linejoin: miter"/>
   </g>
   <g id="patch_177">
    <path d="M 718.064756 338.118615 
C 722.600619 338.118615 726.951317 336.316497 730.158657 333.109157 
C 733.365996 329.901817 735.168114 325.55112 735.168114 321.015257 
C 735.168114 316.479393 733.365996 312.128696 730.158657 308.921356 
C 726.951317 305.714016 722.600619 303.911898 718.064756 303.911898 
C 713.528892 303.911898 709.178195 305.714016 705.970855 308.921356 
C 702.763515 312.128696 700.961397 316.479393 700.961397 321.015257 
C 700.961397 325.55112 702.763515 329.901817 705.970855 333.109157 
C 709.178195 336.316497 713.528892 338.118615 718.064756 338.118615 
z
" clip-path="url(#pdc05a9e452)" style="fill: #ffffff; stroke: #2c404c; stroke-width: 0.520914; stroke-linejoin: miter"/>
   </g>
   <g id="patch_178">
    <path d="M 683.337125 338.118615 
C 687.872988 338.118615 692.223685 336.316497 695.431025 333.109157 
C 698.638365 329.901817 700.440483 325.55112 700.440483 321.015257 
C 700.440483 316.479393 698.638365 312.128696 695.431025 308.921356 
C 692.223685 305.714016 687.872988 303.911898 683.337125 303.911898 
C 678.801261 303.911898 674.450564 305.714016 671.243224 308.921356 
C 668.035884 312.128696 666.233766 316.479393 666.233766 321.015257 
C 666.233766 325.55112 668.035884 329.901817 671.243224 333.109157 
C 674.450564 336.316497 678.801261 338.118615 683.337125 338.118615 
z
" clip-path="url(#pdc05a9e452)" style="fill: #ffffff; stroke: #2c404c; stroke-width: 0.520914; stroke-linejoin: miter"/>
   </g>
   <g id="patch_179">
    <path d="M 787.520018 338.118615 
C 792.055882 338.118615 796.406579 336.316497 799.613919 333.109157 
C 802.821259 329.901817 804.623377 325.55112 804.623377 321.015257 
C 804.623377 316.479393 802.821259 312.128696 799.613919 308.921356 
C 796.406579 305.714016 792.055882 303.911898 787.520018 303.911898 
C 782.984155 303.911898 778.633458 305.714016 775.426118 308.921356 
C 772.218778 312.128696 770.41666 316.479393 770.41666 321.015257 
C 770.41666 325.55112 772.218778 329.901817 775.426118 333.109157 
C 778.633458 336.316497 782.984155 338.118615 787.520018 338.118615 
z
" clip-path="url(#pdc05a9e452)" style="fill: #ffffff; stroke: #2c404c; stroke-width: 0.520914; stroke-linejoin: miter"/>
   </g>
  </g>
  <g id="axes_13">
   <g id="patch_180">
    <path d="M 822.342857 344.453391 
L 974.571429 344.453391 
L 974.571429 207.45975 
L 822.342857 207.45975 
z
" style="fill: #ffffff"/>
   </g>
   <g id="patch_181">
    <path d="M 872.481345 276.119408 
L 863.952105 290.892492 
L 863.651355 290.718854 
L 872.180595 275.94577 
M 872.33097 276.032589 
L 872.33097 276.032589 
" clip-path="url(#p947350c021)" style="fill: none; opacity: 0"/>
   </g>
   <g id="patch_182">
    <path d="M 872.634016 306.025517 
L 881.163256 320.798601 
L 880.862506 320.972239 
L 872.333266 306.199155 
M 872.483641 306.112336 
L 872.483641 306.112336 
" clip-path="url(#p947350c021)" style="fill: none; opacity: 0"/>
   </g>
   <g id="patch_183">
    <path d="M 843.27894 304.082325 
L 846.50269 320.833426 
L 846.161671 320.899055 
L 842.937922 304.147954 
M 843.108431 304.115139 
L 843.108431 304.115139 
" clip-path="url(#p947350c021)" style="fill: none; opacity: 0"/>
   </g>
   <g id="patch_184">
    <path d="M 941.644085 305.929999 
L 933.114845 291.156915 
L 933.415595 290.983277 
L 941.944835 305.756361 
M 941.79446 305.84318 
L 941.79446 305.84318 
" clip-path="url(#p947350c021)" style="fill: none; opacity: 0"/>
   </g>
   <g id="patch_185">
    <path d="M 947.130145 337.884355 
L 950.353894 321.133253 
L 950.694913 321.198882 
L 947.471163 337.949984 
M 947.300654 337.917169 
L 947.300654 337.917169 
" clip-path="url(#p947350c021)" style="fill: none; opacity: 0"/>
   </g>
   <g id="patch_186">
    <path d="M 907.069125 335.836108 
L 915.598365 321.063024 
L 915.899115 321.236662 
L 907.369875 336.009746 
M 907.2195 335.922927 
L 907.2195 335.922927 
" clip-path="url(#p947350c021)" style="fill: none; opacity: 0"/>
   </g>
   <g id="matplotlib.axis_25"/>
   <g id="matplotlib.axis_26"/>
   <g id="patch_187">
    <path d="M 863.729512 308.043618 
C 868.265375 308.043618 872.616072 306.2415 875.823412 303.03416 
C 879.030752 299.82682 880.83287 295.476123 880.83287 290.94026 
C 880.83287 286.404396 879.030752 282.053699 875.823412 278.846359 
C 872.616072 275.639019 868.265375 273.836901 863.729512 273.836901 
C 859.193648 273.836901 854.842951 275.639019 851.635611 278.846359 
C 848.428271 282.053699 846.626153 286.404396 846.626153 290.94026 
C 846.626153 295.476123 848.428271 299.82682 851.635611 303.03416 
C 854.842951 306.2415 859.193648 308.043618 863.729512 308.043618 
z
" clip-path="url(#p947350c021)" style="fill: #ffffff; stroke: #2c404c; stroke-width: 0.520914; stroke-linejoin: miter"/>
   </g>
   <g id="patch_188">
    <path d="M 881.093327 338.118615 
C 885.629191 338.118615 889.979888 336.316497 893.187228 333.109157 
C 896.394568 329.901817 898.196686 325.55112 898.196686 321.015257 
C 898.196686 316.479393 896.394568 312.128696 893.187228 308.921356 
C 889.979888 305.714016 885.629191 303.911898 881.093327 303.911898 
C 876.557464 303.911898 872.206767 305.714016 868.999427 308.921356 
C 865.792087 312.128696 863.989969 316.479393 863.989969 321.015257 
C 863.989969 325.55112 865.792087 329.901817 868.999427 333.109157 
C 872.206767 336.316497 876.557464 338.118615 881.093327 338.118615 
z
" clip-path="url(#p947350c021)" style="fill: #ffffff; stroke: #2c404c; stroke-width: 0.520914; stroke-linejoin: miter"/>
   </g>
   <g id="patch_189">
    <path d="M 846.365696 338.118615 
C 850.90156 338.118615 855.252257 336.316497 858.459597 333.109157 
C 861.666937 329.901817 863.469054 325.55112 863.469054 321.015257 
C 863.469054 316.479393 861.666937 312.128696 858.459597 308.921356 
C 855.252257 305.714016 850.90156 303.911898 846.365696 303.911898 
C 841.829832 303.911898 837.479135 305.714016 834.271795 308.921356 
C 831.064455 312.128696 829.262338 316.479393 829.262338 321.015257 
C 829.262338 325.55112 831.064455 329.901817 834.271795 333.109157 
C 837.479135 336.316497 841.829832 338.118615 846.365696 338.118615 
z
" clip-path="url(#p947350c021)" style="fill: #ffffff; stroke: #2c404c; stroke-width: 0.520914; stroke-linejoin: miter"/>
   </g>
   <g id="patch_190">
    <path d="M 933.184774 308.043618 
C 937.720638 308.043618 942.071335 306.2415 945.278675 303.03416 
C 948.486015 299.82682 950.288132 295.476123 950.288132 290.94026 
C 950.288132 286.404396 948.486015 282.053699 945.278675 278.846359 
C 942.071335 275.639019 937.720638 273.836901 933.184774 273.836901 
C 928.64891 273.836901 924.298213 275.639019 921.090873 278.846359 
C 917.883533 282.053699 916.081416 286.404396 916.081416 290.94026 
C 916.081416 295.476123 917.883533 299.82682 921.090873 303.03416 
C 924.298213 306.2415 928.64891 308.043618 933.184774 308.043618 
z
" clip-path="url(#p947350c021)" style="fill: #ffffff; stroke: #2c404c; stroke-width: 0.520914; stroke-linejoin: miter"/>
   </g>
   <g id="patch_191">
    <path d="M 950.54859 338.118615 
C 955.084453 338.118615 959.43515 336.316497 962.64249 333.109157 
C 965.84983 329.901817 967.651948 325.55112 967.651948 321.015257 
C 967.651948 316.479393 965.84983 312.128696 962.64249 308.921356 
C 959.43515 305.714016 955.084453 303.911898 950.54859 303.911898 
C 946.012726 303.911898 941.662029 305.714016 938.454689 308.921356 
C 935.247349 312.128696 933.445231 316.479393 933.445231 321.015257 
C 933.445231 325.55112 935.247349 329.901817 938.454689 333.109157 
C 941.662029 336.316497 946.012726 338.118615 950.54859 338.118615 
z
" clip-path="url(#p947350c021)" style="fill: #ffffff; stroke: #2c404c; stroke-width: 0.520914; stroke-linejoin: miter"/>
   </g>
   <g id="patch_192">
    <path d="M 915.820958 338.118615 
C 920.356822 338.118615 924.707519 336.316497 927.914859 333.109157 
C 931.122199 329.901817 932.924317 325.55112 932.924317 321.015257 
C 932.924317 316.479393 931.122199 312.128696 927.914859 308.921356 
C 924.707519 305.714016 920.356822 303.911898 915.820958 303.911898 
C 911.285095 303.911898 906.934398 305.714016 903.727058 308.921356 
C 900.519718 312.128696 898.7176 316.479393 898.7176 321.015257 
C 898.7176 325.55112 900.519718 329.901817 903.727058 333.109157 
C 906.934398 336.316497 911.285095 338.118615 915.820958 338.118615 
z
" clip-path="url(#p947350c021)" style="fill: #ffffff; stroke: #2c404c; stroke-width: 0.520914; stroke-linejoin: miter"/>
   </g>
  </g>
  <g id="axes_14">
   <g id="patch_193">
    <path d="M 985.371429 344.453391 
L 1137.6 344.453391 
L 1137.6 207.45975 
L 985.371429 207.45975 
z
" style="fill: #ffffff"/>
   </g>
   <g id="patch_194">
    <path d="M 1009.563155 303.804106 
L 1009.563155 320.862592 
L 1009.215879 320.862592 
L 1009.215879 303.804106 
M 1009.389517 303.804106 
L 1009.389517 303.804106 
" clip-path="url(#pf2d47a6df8)" style="fill: none; opacity: 0"/>
   </g>
   <g id="patch_195">
    <path d="M 1044.290787 303.804106 
L 1044.290787 320.862592 
L 1043.94351 320.862592 
L 1043.94351 303.804106 
M 1044.117149 303.804106 
L 1044.117149 303.804106 
" clip-path="url(#pf2d47a6df8)" style="fill: none; opacity: 0"/>
   </g>
   <g id="patch_196">
    <path d="M 1078.680642 338.226408 
L 1078.680642 321.167921 
L 1079.027918 321.167921 
L 1079.027918 338.226408 
M 1078.85428 338.226408 
L 1078.85428 338.226408 
" clip-path="url(#pf2d47a6df8)" style="fill: none; opacity: 0"/>
   </g>
   <g id="patch_197">
    <path d="M 1113.408273 338.226408 
L 1113.408273 321.167921 
L 1113.755549 321.167921 
L 1113.755549 338.226408 
M 1113.581911 338.226408 
L 1113.581911 338.226408 
" clip-path="url(#pf2d47a6df8)" style="fill: none; opacity: 0"/>
   </g>
   <g id="matplotlib.axis_27"/>
   <g id="matplotlib.axis_28"/>
   <g id="patch_198">
    <path d="M 1009.394267 338.118615 
C 1013.930131 338.118615 1018.280828 336.316497 1021.488168 333.109157 
C 1024.695508 329.901817 1026.497626 325.55112 1026.497626 321.015257 
C 1026.497626 316.479393 1024.695508 312.128696 1021.488168 308.921356 
C 1018.280828 305.714016 1013.930131 303.911898 1009.394267 303.911898 
C 1004.858404 303.911898 1000.507707 305.714016 997.300367 308.921356 
C 994.093027 312.128696 992.290909 316.479393 992.290909 321.015257 
C 992.290909 325.55112 994.093027 329.901817 997.300367 333.109157 
C 1000.507707 336.316497 1004.858404 338.118615 1009.394267 338.118615 
z
" clip-path="url(#pf2d47a6df8)" style="fill: #ffffff; stroke: #2c404c; stroke-width: 0.520914; stroke-linejoin: miter"/>
   </g>
   <g id="patch_199">
    <path d="M 1044.121899 338.118615 
C 1048.657762 338.118615 1053.008459 336.316497 1056.215799 333.109157 
C 1059.423139 329.901817 1061.225257 325.55112 1061.225257 321.015257 
C 1061.225257 316.479393 1059.423139 312.128696 1056.215799 308.921356 
C 1053.008459 305.714016 1048.657762 303.911898 1044.121899 303.911898 
C 1039.586035 303.911898 1035.235338 305.714016 1032.027998 308.921356 
C 1028.820658 312.128696 1027.01854 316.479393 1027.01854 321.015257 
C 1027.01854 325.55112 1028.820658 329.901817 1032.027998 333.109157 
C 1035.235338 336.316497 1039.586035 338.118615 1044.121899 338.118615 
z
" clip-path="url(#pf2d47a6df8)" style="fill: #ffffff; stroke: #2c404c; stroke-width: 0.520914; stroke-linejoin: miter"/>
   </g>
   <g id="patch_200">
    <path d="M 1078.84953 338.118615 
C 1083.385394 338.118615 1087.736091 336.316497 1090.943431 333.109157 
C 1094.150771 329.901817 1095.952888 325.55112 1095.952888 321.015257 
C 1095.952888 316.479393 1094.150771 312.128696 1090.943431 308.921356 
C 1087.736091 305.714016 1083.385394 303.911898 1078.84953 303.911898 
C 1074.313666 303.911898 1069.962969 305.714016 1066.755629 308.921356 
C 1063.548289 312.128696 1061.746172 316.479393 1061.746172 321.015257 
C 1061.746172 325.55112 1063.548289 329.901817 1066.755629 333.109157 
C 1069.962969 336.316497 1074.313666 338.118615 1078.84953 338.118615 
z
" clip-path="url(#pf2d47a6df8)" style="fill: #ffffff; stroke: #2c404c; stroke-width: 0.520914; stroke-linejoin: miter"/>
   </g>
   <g id="patch_201">
    <path d="M 1113.577161 338.118615 
C 1118.113025 338.118615 1122.463722 336.316497 1125.671062 333.109157 
C 1128.878402 329.901817 1130.680519 325.55112 1130.680519 321.015257 
C 1130.680519 316.479393 1128.878402 312.128696 1125.671062 308.921356 
C 1122.463722 305.714016 1118.113025 303.911898 1113.577161 303.911898 
C 1109.041297 303.911898 1104.6906 305.714016 1101.48326 308.921356 
C 1098.27592 312.128696 1096.473803 316.479393 1096.473803 321.015257 
C 1096.473803 325.55112 1098.27592 329.901817 1101.48326 333.109157 
C 1104.6906 336.316497 1109.041297 338.118615 1113.577161 338.118615 
z
" clip-path="url(#pf2d47a6df8)" style="fill: #ffffff; stroke: #2c404c; stroke-width: 0.520914; stroke-linejoin: miter"/>
   </g>
  </g>
 </g>
 <defs>
  <clipPath id="p5ac7e634c5">
   <rect x="7.2" y="7.2" width="152.228571" height="136.993641"/>
  </clipPath>
  <clipPath id="pb6d827adfc">
   <rect x="170.228571" y="7.2" width="152.228571" height="136.993641"/>
  </clipPath>
  <clipPath id="pdfb484c316">
   <rect x="333.257143" y="7.2" width="152.228571" height="136.993641"/>
  </clipPath>
  <clipPath id="pae1f203334">
   <rect x="496.285714" y="7.2" width="152.228571" height="136.993641"/>
  </clipPath>
  <clipPath id="p8f4c1aa66d">
   <rect x="659.314286" y="7.2" width="152.228571" height="136.993641"/>
  </clipPath>
  <clipPath id="p24085d1a07">
   <rect x="822.342857" y="7.2" width="152.228571" height="136.993641"/>
  </clipPath>
  <clipPath id="p92d7552480">
   <rect x="985.371429" y="7.2" width="152.228571" height="136.993641"/>
  </clipPath>
  <clipPath id="p14f0342b4f">
   <rect x="7.2" y="207.45975" width="152.228571" height="136.993641"/>
  </clipPath>
  <clipPath id="p39039d64b8">
   <rect x="170.228571" y="207.45975" width="152.228571" height="136.993641"/>
  </clipPath>
  <clipPath id="p384e5d57b6">
   <rect x="333.257143" y="207.45975" width="152.228571" height="136.993641"/>
  </clipPath>
  <clipPath id="pbc05a6bf11">
   <rect x="496.285714" y="207.45975" width="152.228571" height="136.993641"/>
  </clipPath>
  <clipPath id="pdc05a9e452">
   <rect x="659.314286" y="207.45975" width="152.228571" height="136.993641"/>
  </clipPath>
  <clipPath id="p947350c021">
   <rect x="822.342857" y="207.45975" width="152.228571" height="136.993641"/>
  </clipPath>
  <clipPath id="pf2d47a6df8">
   <rect x="985.371429" y="207.45975" width="152.228571" height="136.993641"/>
  </clipPath>
 </defs>
</svg>
